<?xml version="1.0" encoding="UTF-8" standalone="no"?>
<!DOCTYPE svg PUBLIC "-//W3C//DTD SVG 1.1//EN" "http://www.w3.org/Graphics/SVG/1.1/DTD/svg11.dtd">
<!-- 由 Microsoft Visio, SVG Export 生成 fig12_ota_update_diagram_via_network.svg 页-1 -->
<svg xmlns="http://www.w3.org/2000/svg" xmlns:xlink="http://www.w3.org/1999/xlink" xmlns:ev="http://www.w3.org/2001/xml-events"
		xmlns:v="http://schemas.microsoft.com/visio/2003/SVGExtensions/" width="7.08522in" height="1.79585in"
		viewBox="0 0 510.136 129.301" xml:space="preserve" color-interpolation-filters="sRGB" class="st32">
	<v:documentProperties v:langID="2052" v:metric="true" v:viewMarkup="false"/>

	<style type="text/css">
	<![CDATA[
		.st1 {fill:url(#grad0-4);stroke:#404040;stroke-dasharray:5.25,3.75;stroke-linecap:round;stroke-linejoin:round;stroke-width:0.75}
		.st2 {fill:none;stroke:#404040;stroke-dasharray:5.25,3.75;stroke-linecap:round;stroke-linejoin:round;stroke-width:0.75}
		.st3 {fill:none;stroke:none;stroke-linecap:round;stroke-linejoin:round;stroke-width:0.25}
		.st4 {fill:#000000;font-family:Calibri;font-size:0.666664em}
		.st5 {font-size:1em}
		.st6 {fill:url(#grad0-17);stroke:none;stroke-linecap:round;stroke-linejoin:round;stroke-width:0.25}
		.st7 {fill:#ff00ff;fill-opacity:0}
		.st8 {stroke:#000000;stroke-linecap:round;stroke-linejoin:round;stroke-opacity:0;stroke-width:0.72}
		.st9 {fill:url(#grad12-33);stroke:#ffffff;stroke-linecap:round;stroke-linejoin:round;stroke-width:0.72}
		.st10 {fill:url(#grad0-39);stroke:#ffffff;stroke-linecap:round;stroke-linejoin:round;stroke-width:0.72}
		.st11 {fill:url(#grad10-43);stroke:#000000;stroke-linecap:round;stroke-linejoin:round;stroke-width:0.72}
		.st12 {fill:url(#grad11-57);stroke:#000000;stroke-linecap:round;stroke-linejoin:round;stroke-width:0.72}
		.st13 {stroke:#404040;stroke-linecap:round;stroke-linejoin:round;stroke-width:1.5}
		.st14 {stroke:#404040;stroke-dasharray:5.25,3.75;stroke-linecap:round;stroke-linejoin:round;stroke-width:0.75}
		.st15 {fill:url(#grad0-77);stroke:#000000;stroke-linecap:round;stroke-linejoin:round;stroke-width:0.25}
		.st16 {fill:#ff00ff;fill-opacity:0;stroke:#404040;stroke-linecap:round;stroke-linejoin:round;stroke-opacity:0;stroke-width:0.72}
		.st17 {fill:url(#grad12-89);stroke:#ffffff;stroke-linecap:round;stroke-linejoin:round;stroke-width:0.72}
		.st18 {fill:url(#grad0-95);stroke:#ffffff;stroke-linecap:round;stroke-linejoin:round;stroke-width:0.72}
		.st19 {fill:url(#grad11-117);stroke:#000000;stroke-linecap:round;stroke-linejoin:round;stroke-width:0.72}
		.st20 {fill:#ffffff;stroke:none;stroke-linecap:round;stroke-linejoin:round;stroke-width:0.24}
		.st21 {fill:#969696;stroke:none;stroke-linecap:round;stroke-linejoin:round;stroke-width:0.24}
		.st22 {fill:#808080;stroke:#808080;stroke-linecap:round;stroke-linejoin:round;stroke-width:0.36}
		.st23 {fill:url(#grad11-117)}
		.st24 {stroke:#000000;stroke-linecap:round;stroke-linejoin:round;stroke-width:0.72}
		.st25 {stroke:#ffffff;stroke-linecap:round;stroke-linejoin:round;stroke-width:0.72}
		.st26 {fill:none;stroke:#404040;stroke-linecap:round;stroke-linejoin:round;stroke-width:1.5}
		.st27 {fill:#000000;stroke:#000000;stroke-linecap:round;stroke-linejoin:round;stroke-width:0.12}
		.st28 {fill:#ffffff;stroke:#000000;stroke-linecap:round;stroke-linejoin:round;stroke-width:0.24}
		.st29 {stroke:#000000;stroke-linecap:round;stroke-linejoin:round;stroke-width:0.36}
		.st30 {stroke:#ffffff;stroke-linecap:round;stroke-linejoin:round;stroke-width:0.36}
		.st31 {fill:url(#grad3-163);stroke:#000000;stroke-linecap:round;stroke-linejoin:round;stroke-width:0.12}
		.st32 {fill:none;fill-rule:evenodd;font-size:12px;overflow:visible;stroke-linecap:square;stroke-miterlimit:3}
	]]>
	</style>

	<defs id="Patterns_And_Gradients">
		<linearGradient id="grad0-4" x1="0" y1="0" x2="1" y2="0" gradientTransform="rotate(270 0.5 0.5)">
			<stop offset="0" stop-color="#f0f0f0" stop-opacity="1"/>
			<stop offset="1" stop-color="#ffffff" stop-opacity="1"/>
		</linearGradient>
		<linearGradient id="grad0-17" x1="0" y1="0" x2="1" y2="0" gradientTransform="rotate(270 0.5 0.5)">
			<stop offset="0" stop-color="#85ca39" stop-opacity="1"/>
			<stop offset="1" stop-color="#92d050" stop-opacity="1"/>
		</linearGradient>
		<pattern id="grad12-33" x="0" y="0" width="1" height="1" patternContentUnits="objectBoundingBox">
			<path d="M 0 0 L 0 1 L 1 1 z" style="fill:url(#grad0-34)"/>
			<path d="M 0 0 L 1 0 L 1 1 z" style="fill:url(#grad0-35)"/>
		</pattern>
		<linearGradient id="grad0-34" x1="0" y1="0" x2="1" y2="0" gradientTransform="rotate(90 0.5 0.5)">
			<stop offset="0" stop-color="#e3e3e3" stop-opacity="1"/>
			<stop offset="1" stop-color="#f2f2f2" stop-opacity="1"/>
		</linearGradient>
		<linearGradient id="grad0-35" x1="0" y1="0" x2="1" y2="0" gradientTransform="rotate(360 0.5 0.5)">
			<stop offset="0" stop-color="#e3e3e3" stop-opacity="1"/>
			<stop offset="1" stop-color="#f2f2f2" stop-opacity="1"/>
		</linearGradient>
		<linearGradient id="grad0-39" x1="0" y1="0" x2="1" y2="0" gradientTransform="rotate(270 0.5 0.5)">
			<stop offset="0" stop-color="#e3e3e3" stop-opacity="1"/>
			<stop offset="1" stop-color="#f2f2f2" stop-opacity="1"/>
		</linearGradient>
		<pattern id="grad10-43" x="0" y="0" width="1" height="1" patternContentUnits="objectBoundingBox">
			<path d="M 0.5 0.5 L 0 0 L 0 1 z" style="fill:url(#grad0-44)"/>
			<path d="M 0.5 0.5 L 1 0 L 1 1 z" style="fill:url(#grad0-45)"/>
			<path d="M 0.5 0.5 L 0 0 L 1 0 z" style="fill:url(#grad0-46)"/>
			<path d="M 0.5 0.5 L 0 1 L 1 1 z" style="fill:url(#grad0-47)"/>
		</pattern>
		<linearGradient id="grad0-44" x1="0" y1="0" x2="1" y2="0" gradientTransform="rotate(180 0.5 0.5)">
			<stop offset="0" stop-color="#ffffff" stop-opacity="1"/>
			<stop offset="1" stop-color="#c6d1e3" stop-opacity="1"/>
		</linearGradient>
		<linearGradient id="grad0-45" x1="0" y1="0" x2="1" y2="0" gradientTransform="rotate(360 0.5 0.5)">
			<stop offset="0" stop-color="#ffffff" stop-opacity="1"/>
			<stop offset="1" stop-color="#c6d1e3" stop-opacity="1"/>
		</linearGradient>
		<linearGradient id="grad0-46" x1="0" y1="0" x2="1" y2="0" gradientTransform="rotate(270 0.5 0.5)">
			<stop offset="0" stop-color="#ffffff" stop-opacity="1"/>
			<stop offset="1" stop-color="#c6d1e3" stop-opacity="1"/>
		</linearGradient>
		<linearGradient id="grad0-47" x1="0" y1="0" x2="1" y2="0" gradientTransform="rotate(90 0.5 0.5)">
			<stop offset="0" stop-color="#ffffff" stop-opacity="1"/>
			<stop offset="1" stop-color="#c6d1e3" stop-opacity="1"/>
		</linearGradient>
		<pattern id="grad11-57" x="0" y="0" width="1" height="1" patternContentUnits="objectBoundingBox">
			<path d="M 0 1 L 0 0 L 1 0 z" style="fill:url(#grad0-58)"/>
			<path d="M 0 1 L 1 1 L 1 0 z" style="fill:url(#grad0-34)"/>
		</pattern>
		<linearGradient id="grad0-58" x1="0" y1="0" x2="1" y2="0" gradientTransform="rotate(180 0.5 0.5)">
			<stop offset="0" stop-color="#e3e3e3" stop-opacity="1"/>
			<stop offset="1" stop-color="#f2f2f2" stop-opacity="1"/>
		</linearGradient>
		<linearGradient id="grad0-77" x1="0" y1="0" x2="1" y2="0" gradientTransform="rotate(270 0.5 0.5)">
			<stop offset="0" stop-color="#d3dcba" stop-opacity="1"/>
			<stop offset="1" stop-color="#e0e6cd" stop-opacity="1"/>
		</linearGradient>
		<pattern id="grad12-89" x="0" y="0" width="1" height="1" patternContentUnits="objectBoundingBox">
			<path d="M 0 0 L 0 1 L 1 1 z" style="fill:url(#grad0-90)"/>
			<path d="M 0 0 L 1 0 L 1 1 z" style="fill:url(#grad0-91)"/>
		</pattern>
		<linearGradient id="grad0-90" x1="0" y1="0" x2="1" y2="0" gradientTransform="rotate(90 0.5 0.5)">
			<stop offset="0" stop-color="#eaeaea" stop-opacity="1"/>
			<stop offset="1" stop-color="#dbdbdb" stop-opacity="1"/>
		</linearGradient>
		<linearGradient id="grad0-91" x1="0" y1="0" x2="1" y2="0" gradientTransform="rotate(360 0.5 0.5)">
			<stop offset="0" stop-color="#eaeaea" stop-opacity="1"/>
			<stop offset="1" stop-color="#dbdbdb" stop-opacity="1"/>
		</linearGradient>
		<linearGradient id="grad0-95" x1="0" y1="0" x2="1" y2="0" gradientTransform="rotate(270 0.5 0.5)">
			<stop offset="0" stop-color="#ffffff" stop-opacity="1"/>
			<stop offset="1" stop-color="#f2f2f2" stop-opacity="1"/>
		</linearGradient>
		<pattern id="grad11-117" x="0" y="0" width="1" height="1" patternContentUnits="objectBoundingBox">
			<path d="M 0 1 L 0 0 L 1 0 z" style="fill:url(#grad0-118)"/>
			<path d="M 0 1 L 1 1 L 1 0 z" style="fill:url(#grad0-119)"/>
		</pattern>
		<linearGradient id="grad0-118" x1="0" y1="0" x2="1" y2="0" gradientTransform="rotate(180 0.5 0.5)">
			<stop offset="0" stop-color="#f0f0f0" stop-opacity="1"/>
			<stop offset="1" stop-color="#ffffff" stop-opacity="1"/>
		</linearGradient>
		<linearGradient id="grad0-119" x1="0" y1="0" x2="1" y2="0" gradientTransform="rotate(90 0.5 0.5)">
			<stop offset="0" stop-color="#f0f0f0" stop-opacity="1"/>
			<stop offset="1" stop-color="#ffffff" stop-opacity="1"/>
		</linearGradient>
		<radialGradient id="grad3-163" cx="0.5" cy="0.5" r="0.73">
			<stop offset="0" stop-color="#ffffff" stop-opacity="1"/>
			<stop offset="1" stop-color="#008000" stop-opacity="1"/>
		</radialGradient>
	</defs>
	<g v:mID="0" v:index="1" v:groupContext="foregroundPage">
		<title>页-1</title>
		<v:pageProperties v:drawingScale="0.0393701" v:pageScale="0.0393701" v:drawingUnits="24" v:shadowOffsetX="8.50394"
				v:shadowOffsetY="-8.50394"/>
		<v:layer v:name="连接线" v:index="0"/>
		<g id="shape2-1" v:mID="2" v:groupContext="shape" transform="translate(18.375,-37.5452)">
			<title>工作表.2</title>
			<v:userDefs>
				<v:ud v:nameU="msvThemeColors" v:val="VT0(36):26"/>
				<v:ud v:nameU="msvThemeEffects" v:val="VT0(16):26"/>
			</v:userDefs>
			<path d="M0 129.3 L79.37 129.3 L79.37 78.28 L0 78.28 L0 129.3 Z" class="st1"/>
		</g>
		<g id="shape3-5" v:mID="3" v:groupContext="shape" transform="translate(136.215,-18.375)">
			<title>椭圆</title>
			<v:userDefs>
				<v:ud v:nameU="visVersion" v:val="VT0(14):26"/>
				<v:ud v:nameU="msvThemeColors" v:val="VT0(36):26"/>
				<v:ud v:nameU="msvThemeEffects" v:val="VT0(16):26"/>
			</v:userDefs>
			<path d="M0 83.03 A122.497 46.2756 0 1 1 244.99 83.03 A122.497 46.2756 0 1 1 0 83.03 Z" class="st2"/>
		</g>
		<g id="shape4-7" v:mID="4" v:groupContext="shape" transform="translate(412.391,-37.5332)">
			<title>工作表.4</title>
			<v:userDefs>
				<v:ud v:nameU="msvThemeColors" v:val="VT0(36):26"/>
				<v:ud v:nameU="msvThemeEffects" v:val="VT0(16):26"/>
			</v:userDefs>
			<path d="M0 129.3 L79.37 129.3 L79.37 78.28 L0 78.28 L0 129.3 Z" class="st1"/>
		</g>
		<g id="shape5-10" v:mID="5" v:groupContext="shape" transform="translate(22.8392,-48.8455)">
			<title>工作表.5</title>
			<desc>Ameba device</desc>
			<v:userDefs>
				<v:ud v:nameU="msvThemeColors" v:val="VT0(36):26"/>
				<v:ud v:nameU="msvThemeEffects" v:val="VT0(16):26"/>
			</v:userDefs>
			<v:textBlock v:margins="rect(4,4,4,4)" v:tabSpace="42.5197"/>
			<v:textRect cx="17.6104" cy="113.751" width="35.23" height="31.0997"/>
			<rect x="0" y="98.2015" width="35.2208" height="31.0997" class="st3"/>
			<text x="6.09" y="111.35" class="st4" v:langID="1033"><v:paragraph v:horizAlign="1"/><v:tabList/>Ameba<v:newlineChar/><tspan
						x="7.11" dy="1.2em" class="st5" v:langID="2052">device</tspan></text>		</g>
		<g id="shape6-14" v:mID="6" v:groupContext="shape" transform="translate(362.282,180.279) scale(1,-1)">
			<title>60 度单向箭头.75</title>
			<desc>Send</desc>
			<v:userDefs>
				<v:ud v:nameU="visVersion" v:val="VT0(14):26"/>
				<v:ud v:nameU="msvThemeColors" v:val="VT0(36):26"/>
				<v:ud v:nameU="msvThemeEffects" v:val="VT0(16):26"/>
			</v:userDefs>
			<v:textBlock v:margins="rect(4,4,4,4)" v:tabSpace="42.5197"/>
			<v:textRect cx="23.1435" cy="114.788" width="46.29" height="29.0264"/>
			<path d="M0 114.79 L8.38 100.27 L8.38 109.85 L46.29 109.85 L46.29 119.72 L8.38 119.72 L8.38 129.3 L0 114.79 Z"
					class="st6"/>
			<text x="15.11" y="-112.39" transform="scale(1,-1)" class="st4" v:langID="2052"><v:paragraph v:horizAlign="1"/><v:tabList/>Send</text>		</g>
		<g id="shape7-19" v:mID="7" v:groupContext="shape" transform="translate(102.902,180.66) scale(1,-1)">
			<title>60 度单向箭头.76</title>
			<desc>Receive</desc>
			<v:userDefs>
				<v:ud v:nameU="visVersion" v:val="VT0(14):26"/>
				<v:ud v:nameU="msvThemeColors" v:val="VT0(36):26"/>
				<v:ud v:nameU="msvThemeEffects" v:val="VT0(16):26"/>
			</v:userDefs>
			<v:textBlock v:margins="rect(4,4,4,4)" v:tabSpace="42.5197"/>
			<v:textRect cx="23.1435" cy="114.788" width="46.29" height="29.0264"/>
			<path d="M0 114.79 L8.38 100.27 L8.38 109.85 L46.29 109.85 L46.29 119.72 L8.38 119.72 L8.38 129.3 L0 114.79 Z"
					class="st6"/>
			<text x="10.59" y="-112.39" transform="scale(1,-1)" class="st4" v:langID="2052"><v:paragraph v:horizAlign="1"/><v:tabList/>Receive</text>		</g>
		<g id="shape8-23" v:mID="8" v:groupContext="shape" transform="translate(216.193,-74.3918)">
			<title>工作表.8</title>
			<desc>OTA firmware file format</desc>
			<v:userDefs>
				<v:ud v:nameU="msvThemeColors" v:val="VT0(36):26"/>
				<v:ud v:nameU="msvThemeEffects" v:val="VT0(16):26"/>
			</v:userDefs>
			<v:textBlock v:margins="rect(4,4,4,4)" v:tabSpace="42.5197"/>
			<v:textRect cx="49.6063" cy="123.081" width="99.22" height="12.4399"/>
			<rect x="0" y="116.861" width="99.2126" height="12.4399" class="st3"/>
			<text x="8.87" y="125.48" class="st4" v:langID="2052"><v:paragraph v:horizAlign="1"/><v:tabList/>OTA firmware file format</text>		</g>
		<g id="group9-26" transform="translate(59.5104,-49.6866)" v:mID="9" v:groupContext="group">
			<v:custProps>
				<v:cp v:nameU="ShapeClass" v:lbl="ShapeClass" v:type="0" v:invis="true" v:ask="false" v:langID="2052"
						v:val="VT4(设备)"/>
				<v:cp v:nameU="ShapeType" v:lbl="ShapeType" v:type="0" v:invis="true" v:ask="false" v:langID="2052" v:val="VT4(设备)"/>
				<v:cp v:nameU="SubShapeType" v:lbl="SubShapeType" v:type="0" v:invis="true" v:ask="false" v:langID="2052"
						v:val="VT4(扫描仪)"/>
				<v:cp v:nameU="Manufacturer" v:lbl="制造商" v:type="0" v:sortKey="Equipment" v:invis="false" v:ask="false"
						v:langID="2052"/>
				<v:cp v:nameU="ProductNumber" v:lbl="产品编号" v:type="0" v:sortKey="Equipment" v:invis="false" v:ask="false"
						v:langID="2052"/>
				<v:cp v:nameU="PartNumber" v:lbl="部件号" v:type="0" v:sortKey="Equipment" v:invis="false" v:ask="false"
						v:langID="2052"/>
				<v:cp v:nameU="ProductDescription" v:lbl="产品说明" v:type="0" v:sortKey="Equipment" v:invis="false" v:ask="false"
						v:langID="2052"/>
				<v:cp v:nameU="AssetNumber" v:lbl="资产号" v:type="0" v:sortKey="Asset" v:invis="false" v:ask="false" v:langID="2052"/>
				<v:cp v:nameU="SerialNumber" v:lbl="序列号" v:type="0" v:sortKey="Asset" v:invis="false" v:ask="false" v:langID="2052"/>
				<v:cp v:nameU="Location" v:lbl="位置" v:type="0" v:sortKey="Asset" v:invis="false" v:ask="false" v:langID="2052"/>
				<v:cp v:nameU="Building" v:lbl="建筑物" v:type="0" v:sortKey="Asset" v:invis="false" v:ask="false" v:langID="2052"/>
				<v:cp v:nameU="Room" v:lbl="房间" v:type="0" v:sortKey="Asset" v:invis="false" v:ask="false" v:langID="2052"/>
			</v:custProps>
			<v:userDefs>
				<v:ud v:nameU="HasText" v:val="VT0(0):5"/>
				<v:ud v:nameU="ShapeClass" v:val="VT0(5):26"/>
				<v:ud v:nameU="ShapeType" v:val="VT0(8):26"/>
				<v:ud v:nameU="SubShapeType" v:val="VT0(63):26"/>
				<v:ud v:nameU="SolSH" v:val="VT15({BF0433D9-CD73-4EB5-8390-8653BE590246}):41"/>
				<v:ud v:nameU="visLegendShape" v:val="VT0(2):26"/>
				<v:ud v:nameU="visVersion" v:prompt="" v:val="VT0(14):26"/>
				<v:ud v:nameU="msvThemeColors" v:val="VT0(36):26"/>
				<v:ud v:nameU="msvThemeEffects" v:val="VT0(16):26"/>
			</v:userDefs>
			<title>扫描仪.62</title>
			<g id="shape10-27" v:mID="10" v:groupContext="shape">
				<title>工作表.10</title>
				<v:userDefs>
					<v:ud v:nameU="msvThemeColors" v:val="VT0(36):26"/>
					<v:ud v:nameU="msvThemeEffects" v:val="VT0(16):26"/>
				</v:userDefs>
				<path d="M7.04 106.76 A111.562 102.662 -178.2 0 0 12.03 109.51 A111.534 102.636 1.86 0 1 7.04 106.76 ZM0 116.45 A26.6123
							 24.4893 -178.13 0 0 6.08 121.57 A26.6133 24.4902 1.86 0 1 0 116.45 ZM14.96 129.3 L14.97 125.07 L14.97
							 129.3 L14.96 129.3 ZM8.54 111.52 L0 116.45 L0 120.67 A25.276 23.2596 -178.05 0 0 14.96 129.3 L34.52
							 118.03 L34.52 116.8 L35.22 116.45 L34.52 113.8 L35.22 110.99 L21.13 102.89 L0.88 102.89 L0.18 105.7
							 A34.8021 32.0257 -178.08 0 0 8.54 111.52 Z" class="st7"/>
				<path d="M7.04 106.76 A111.562 102.662 -178.2 0 0 12.03 109.51 A111.534 102.636 1.86 0 1 7.04 106.76M0 116.45 A26.6123
							 24.4893 -178.13 0 0 6.08 121.57 A26.6133 24.4902 1.86 0 1 0 116.45M14.96 129.3 L14.97 125.07 L14.97
							 129.3M8.54 111.52 L0 116.45 L0 120.67 A25.276 23.2596 -178.05 0 0 14.96 129.3 L34.52 118.03 L34.52 116.8
							 L35.22 116.45 L34.52 113.8 L35.22 110.99 L21.13 102.89 L0.88 102.89 L0.18 105.7 A34.8021 32.0257 -178.08
							 0 0 8.54 111.52" class="st8"/>
			</g>
			<g id="shape11-30" v:mID="11" v:groupContext="shape" transform="translate(14.9689,1.42109E-13)">
				<title>工作表.11</title>
				<v:userDefs>
					<v:ud v:nameU="msvThemeColors" v:val="VT0(36):26"/>
					<v:ud v:nameU="msvThemeEffects" v:val="VT0(16):26"/>
				</v:userDefs>
				<path d="M0 129.3 L19.55 118.03 L19.55 116.8 L20.25 116.45 L19.55 113.8 L0 125.07 L0 129.3 Z" class="st9"/>
			</g>
			<g id="shape12-36" v:mID="12" v:groupContext="shape" transform="translate(0,-4.2265)">
				<title>工作表.12</title>
				<v:userDefs>
					<v:ud v:nameU="msvThemeColors" v:val="VT0(36):26"/>
					<v:ud v:nameU="msvThemeEffects" v:val="VT0(16):26"/>
				</v:userDefs>
				<path d="M-0 120.67 A26.6123 24.4893 -178.13 0 0 14.97 129.3 L34.52 118.03 L19.55 109.4 L0 120.67 Z" class="st10"/>
			</g>
			<g id="shape13-40" v:mID="13" v:groupContext="shape" transform="translate(2.81767,-5.98754)">
				<title>工作表.13</title>
				<v:userDefs>
					<v:ud v:nameU="msvThemeColors" v:val="VT0(36):26"/>
					<v:ud v:nameU="msvThemeEffects" v:val="VT0(16):26"/>
				</v:userDefs>
				<path d="M0 122.61 L11.62 129.3 L28.18 119.79 L16.55 113.1 L0 122.61 Z" class="st11"/>
			</g>
			<g id="shape14-48" v:mID="14" v:groupContext="shape" transform="translate(14.2644,-15.4972)">
				<title>工作表.14</title>
				<v:userDefs>
					<v:ud v:nameU="msvThemeColors" v:val="VT0(36):26"/>
					<v:ud v:nameU="msvThemeEffects" v:val="VT0(16):26"/>
				</v:userDefs>
				<path d="M0 129.3 L20.25 129.3 L20.96 126.48 L0.7 126.48 L0 129.3 Z" class="st9"/>
			</g>
			<g id="shape15-51" v:mID="15" v:groupContext="shape" transform="translate(0.880521,-18.3148)">
				<title>工作表.15</title>
				<v:userDefs>
					<v:ud v:nameU="msvThemeColors" v:val="VT0(36):26"/>
					<v:ud v:nameU="msvThemeEffects" v:val="VT0(16):26"/>
				</v:userDefs>
				<path d="M14.09 129.3 L34.34 129.3 L20.25 121.2 L0 121.2 A111.562 102.662 -178.2 0 0 14.09 129.3 Z" class="st10"/>
			</g>
			<g id="shape16-54" v:mID="16" v:groupContext="shape">
				<title>工作表.16</title>
				<v:userDefs>
					<v:ud v:nameU="msvThemeColors" v:val="VT0(36):26"/>
					<v:ud v:nameU="msvThemeEffects" v:val="VT0(16):26"/>
				</v:userDefs>
				<path d="M0 120.67 A25.276 23.2596 -178.05 0 0 14.96 129.3 L14.97 125.07 A26.6133 24.4902 1.86 0 1 0 116.45 L0 120.67
							 Z" class="st12"/>
			</g>
			<g id="shape17-59" v:mID="17" v:groupContext="shape" transform="translate(0.176104,-15.4972)">
				<title>工作表.17</title>
				<v:userDefs>
					<v:ud v:nameU="msvThemeColors" v:val="VT0(36):26"/>
					<v:ud v:nameU="msvThemeEffects" v:val="VT0(16):26"/>
				</v:userDefs>
				<path d="M0 121.2 A34.8021 32.0257 -178.08 0 0 14.09 129.3 L14.79 126.48 A111.536 102.638 1.86 0 1 0.7 118.38 L0
							 121.2 Z" class="st12"/>
			</g>
			<g id="shape18-62" v:mID="18" v:groupContext="shape">
				<title>工作表.18</title>
				<v:userDefs>
					<v:ud v:nameU="msvThemeColors" v:val="VT0(36):26"/>
					<v:ud v:nameU="msvThemeEffects" v:val="VT0(16):26"/>
				</v:userDefs>
				<path d="M0 120.67 A25.2598 23.2447 -178.02 0 0 14.97 129.3 L34.52 118.03 L34.52 116.8 L35.22 116.45 L34.52 113.8
							 L35.22 110.99 L21.13 102.89 L0.88 102.89 L0.18 105.7 A27.1337 24.969 -177.02 0 0 8.63 111.51 L0 116.45
							 L0 120.67" class="st13"/>
			</g>
		</g>
		<g id="shape20-65" v:mID="20" v:groupContext="shape" transform="translate(225.304,-95.3287)">
			<title>工作表.20</title>
			<desc>Local Area Network</desc>
			<v:userDefs>
				<v:ud v:nameU="msvThemeColors" v:val="VT0(36):26"/>
				<v:ud v:nameU="msvThemeEffects" v:val="VT0(16):26"/>
			</v:userDefs>
			<v:textBlock v:margins="rect(4,4,4,4)" v:tabSpace="42.5197"/>
			<v:textRect cx="39.247" cy="121.502" width="78.5" height="15.5975"/>
			<rect x="0" y="113.704" width="78.494" height="15.5975" class="st3"/>
			<text x="7.41" y="123.9" class="st4" v:langID="2052"><v:paragraph v:horizAlign="1"/><v:tabList/>Local Area Network</text>		</g>
		<g id="shape21-68" v:mID="21" v:groupContext="shape" transform="translate(442.558,166.756) rotate(-173.764)">
			<title>工作表.21</title>
			<v:userDefs>
				<v:ud v:nameU="msvThemeColors" v:val="VT0(36):26"/>
				<v:ud v:nameU="msvThemeEffects" v:val="VT0(16):26"/>
			</v:userDefs>
			<path d="M0 126.76 C3.57 128.26 29.94 129.48 52.3 129.29 C79.44 129.06 100.68 126.76 127.57 126.76" class="st14"/>
		</g>
		<g id="shape22-71" v:mID="22" v:groupContext="shape" transform="translate(46.0579,-88.0106) rotate(-5.32606)">
			<title>工作表.22</title>
			<v:userDefs>
				<v:ud v:nameU="msvThemeColors" v:val="VT0(36):26"/>
				<v:ud v:nameU="msvThemeEffects" v:val="VT0(16):26"/>
			</v:userDefs>
			<path d="M0 129.3 C14.97 128 35.58 126.15 56.04 126.1 C71.13 126.07 86.14 127.03 102.07 127.68 C110.98 128.04 120.18
						 128.31 121.71 129.3" class="st14"/>
		</g>
		<g id="shape23-74" v:mID="23" v:groupContext="shape" transform="translate(239.477,-53.7899)">
			<title>工作表.23</title>
			<desc>OTA.bin</desc>
			<v:userDefs>
				<v:ud v:nameU="msvThemeColors" v:val="VT0(36):26"/>
				<v:ud v:nameU="msvThemeEffects" v:val="VT0(16):26"/>
			</v:userDefs>
			<v:textBlock v:margins="rect(4,4,4,4)" v:tabSpace="42.5197"/>
			<v:textRect cx="59.254" cy="119.147" width="118.51" height="20.3086"/>
			<rect x="0" y="108.993" width="118.508" height="20.3086" class="st15"/>
			<text x="46.21" y="121.55" class="st4" v:langID="2052"><v:paragraph v:horizAlign="1"/><v:tabList/>OTA.bin</text>		</g>
		<g id="shape24-79" v:mID="24" v:groupContext="shape" transform="translate(153.897,-53.7899)">
			<title>工作表.24</title>
			<desc>Firmware file header</desc>
			<v:userDefs>
				<v:ud v:nameU="msvThemeColors" v:val="VT0(36):26"/>
				<v:ud v:nameU="msvThemeEffects" v:val="VT0(16):26"/>
			</v:userDefs>
			<v:textBlock v:margins="rect(4,4,4,4)" v:tabSpace="42.5197"/>
			<v:textRect cx="39.247" cy="119.147" width="78.5" height="20.3086"/>
			<rect x="0" y="108.993" width="78.494" height="20.3086" class="st15"/>
			<text x="5.39" y="121.55" class="st4" v:langID="2052"><v:paragraph v:horizAlign="1"/><v:tabList/>Firmware file header</text>		</g>
		<g id="group25-83" transform="translate(416.969,-43.3982)" v:mID="25" v:groupContext="group">
			<v:custProps>
				<v:cp v:nameU="Manufacturer" v:lbl="制造商" v:type="0" v:sortKey="Equipment" v:invis="false" v:ask="false"
						v:langID="2052"/>
				<v:cp v:nameU="ProductNumber" v:lbl="产品编号" v:type="0" v:sortKey="Equipment" v:invis="false" v:ask="false"
						v:langID="2052"/>
				<v:cp v:nameU="PartNumber" v:lbl="部件号" v:type="0" v:sortKey="Equipment" v:invis="false" v:ask="false"
						v:langID="2052"/>
				<v:cp v:nameU="ProductDescription" v:lbl="产品说明" v:type="0" v:sortKey="Equipment" v:invis="false" v:ask="false"
						v:langID="2052"/>
				<v:cp v:nameU="AssetNumber" v:lbl="资产号" v:type="0" v:sortKey="Asset" v:invis="false" v:ask="false" v:langID="2052"/>
				<v:cp v:nameU="SerialNumber" v:lbl="序列号" v:type="0" v:sortKey="Asset" v:invis="false" v:ask="false" v:langID="2052"/>
				<v:cp v:nameU="Location" v:lbl="位置" v:type="0" v:sortKey="Asset" v:invis="false" v:ask="false" v:langID="2052"/>
				<v:cp v:nameU="Building" v:lbl="建筑物" v:type="0" v:sortKey="Asset" v:invis="false" v:ask="false" v:langID="2052"/>
				<v:cp v:nameU="Room" v:lbl="房间" v:type="0" v:sortKey="Asset" v:invis="false" v:ask="false" v:langID="2052"/>
				<v:cp v:nameU="Department" v:lbl="部门" v:type="0" v:invis="false" v:ask="false" v:langID="2052"/>
				<v:cp v:nameU="NetworkName" v:lbl="网络名称" v:type="0" v:sortKey="Network" v:invis="false" v:ask="false"
						v:langID="2052"/>
				<v:cp v:nameU="IPAddress" v:lbl="IP 地址" v:type="0" v:sortKey="Network" v:invis="false" v:ask="false"
						v:langID="2052"/>
				<v:cp v:nameU="SubnetMask" v:lbl="子网掩码" v:type="0" v:sortKey="Network" v:invis="false" v:ask="false"
						v:langID="2052"/>
				<v:cp v:nameU="AdminInterface" v:lbl="管理接口" v:type="0" v:sortKey="Network" v:invis="false" v:ask="false"
						v:langID="2052"/>
				<v:cp v:nameU="NumberOfPorts" v:lbl="端口数目" v:type="0" v:sortKey="Network" v:invis="false" v:ask="false"
						v:langID="2052"/>
				<v:cp v:nameU="CommunityString" v:lbl="团体字符串" v:type="0" v:sortKey="Network" v:invis="false" v:ask="false"
						v:langID="2052"/>
				<v:cp v:nameU="NetworkDescription" v:lbl="网络说明" v:type="0" v:sortKey="Network" v:invis="false" v:ask="false"
						v:langID="2052"/>
				<v:cp v:nameU="CPU" v:lbl="CPU" v:type="0" v:sortKey="Workstation" v:invis="false" v:ask="false" v:langID="2052"/>
				<v:cp v:nameU="Memory" v:lbl="内存" v:type="0" v:sortKey="Workstation" v:invis="false" v:ask="false" v:langID="2052"/>
				<v:cp v:nameU="OperatingSystem" v:lbl="操作系统" v:type="0" v:sortKey="Workstation" v:invis="false" v:ask="false"
						v:langID="2052"/>
				<v:cp v:nameU="BelongsTo" v:lbl="属于" v:type="0" v:invis="true" v:ask="false" v:langID="2052"/>
				<v:cp v:nameU="ShapeClass" v:lbl="ShapeClass" v:type="0" v:invis="true" v:ask="false" v:langID="2052"
						v:val="VT4(设备)"/>
				<v:cp v:nameU="ShapeType" v:lbl="ShapeType" v:type="0" v:invis="true" v:ask="false" v:langID="2052"
						v:val="VT4(计算机)"/>
				<v:cp v:nameU="SubShapeType" v:lbl="SubShapeType" v:type="0" v:invis="true" v:ask="false" v:langID="2052"
						v:val="VT4(桌面)"/>
				<v:cp v:nameU="MACAddress" v:lbl="MAC 地址" v:type="0" v:sortKey="Network" v:invis="false" v:ask="false"
						v:langID="2052"/>
				<v:cp v:nameU="HardDriveSize" v:lbl="硬盘容量" v:type="0" v:sortKey="Workstation" v:invis="false" v:ask="false"
						v:langID="2052"/>
			</v:custProps>
			<v:userDefs>
				<v:ud v:nameU="HasText" v:val="VT0(0):5"/>
				<v:ud v:nameU="ShapeClass" v:val="VT0(5):26"/>
				<v:ud v:nameU="ShapeType" v:val="VT0(6):26"/>
				<v:ud v:nameU="SubShapeType" v:val="VT0(17):26"/>
				<v:ud v:nameU="SolSH" v:val="VT15({BF0433D9-CD73-4EB5-8390-8653BE590246}):41"/>
				<v:ud v:nameU="visLegendShape" v:val="VT0(2):26"/>
				<v:ud v:nameU="visVersion" v:prompt="" v:val="VT0(14):26"/>
				<v:ud v:nameU="msvThemeColors" v:val="VT0(36):26"/>
				<v:ud v:nameU="msvThemeEffects" v:val="VT0(16):26"/>
			</v:userDefs>
			<title>PC.1028</title>
			<g id="shape26-84" v:mID="26" v:groupContext="shape">
				<title>工作表.26</title>
				<v:userDefs>
					<v:ud v:nameU="msvThemeColors" v:val="VT0(36):26"/>
					<v:ud v:nameU="msvThemeEffects" v:val="VT0(16):26"/>
				</v:userDefs>
				<path d="M35.94 103.73 L35.94 94.98 L25.93 89.15 L21.33 90.48 L18.17 88.62 L14.48 90.08 L14.48 103.91 L10.99 105.98
							 L10.99 112.34 A35.3954 35.626 -180 0 0 26.33 121.22 L40.68 112.87 L40.68 106.51 L35.94 103.73 ZM0 118.44
							 L0 120.29 L15.53 129.3 L22.77 125.06 L22.77 122.68 L6.98 113.53 L0 118.44 Z" class="st16"/>
			</g>
			<g id="shape27-86" v:mID="27" v:groupContext="shape" transform="translate(15.534,-2.84217E-14)">
				<title>工作表.27</title>
				<v:userDefs>
					<v:ud v:nameU="msvThemeColors" v:val="VT0(36):26"/>
					<v:ud v:nameU="msvThemeEffects" v:val="VT0(16):26"/>
				</v:userDefs>
				<path d="M0 129.3 L0 127.46 L7.24 122.68 L7.24 125.06 L0 129.3 Z" class="st17"/>
			</g>
			<g id="shape28-92" v:mID="28" v:groupContext="shape" transform="translate(2.07834E-13,-1.83815)">
				<title>工作表.28</title>
				<v:userDefs>
					<v:ud v:nameU="msvThemeColors" v:val="VT0(36):26"/>
					<v:ud v:nameU="msvThemeEffects" v:val="VT0(16):26"/>
				</v:userDefs>
				<path d="M0 120.27 L6.98 115.37 L22.77 124.51 L15.53 129.3 L0 120.27 Z" class="st18"/>
			</g>
			<g id="shape29-96" v:mID="29" v:groupContext="shape" transform="translate(10.9922,-14.4518)">
				<title>工作表.29</title>
				<v:userDefs>
					<v:ud v:nameU="msvThemeColors" v:val="VT0(36):26"/>
					<v:ud v:nameU="msvThemeEffects" v:val="VT0(16):26"/>
				</v:userDefs>
				<path d="M15.34 129.3 L29.69 120.96 L14.28 111.95 L0 120.43 A36.1951 36.4309 -180 0 0 15.34 129.3 Z" class="st18"/>
			</g>
			<g id="shape30-99" v:mID="30" v:groupContext="shape" transform="translate(27.3819,-16.9602)">
				<title>工作表.30</title>
				<v:userDefs>
					<v:ud v:nameU="msvThemeColors" v:val="VT0(36):26"/>
					<v:ud v:nameU="msvThemeEffects" v:val="VT0(16):26"/>
				</v:userDefs>
				<path d="M0 129.3 L0 114.46 L3.01 112.7 L2.9 126.78 L0 129.3 Z" class="st17"/>
			</g>
			<g id="shape31-102" v:mID="31" v:groupContext="shape" transform="translate(30.278,-20.9352)">
				<title>工作表.31</title>
				<v:userDefs>
					<v:ud v:nameU="msvThemeColors" v:val="VT0(36):26"/>
					<v:ud v:nameU="msvThemeEffects" v:val="VT0(16):26"/>
				</v:userDefs>
				<path d="M0.11 118.06 L5.66 115.92 L5.66 124.66 L0 129.3 L0.11 118.06 Z" class="st17"/>
			</g>
			<g id="shape32-105" v:mID="32" v:groupContext="shape" transform="translate(21.3263,-32.1769)">
				<title>工作表.32</title>
				<v:userDefs>
					<v:ud v:nameU="msvThemeColors" v:val="VT0(36):26"/>
					<v:ud v:nameU="msvThemeEffects" v:val="VT0(16):26"/>
				</v:userDefs>
				<path d="M9.06 129.3 L9.07 127.91 L0 122.66 L4.61 121.33 L14.61 127.16 L9.06 129.3 Z" class="st18"/>
			</g>
			<g id="shape33-108" v:mID="33" v:groupContext="shape" transform="translate(26.3287,-8.08258)">
				<title>工作表.33</title>
				<v:userDefs>
					<v:ud v:nameU="msvThemeColors" v:val="VT0(36):26"/>
					<v:ud v:nameU="msvThemeEffects" v:val="VT0(16):26"/>
				</v:userDefs>
				<path d="M0 122.93 L14.35 114.59 L14.35 120.95 L0 129.3 L0 122.93 Z" class="st17"/>
			</g>
			<g id="shape34-111" v:mID="34" v:groupContext="shape" transform="translate(14.4808,-31.8003)">
				<title>工作表.34</title>
				<v:userDefs>
					<v:ud v:nameU="msvThemeColors" v:val="VT0(36):26"/>
					<v:ud v:nameU="msvThemeEffects" v:val="VT0(16):26"/>
				</v:userDefs>
				<path d="M0 121.88 L3.69 120.42 L6.85 122.28 L15.92 127.54 L12.9 129.3 A36.1247 36.3601 0 0 1 -0 121.88 Z"
						class="st18"/>
			</g>
			<g id="shape35-114" v:mID="35" v:groupContext="shape">
				<title>工作表.35</title>
				<v:userDefs>
					<v:ud v:nameU="msvThemeColors" v:val="VT0(36):26"/>
					<v:ud v:nameU="msvThemeEffects" v:val="VT0(16):26"/>
				</v:userDefs>
				<path d="M0 118.44 L15.53 127.46 L15.53 129.3 L0 120.29 L0 118.44 Z" class="st19"/>
			</g>
			<g id="group36-120" transform="translate(1.6917,-2.78291)" v:mID="36" v:groupContext="group">
				<v:userDefs>
					<v:ud v:nameU="msvThemeColors" v:val="VT0(36):26"/>
					<v:ud v:nameU="msvThemeEffects" v:val="VT0(16):26"/>
				</v:userDefs>
				<title>工作表.36</title>
				<g id="shape37-121" v:mID="37" v:groupContext="shape" transform="translate(0,-0.271221)">
					<title>工作表.37</title>
					<v:userDefs>
						<v:ud v:nameU="msvThemeColors" v:val="VT0(36):26"/>
						<v:ud v:nameU="msvThemeEffects" v:val="VT0(16):26"/>
					</v:userDefs>
					<path d="M0 120.98 L1.14 121.65 L2.09 121.03 L0.95 120.35 L0 120.98 ZM1.41 120.03 L2.55 120.7 L3.5 120.08 L2.36
								 119.4 L1.41 120.03 ZM2.82 119.08 L3.96 119.76 L4.91 119.13 L3.77 118.45 L2.82 119.08 ZM4.23 118.13
								 L5.37 118.81 L6.32 118.18 L5.18 117.5 L4.23 118.13 ZM6.35 119.4 L7.48 120.08 L8.43 119.46 L7.3 118.78
								 L6.35 119.4 ZM8.46 120.68 L9.6 121.36 L10.55 120.73 L9.41 120.05 L8.46 120.68 ZM10.58 121.95 L11.72
								 122.63 L12.66 122.01 L11.53 121.33 L10.58 121.95 ZM14.81 124.5 L15.95 125.18 L16.9 124.55 L15.76
								 123.88 L14.81 124.5 ZM16.92 125.78 L18.06 126.45 L19.01 125.83 L17.87 125.15 L16.92 125.78 ZM15.51
								 126.72 L16.65 127.4 L17.6 126.78 L16.46 126.1 L15.51 126.72 ZM13.4 125.45 L14.54 126.13 L15.48 125.5
								 L14.35 124.83 L13.4 125.45 ZM12.69 123.23 L13.83 123.9 L14.78 123.28 L13.64 122.6 L12.69 123.23
								 ZM11.28 124.18 L12.42 124.85 L13.37 124.23 L12.23 123.55 L11.28 124.18 ZM9.17 122.9 L10.31 123.58
								 L11.25 122.96 L10.12 122.28 L9.17 122.9 ZM7.05 121.63 L8.19 122.3 L9.14 121.68 L8 121 L7.05 121.63
								 ZM4.94 120.35 L6.07 121.03 L7.02 120.41 L5.88 119.73 L4.94 120.35 ZM3.53 121.3 L4.66 121.98 L5.61
								 121.36 L4.47 120.68 L3.53 121.3 ZM5.64 122.58 L6.78 123.25 L7.73 122.63 L6.59 121.95 L5.64 122.58
								 ZM7.76 123.85 L8.89 124.53 L9.84 123.9 L8.71 123.23 L7.76 123.85 ZM9.87 125.13 L11.01 125.8 L11.96
								 125.18 L10.82 124.5 L9.87 125.13 ZM11.99 126.4 L13.13 127.08 L14.07 126.45 L12.94 125.78 L11.99
								 126.4 ZM14.1 127.67 L15.24 128.35 L16.19 127.73 L15.05 127.05 L14.1 127.67 ZM12.69 128.62 L13.83
								 129.3 L14.78 128.68 L13.64 128 L12.69 128.62 ZM10.58 127.35 L11.71 128.03 L12.66 127.4 L11.53 126.72
								 L10.58 127.35 ZM4.23 123.53 L9.6 126.75 L10.55 126.13 L5.18 122.9 L4.23 123.53 ZM2.12 122.25 L3.25
								 122.93 L4.2 122.3 L3.06 121.63 L2.12 122.25 Z" class="st20"/>
				</g>
				<g id="shape38-123" v:mID="38" v:groupContext="shape" transform="translate(0.000447385,8.52651E-14)">
					<title>工作表.38</title>
					<v:userDefs>
						<v:ud v:nameU="msvThemeColors" v:val="VT0(36):26"/>
						<v:ud v:nameU="msvThemeEffects" v:val="VT0(16):26"/>
					</v:userDefs>
					<path d="M4.23 118.13 L5.37 118.81 L5.37 118.53 L4.23 117.86 L4.23 118.13 ZM6.35 119.4 L7.49 120.08 L7.49 119.81
								 L6.35 119.13 L6.35 119.4 ZM8.46 120.68 L9.6 121.35 L9.6 121.08 L8.46 120.41 L8.46 120.68 ZM10.58
								 121.95 L11.72 122.63 L11.72 122.36 L10.58 121.68 L10.58 121.95 ZM12.69 123.23 L13.83 123.9 L13.83
								 123.63 L12.69 122.95 L12.69 123.23 ZM14.81 124.5 L15.95 125.18 L15.95 124.91 L14.81 124.23 L14.81
								 124.5 ZM5.37 118.53 L5.37 118.81 L6.32 118.18 L6.32 117.91 L5.37 118.53 ZM7.48 119.81 L7.48 120.08
								 L8.43 119.46 L8.43 119.19 L7.48 119.81 ZM9.6 121.08 L9.6 121.35 L10.55 120.73 L10.55 120.46 L9.6
								 121.08 ZM11.71 122.36 L11.72 122.63 L12.66 122.01 L12.66 121.73 L11.71 122.36 ZM13.83 123.63 L13.83
								 123.9 L14.78 123.28 L14.78 123.01 L13.83 123.63 ZM15.95 124.91 L15.95 125.18 L16.89 124.55 L16.89
								 124.28 L15.95 124.91 ZM16.92 125.78 L18.06 126.45 L18.06 126.18 L16.92 125.5 L16.92 125.78 ZM18.06
								 126.18 L18.06 126.45 L19.01 125.83 L19.01 125.56 L18.06 126.18 ZM2.82 119.08 L3.96 119.76 L3.96
								 119.48 L2.82 118.81 L2.82 119.08 ZM4.94 120.35 L6.07 121.03 L6.07 120.76 L4.94 120.08 L4.94 120.35
								 ZM7.05 121.63 L8.19 122.3 L8.19 122.03 L7.05 121.35 L7.05 121.63 ZM9.17 122.9 L10.31 123.58 L10.3
								 123.31 L9.17 122.63 L9.17 122.9 ZM11.28 124.18 L12.42 124.85 L12.42 124.58 L11.28 123.9 L11.28 124.18
								 ZM13.4 125.45 L14.54 126.13 L14.54 125.86 L13.4 125.18 L13.4 125.45 ZM3.96 119.48 L3.96 119.75 L4.91
								 119.13 L4.91 118.86 L3.96 119.48 ZM6.07 120.76 L6.07 121.03 L7.02 120.41 L7.02 120.13 L6.07 120.76
								 ZM8.19 122.03 L8.19 122.3 L9.14 121.68 L9.14 121.41 L8.19 122.03 ZM10.3 123.31 L10.3 123.58 L11.25
								 122.95 L11.25 122.68 L10.3 123.31 ZM12.42 124.58 L12.42 124.85 L13.37 124.23 L13.37 123.96 L12.42
								 124.58 ZM14.54 125.86 L14.54 126.13 L15.48 125.5 L15.48 125.23 L14.54 125.86 ZM15.51 126.72 L16.65
								 127.4 L16.65 127.13 L15.51 126.45 L15.51 126.72 ZM16.65 127.13 L16.65 127.4 L17.6 126.78 L17.6 126.51
								 L16.65 127.13 ZM1.41 120.03 L2.55 120.7 L2.55 120.43 L1.41 119.75 L1.41 120.03 ZM3.53 121.3 L4.66
								 121.98 L4.66 121.71 L3.53 121.03 L3.53 121.3 ZM5.64 122.58 L6.78 123.25 L6.78 122.98 L5.64 122.3
								 L5.64 122.58 ZM7.76 123.85 L8.89 124.53 L8.89 124.26 L7.76 123.58 L7.76 123.85 ZM9.87 125.12 L11.01
								 125.8 L11.01 125.53 L9.87 124.85 L9.87 125.12 ZM11.99 126.4 L13.13 127.08 L13.13 126.81 L11.99 126.13
								 L11.99 126.4 ZM2.55 120.43 L2.55 120.7 L3.5 120.08 L3.5 119.81 L2.55 120.43 ZM4.66 121.71 L4.66
								 121.98 L5.61 121.35 L5.61 121.08 L4.66 121.71 ZM6.78 122.98 L6.78 123.25 L7.73 122.63 L7.73 122.36
								 L6.78 122.98 ZM8.89 124.26 L8.89 124.53 L9.84 123.9 L9.84 123.63 L8.89 124.26 ZM11.01 125.53 L11.01
								 125.8 L11.96 125.18 L11.96 124.91 L11.01 125.53 ZM13.12 126.81 L13.12 127.08 L14.07 126.45 L14.07
								 126.18 L13.12 126.81 ZM14.1 127.67 L15.24 128.35 L15.24 128.08 L14.1 127.4 L14.1 127.67 ZM15.24
								 128.08 L15.24 128.35 L16.19 127.73 L16.19 127.46 L15.24 128.08 ZM0 120.98 L1.14 121.65 L1.14 121.38
								 L0 120.7 L0 120.98 ZM2.12 122.25 L3.25 122.93 L3.25 122.66 L2.12 121.98 L2.12 122.25 ZM4.23 123.52
								 L9.6 126.75 L9.6 126.48 L4.23 123.25 L4.23 123.52 ZM10.58 127.35 L11.71 128.03 L11.71 127.76 L10.58
								 127.08 L10.58 127.35 ZM1.14 121.38 L1.14 121.65 L2.09 121.03 L2.09 120.76 L1.14 121.38 ZM3.25 122.66
								 L3.25 122.93 L4.2 122.3 L4.2 122.03 L3.25 122.66 ZM9.6 126.48 L9.6 126.75 L10.55 126.13 L10.55 125.86
								 L9.6 126.48 ZM11.71 127.76 L11.71 128.03 L12.66 127.4 L12.66 127.13 L11.71 127.76 ZM12.69 128.62
								 L13.83 129.3 L13.83 129.03 L12.69 128.35 L12.69 128.62 ZM13.83 129.03 L13.83 129.3 L14.78 128.68
								 L14.78 128.41 L13.83 129.03 Z" class="st21"/>
				</g>
			</g>
			<g id="shape39-125" v:mID="39" v:groupContext="shape" transform="translate(37.3268,-16.3573)">
				<title>工作表.39</title>
				<v:userDefs>
					<v:ud v:nameU="msvThemeColors" v:val="VT0(36):26"/>
					<v:ud v:nameU="msvThemeEffects" v:val="VT0(16):26"/>
				</v:userDefs>
				<path d="M0.98 125.39 L1.8 124.87 L1.8 128.25 L0.98 128.77 L0.98 125.39 ZM0 125.92 L0.45 125.65 L0.45 129.04 L0 129.3
							 L0 125.92 Z" class="st22"/>
			</g>
			<g id="shape40-127" v:mID="40" v:groupContext="shape" transform="translate(10.9922,-8.08258)">
				<title>工作表.40</title>
				<v:userDefs>
					<v:ud v:nameU="msvThemeColors" v:val="VT0(36):26"/>
					<v:ud v:nameU="msvThemeEffects" v:val="VT0(16):26"/>
				</v:userDefs>
				<path d="M16.39 120.42 A29.3277 29.5188 0 0 1 3.49 113.14 L3.49 98.16 A35.5442 35.7757 -180 0 0 16.39 105.58 L16.39
							 120.42 ZM0 120.42 A35.3954 35.626 -180 0 0 15.34 129.3 L15.34 122.93 A35.6181 35.8502 0 0 1 0 114.06
							 L0 120.42 Z" class="st23"/>
				<path d="M16.39 120.42 A29.3277 29.5188 0 0 1 3.49 113.14 L3.49 98.16 A35.5442 35.7757 -180 0 0 16.39 105.58 L16.39
							 120.42" class="st24"/>
				<path d="M1.12 116.71 A21.0533 20.917 -90 0 0 4.54 119.5" class="st24"/>
				<path d="M1.12 117.64 A21.0533 20.917 -90 0 0 4.54 120.42" class="st24"/>
				<path d="M1.12 118.57 A21.0533 20.917 -90 0 0 4.54 121.35" class="st24"/>
				<path d="M1.12 119.5 A21.0533 20.917 -90 0 0 4.54 122.28" class="st24"/>
				<path d="M13.49 99.68 L19.55 103.2" class="st24"/>
				<path d="M14.28 99.46 L20.34 102.98" class="st24"/>
				<path d="M15.07 99.24 L21.13 102.76" class="st24"/>
				<path d="M15.86 99.02 L21.92 102.54" class="st24"/>
				<path d="M0 120.42 A35.3954 35.626 -180 0 0 15.34 129.3 L15.34 122.93 A35.6181 35.8502 0 0 1 0 114.06 L0 120.42"
						class="st24"/>
			</g>
			<g id="shape41-140" v:mID="41" v:groupContext="shape" transform="translate(16.0605,-19.6337)">
				<title>工作表.41</title>
				<v:userDefs>
					<v:ud v:nameU="msvThemeColors" v:val="VT0(36):26"/>
					<v:ud v:nameU="msvThemeEffects" v:val="VT0(16):26"/>
				</v:userDefs>
				<path d="M0 113.03 L0 123.76 A30.3301 30.1338 -90.11 0 0 9.35 129.3" class="st25"/>
			</g>
			<g id="shape42-144" v:mID="42" v:groupContext="shape">
				<title>工作表.42</title>
				<v:userDefs>
					<v:ud v:nameU="msvThemeColors" v:val="VT0(36):26"/>
					<v:ud v:nameU="msvThemeEffects" v:val="VT0(16):26"/>
				</v:userDefs>
				<path d="M26.33 121.22 L40.68 112.87 L40.68 106.51 L35.94 103.73 L35.94 94.98 L25.93 89.15 L21.33 90.48 L18.17 88.62
							 L14.48 90.08 L14.48 103.99 L10.99 105.98 L10.99 112.34 A36.2395 36.005 -90 0 0 26.33 121.22 ZM0 118.44
							 L6.98 113.53 L22.77 122.68 L22.77 125.06 L15.53 129.3 L0 120.29 L0 118.44 Z" class="st26"/>
			</g>
			<g id="group43-146" transform="translate(19.0883,-10.3351)" v:mID="43" v:groupContext="group">
				<v:userDefs>
					<v:ud v:nameU="msvThemeColors" v:val="VT0(36):26"/>
					<v:ud v:nameU="msvThemeEffects" v:val="VT0(16):26"/>
				</v:userDefs>
				<title>工作表.43</title>
				<g id="shape44-147" v:mID="44" v:groupContext="shape" transform="translate(1.27586,-2.84217E-14)">
					<title>工作表.44</title>
					<v:userDefs>
						<v:ud v:nameU="msvThemeColors" v:val="VT0(36):26"/>
						<v:ud v:nameU="msvThemeEffects" v:val="VT0(16):26"/>
					</v:userDefs>
					<path d="M0.44 126.52 L4.91 128.31 a0.518917 0.522297 0 0 1 -0.131644 0.99376 L0.44 127.58 a0.536095 0.539587
								 0 0 1 -7.49401E-15 -1.06001 Z" class="st27"/>
				</g>
				<g id="shape45-149" v:mID="45" v:groupContext="shape" transform="translate(3.2474E-14,-1.85502)">
					<title>工作表.45</title>
					<v:userDefs>
						<v:ud v:nameU="msvThemeColors" v:val="VT0(36):26"/>
						<v:ud v:nameU="msvThemeEffects" v:val="VT0(16):26"/>
					</v:userDefs>
					<path d="M0 125.33 L6.45 127.98 L6.45 129.3 L0 126.78 L0 125.33 Z" class="st28"/>
				</g>
				<g id="shape46-151" v:mID="46" v:groupContext="shape" transform="translate(3.2474E-14,-1.85502)">
					<title>工作表.46</title>
					<v:userDefs>
						<v:ud v:nameU="msvThemeColors" v:val="VT0(36):26"/>
						<v:ud v:nameU="msvThemeEffects" v:val="VT0(16):26"/>
					</v:userDefs>
					<path d="M0 125.33 L6.45 127.98 L6.45 129.3" class="st29"/>
				</g>
				<g id="shape47-154" v:mID="47" v:groupContext="shape" transform="translate(3.2474E-14,-2.65003)">
					<title>工作表.47</title>
					<v:userDefs>
						<v:ud v:nameU="msvThemeColors" v:val="VT0(36):26"/>
						<v:ud v:nameU="msvThemeEffects" v:val="VT0(16):26"/>
					</v:userDefs>
					<path d="M0 126.65 L6.45 129.3" class="st29"/>
				</g>
				<g id="shape48-157" v:mID="48" v:groupContext="shape" transform="translate(-3.19744E-14,-1.85502)">
					<title>工作表.48</title>
					<v:userDefs>
						<v:ud v:nameU="msvThemeColors" v:val="VT0(36):26"/>
						<v:ud v:nameU="msvThemeEffects" v:val="VT0(16):26"/>
					</v:userDefs>
					<path d="M0 125.33 L0 126.78 L6.45 129.3" class="st30"/>
				</g>
			</g>
			<g id="shape49-160" v:mID="49" v:groupContext="shape" transform="translate(-40.6183,-0.909014) rotate(-30)">
				<title>工作表.49</title>
				<v:userDefs>
					<v:ud v:nameU="msvThemeColors" v:val="VT0(36):26"/>
					<v:ud v:nameU="msvThemeEffects" v:val="VT0(16):26"/>
				</v:userDefs>
				<ellipse cx="0.441471" cy="128.711" rx="0.441471" ry="0.590542" class="st31"/>
			</g>
			<g id="shape50-164" v:mID="50" v:groupContext="shape" transform="translate(16.0605,-19.6337)">
				<title>工作表.50</title>
				<v:userDefs>
					<v:ud v:nameU="msvThemeColors" v:val="VT0(36):26"/>
					<v:ud v:nameU="msvThemeEffects" v:val="VT0(16):26"/>
				</v:userDefs>
				<path d="M0.4 123.51 L0.4 113.42 L0 113.03 A22.8768 22.7287 -90.48 0 0 9.35 118.59 L9.35 129.3 L9.35 128.82 A28.8988
							 28.7118 91.46 0 1 0.4 123.51 Z" class="st11"/>
			</g>
		</g>
		<g id="shape51-167" v:mID="51" v:groupContext="shape" transform="translate(459.454,-56.4349)">
			<title>工作表.51</title>
			<desc>Server</desc>
			<v:userDefs>
				<v:ud v:nameU="msvThemeColors" v:val="VT0(36):26"/>
				<v:ud v:nameU="msvThemeEffects" v:val="VT0(16):26"/>
			</v:userDefs>
			<v:textBlock v:margins="rect(4,4,4,4)" v:tabSpace="42.5197"/>
			<v:textRect cx="16.1533" cy="121.502" width="32.31" height="15.5975"/>
			<rect x="0" y="113.704" width="32.3066" height="15.5975" class="st3"/>
			<text x="5.74" y="123.9" class="st4" v:langID="2052"><v:paragraph v:horizAlign="1"/><v:tabList/>Server</text>		</g>
	</g>
</svg>
