<?xml version="1.0" encoding="UTF-8" standalone="no"?>
<!DOCTYPE svg PUBLIC "-//W3C//DTD SVG 1.1//EN" "http://www.w3.org/Graphics/SVG/1.1/DTD/svg11.dtd">
<!-- 由 Microsoft Visio, SVG Export 生成 wifi_tunnel_topology_capacity.svg 页-1 -->
<svg xmlns="http://www.w3.org/2000/svg" xmlns:xlink="http://www.w3.org/1999/xlink" xmlns:ev="http://www.w3.org/2001/xml-events"
		xmlns:v="http://schemas.microsoft.com/visio/2003/SVGExtensions/" width="4.6513in" height="4.02853in"
		viewBox="0 0 334.894 290.054" xml:space="preserve" color-interpolation-filters="sRGB" class="st13">
	<v:documentProperties v:langID="2052" v:metric="true" v:viewMarkup="false">
		<v:userDefs>
			<v:ud v:nameU="msvConvertTheme"/>
		</v:userDefs>
	</v:documentProperties>

	<style type="text/css">
	<![CDATA[
		.st1 {fill:#ff0000;stroke:#c8c8c8;stroke-width:0.25}
		.st2 {fill:#feffff;font-family:Calibri;font-size:0.666664em}
		.st3 {fill:#5b9bd5;stroke:#c8c8c8;stroke-width:0.25}
		.st4 {font-size:1em}
		.st5 {fill:#70ad47;stroke:#c8c8c8;stroke-width:0.25}
		.st6 {marker-end:url(#mrkr5-25);stroke:#000000;stroke-linecap:round;stroke-linejoin:round;stroke-width:0.24}
		.st7 {fill:#000000;fill-opacity:1;stroke:#000000;stroke-opacity:1;stroke-width:0.08695652173913}
		.st8 {marker-end:url(#mrkr5-177);marker-start:url(#mrkr5-175);stroke:#000000;stroke-linecap:round;stroke-linejoin:round;stroke-width:2}
		.st9 {fill:#000000;fill-opacity:1;stroke:#000000;stroke-opacity:1;stroke-width:0.44247787610619}
		.st10 {fill:#f7cbac;stroke:#5b9bd5;stroke-width:0.25}
		.st11 {fill:#f7cbac;stroke:none;stroke-width:0.25}
		.st12 {fill:#000000;font-family:Calibri;font-size:0.666664em}
		.st13 {fill:none;fill-rule:evenodd;font-size:12px;overflow:visible;stroke-linecap:square;stroke-miterlimit:3}
	]]>
	</style>

	<defs id="Markers">
		<g id="lend5">
			<path d="M 2 1 L 0 0 L 1.98117 -0.993387 C 1.67173 -0.364515 1.67301 0.372641 1.98465 1.00043 " style="stroke:none"/>
		</g>
		<marker id="mrkr5-25" class="st7" v:arrowType="5" v:arrowSize="2" v:setback="20.125" refX="-20.125" orient="auto"
				markerUnits="strokeWidth" overflow="visible">
			<use xlink:href="#lend5" transform="scale(-11.5,-11.5) "/>
		</marker>
		<marker id="mrkr5-175" class="st9" v:arrowType="5" v:arrowSize="2" v:setback="3.775" refX="3.775" orient="auto"
				markerUnits="strokeWidth" overflow="visible">
			<use xlink:href="#lend5" transform="scale(2.26) "/>
		</marker>
		<marker id="mrkr5-177" class="st9" v:arrowType="5" v:arrowSize="2" v:setback="3.955" refX="-3.955" orient="auto"
				markerUnits="strokeWidth" overflow="visible">
			<use xlink:href="#lend5" transform="scale(-2.26,-2.26) "/>
		</marker>
	</defs>
	<g v:mID="0" v:index="1" v:groupContext="foregroundPage">
		<title>页-1</title>
		<v:pageProperties v:drawingScale="0.0393701" v:pageScale="0.0393701" v:drawingUnits="24" v:shadowOffsetX="8.50394"
				v:shadowOffsetY="-8.50394"/>
		<v:layer v:name="连接线" v:index="0"/>
		<v:layer v:name="流程图" v:index="1"/>
		<g id="shape45-1" v:mID="45" v:groupContext="shape" v:layerMember="0;1" transform="translate(156.1,-181.088)">
			<title>页面内引用.45</title>
			<desc>AP</desc>
			<v:userDefs>
				<v:ud v:nameU="visVersion" v:prompt="" v:val="VT0(15):26"/>
				<v:ud v:nameU="msvThemeColors" v:val="VT0(254):26"/>
			</v:userDefs>
			<v:textBlock v:margins="rect(2,2,2,2)" v:tabSpace="42.5197"/>
			<v:textRect cx="17.0079" cy="273.047" width="34.02" height="34.0157"/>
			<path d="M0 273.05 A17.0079 17.0079 0 0 1 34.02 273.05 A17.0079 17.0079 0 1 1 -0 273.05 Z" class="st1"/>
			<text x="12.63" y="275.45" class="st2" v:langID="2052"><v:paragraph v:horizAlign="1"/><v:tabList/>AP</text>		</g>
		<g id="shape46-4" v:mID="46" v:groupContext="shape" v:layerMember="0;1" transform="translate(52.6357,-135.467)">
			<title>页面内引用.46</title>
			<desc>Root Sta2</desc>
			<v:userDefs>
				<v:ud v:nameU="visVersion" v:prompt="" v:val="VT0(15):26"/>
			</v:userDefs>
			<v:textBlock v:margins="rect(2,2,2,2)" v:tabSpace="42.5197"/>
			<v:textRect cx="14.1732" cy="275.881" width="28.35" height="28.3465"/>
			<path d="M0 275.88 A14.1732 14.1732 0 0 1 28.35 275.88 A14.1732 14.1732 0 0 1 0 275.88 Z" class="st3"/>
			<text x="6.44" y="273.48" class="st2" v:langID="2052"><v:paragraph v:horizAlign="1"/><v:tabList/>Root<v:newlineChar/><tspan
						x="7.05" dy="1.2em" class="st4">Sta</tspan>2</text>		</g>
		<g id="shape47-8" v:mID="47" v:groupContext="shape" v:layerMember="0;1" transform="translate(52.6357,-90.4786)">
			<title>页面内引用.47</title>
			<desc>Sta2-0</desc>
			<v:userDefs>
				<v:ud v:nameU="visVersion" v:prompt="" v:val="VT0(15):26"/>
				<v:ud v:nameU="msvThemeColors" v:val="VT0(254):26"/>
			</v:userDefs>
			<v:textBlock v:margins="rect(2,2,2,2)" v:tabSpace="42.5197"/>
			<v:textRect cx="14.1732" cy="275.881" width="28.35" height="28.3465"/>
			<path d="M0 275.88 A14.1732 14.1732 0 0 1 28.35 275.88 A14.1732 14.1732 0 0 1 0 275.88 Z" class="st5"/>
			<text x="3.8" y="278.28" class="st2" v:langID="2052"><v:paragraph v:horizAlign="1"/><v:tabList/>Sta2-0</text>		</g>
		<g id="shape48-11" v:mID="48" v:groupContext="shape" v:layerMember="0;1" transform="translate(52.6357,-45.6958)">
			<title>页面内引用.48</title>
			<desc>Sta2-1</desc>
			<v:userDefs>
				<v:ud v:nameU="visVersion" v:prompt="" v:val="VT0(15):26"/>
				<v:ud v:nameU="msvThemeColors" v:val="VT0(254):26"/>
			</v:userDefs>
			<v:textBlock v:margins="rect(2,2,2,2)" v:tabSpace="42.5197"/>
			<v:textRect cx="14.1732" cy="275.881" width="28.35" height="28.3465"/>
			<path d="M0 275.88 A14.1732 14.1732 0 0 1 28.35 275.88 A14.1732 14.1732 0 0 1 0 275.88 Z" class="st5"/>
			<text x="3.8" y="278.28" class="st2" v:langID="2052"><v:paragraph v:horizAlign="1"/><v:tabList/>Sta2-1</text>		</g>
		<g id="shape49-14" v:mID="49" v:groupContext="shape" v:layerMember="0;1" transform="translate(52.6357,-0.25)">
			<title>页面内引用.49</title>
			<desc>Sta2-2</desc>
			<v:userDefs>
				<v:ud v:nameU="visVersion" v:prompt="" v:val="VT0(15):26"/>
				<v:ud v:nameU="msvThemeColors" v:val="VT0(254):26"/>
			</v:userDefs>
			<v:textBlock v:margins="rect(2,2,2,2)" v:tabSpace="42.5197"/>
			<v:textRect cx="14.1732" cy="275.881" width="28.35" height="28.3465"/>
			<path d="M0 275.88 A14.1732 14.1732 0 0 1 28.35 275.88 A14.1732 14.1732 0 0 1 0 275.88 Z" class="st5"/>
			<text x="3.8" y="278.28" class="st2" v:langID="2052"><v:paragraph v:horizAlign="1"/><v:tabList/>Sta2-2</text>		</g>
		<g id="shape50-17" v:mID="50" v:groupContext="shape" v:layerMember="0;1" transform="translate(95.1554,-45.6958)">
			<title>页面内引用.50</title>
			<desc>Sta2-3</desc>
			<v:userDefs>
				<v:ud v:nameU="visVersion" v:prompt="" v:val="VT0(15):26"/>
				<v:ud v:nameU="msvThemeColors" v:val="VT0(254):26"/>
			</v:userDefs>
			<v:textBlock v:margins="rect(2,2,2,2)" v:tabSpace="42.5197"/>
			<v:textRect cx="14.1732" cy="275.881" width="28.35" height="28.3465"/>
			<path d="M0 275.88 A14.1732 14.1732 0 0 1 28.35 275.88 A14.1732 14.1732 0 0 1 0 275.88 Z" class="st5"/>
			<text x="3.8" y="278.28" class="st2" v:langID="2052"><v:paragraph v:horizAlign="1"/><v:tabList/>Sta2-3</text>		</g>
		<g id="shape51-20" v:mID="51" v:groupContext="shape" transform="translate(4.74711,486.557) rotate(-158.866)">
			<title>工作表.51</title>
			<v:userDefs>
				<v:ud v:nameU="msvThemeColors" v:val="VT0(254):26"/>
			</v:userDefs>
			<path d="M0 290.05 L40.76 290.05" class="st6"/>
		</g>
		<g id="shape52-26" v:mID="52" v:groupContext="shape" transform="translate(-223.246,261.458) rotate(-90)">
			<title>工作表.52</title>
			<v:userDefs>
				<v:ud v:nameU="msvThemeColors" v:val="VT0(254):26"/>
			</v:userDefs>
			<path d="M0 290.05 L12.27 290.05" class="st6"/>
		</g>
		<g id="shape53-31" v:mID="53" v:groupContext="shape" transform="translate(-223.246,216.012) rotate(-90)">
			<title>工作表.53</title>
			<v:userDefs>
				<v:ud v:nameU="msvThemeColors" v:val="VT0(254):26"/>
			</v:userDefs>
			<path d="M0 290.05 L11.61 290.05" class="st6"/>
		</g>
		<g id="shape54-36" v:mID="54" v:groupContext="shape" transform="translate(-223.246,171.229) rotate(-90)">
			<title>工作表.54</title>
			<v:userDefs>
				<v:ud v:nameU="msvThemeColors" v:val="VT0(254):26"/>
			</v:userDefs>
			<path d="M0 290.05 L11.81 290.05" class="st6"/>
		</g>
		<g id="shape55-41" v:mID="55" v:groupContext="shape" transform="translate(-37.1551,-144.542) rotate(-21.0038)">
			<title>工作表.55</title>
			<v:userDefs>
				<v:ud v:nameU="msvThemeColors" v:val="VT0(254):26"/>
			</v:userDefs>
			<path d="M0 290.05 L90.82 290.05" class="st6"/>
		</g>
		<g id="shape56-46" v:mID="56" v:groupContext="shape" v:layerMember="0;1" transform="translate(158.935,-135.467)">
			<title>页面内引用.56</title>
			<desc>Root Sta1</desc>
			<v:userDefs>
				<v:ud v:nameU="visVersion" v:prompt="" v:val="VT0(15):26"/>
			</v:userDefs>
			<v:textBlock v:margins="rect(2,2,2,2)" v:tabSpace="42.5197"/>
			<v:textRect cx="14.1732" cy="275.881" width="28.35" height="28.3465"/>
			<path d="M0 275.88 A14.1732 14.1732 0 0 1 28.35 275.88 A14.1732 14.1732 0 0 1 0 275.88 Z" class="st3"/>
			<text x="6.44" y="273.48" class="st2" v:langID="2052"><v:paragraph v:horizAlign="1"/><v:tabList/>Root<v:newlineChar/><tspan
						x="7.05" dy="1.2em" class="st4">Sta</tspan>1</text>		</g>
		<g id="shape57-50" v:mID="57" v:groupContext="shape" v:layerMember="0;1" transform="translate(0.25,-183.923)">
			<title>页面内引用.57</title>
			<desc>Root Sta3</desc>
			<v:userDefs>
				<v:ud v:nameU="visVersion" v:prompt="" v:val="VT0(15):26"/>
			</v:userDefs>
			<v:textBlock v:margins="rect(2,2,2,2)" v:tabSpace="42.5197"/>
			<v:textRect cx="14.1732" cy="275.881" width="28.35" height="28.3465"/>
			<path d="M0 275.88 A14.1732 14.1732 0 0 1 28.35 275.88 A14.1732 14.1732 0 0 1 0 275.88 Z" class="st3"/>
			<text x="6.44" y="273.48" class="st2" v:langID="2052"><v:paragraph v:horizAlign="1"/><v:tabList/>Root<v:newlineChar/><tspan
						x="7.05" dy="1.2em" class="st4">Sta</tspan>3</text>		</g>
		<g id="shape58-54" v:mID="58" v:groupContext="shape" v:layerMember="0;1" transform="translate(0.25,-135.467)">
			<title>页面内引用.58</title>
			<desc>Sta3-0</desc>
			<v:userDefs>
				<v:ud v:nameU="visVersion" v:prompt="" v:val="VT0(15):26"/>
				<v:ud v:nameU="msvThemeColors" v:val="VT0(254):26"/>
			</v:userDefs>
			<v:textBlock v:margins="rect(2,2,2,2)" v:tabSpace="42.5197"/>
			<v:textRect cx="14.1732" cy="275.881" width="28.35" height="28.3465"/>
			<path d="M0 275.88 A14.1732 14.1732 0 0 1 28.35 275.88 A14.1732 14.1732 0 0 1 0 275.88 Z" class="st5"/>
			<text x="3.8" y="278.28" class="st2" v:langID="2052"><v:paragraph v:horizAlign="1"/><v:tabList/>Sta3-0</text>		</g>
		<g id="shape59-57" v:mID="59" v:groupContext="shape" v:layerMember="0;1" transform="translate(0.25,-90.4786)">
			<title>页面内引用.59</title>
			<desc>Sta3-1</desc>
			<v:userDefs>
				<v:ud v:nameU="visVersion" v:prompt="" v:val="VT0(15):26"/>
				<v:ud v:nameU="msvThemeColors" v:val="VT0(254):26"/>
			</v:userDefs>
			<v:textBlock v:margins="rect(2,2,2,2)" v:tabSpace="42.5197"/>
			<v:textRect cx="14.1732" cy="275.881" width="28.35" height="28.3465"/>
			<path d="M0 275.88 A14.1732 14.1732 0 0 1 28.35 275.88 A14.1732 14.1732 0 0 1 0 275.88 Z" class="st5"/>
			<text x="3.8" y="278.28" class="st2" v:langID="2052"><v:paragraph v:horizAlign="1"/><v:tabList/>Sta3-1</text>		</g>
		<g id="shape60-60" v:mID="60" v:groupContext="shape" v:layerMember="0;1" transform="translate(0.25,-45.6958)">
			<title>页面内引用.60</title>
			<desc>Sta3-2</desc>
			<v:userDefs>
				<v:ud v:nameU="visVersion" v:prompt="" v:val="VT0(15):26"/>
				<v:ud v:nameU="msvThemeColors" v:val="VT0(254):26"/>
			</v:userDefs>
			<v:textBlock v:margins="rect(2,2,2,2)" v:tabSpace="42.5197"/>
			<v:textRect cx="14.1732" cy="275.881" width="28.35" height="28.3465"/>
			<path d="M0 275.88 A14.1732 14.1732 0 0 1 28.35 275.88 A14.1732 14.1732 0 0 1 0 275.88 Z" class="st5"/>
			<text x="3.8" y="278.28" class="st2" v:langID="2052"><v:paragraph v:horizAlign="1"/><v:tabList/>Sta3-2</text>		</g>
		<g id="shape61-63" v:mID="61" v:groupContext="shape" v:layerMember="0;1" transform="translate(0.25,-0.25)">
			<title>页面内引用.61</title>
			<desc>Sta3-3</desc>
			<v:userDefs>
				<v:ud v:nameU="visVersion" v:prompt="" v:val="VT0(15):26"/>
				<v:ud v:nameU="msvThemeColors" v:val="VT0(254):26"/>
			</v:userDefs>
			<v:textBlock v:margins="rect(2,2,2,2)" v:tabSpace="42.5197"/>
			<v:textRect cx="14.1732" cy="275.881" width="28.35" height="28.3465"/>
			<path d="M0 275.88 A14.1732 14.1732 0 0 1 28.35 275.88 A14.1732 14.1732 0 0 1 0 275.88 Z" class="st5"/>
			<text x="3.8" y="278.28" class="st2" v:langID="2052"><v:paragraph v:horizAlign="1"/><v:tabList/>Sta3-3</text>		</g>
		<g id="shape62-66" v:mID="62" v:groupContext="shape" transform="translate(-275.631,261.458) rotate(-90)">
			<title>工作表.62</title>
			<v:userDefs>
				<v:ud v:nameU="msvThemeColors" v:val="VT0(254):26"/>
			</v:userDefs>
			<path d="M0 290.05 L12.27 290.05" class="st6"/>
		</g>
		<g id="shape63-71" v:mID="63" v:groupContext="shape" transform="translate(-275.631,216.012) rotate(-90)">
			<title>工作表.63</title>
			<v:userDefs>
				<v:ud v:nameU="msvThemeColors" v:val="VT0(254):26"/>
			</v:userDefs>
			<path d="M0 290.05 L11.61 290.05" class="st6"/>
		</g>
		<g id="shape64-76" v:mID="64" v:groupContext="shape" transform="translate(-275.631,171.229) rotate(-90)">
			<title>工作表.64</title>
			<v:userDefs>
				<v:ud v:nameU="msvThemeColors" v:val="VT0(254):26"/>
			</v:userDefs>
			<path d="M0 290.05 L11.81 290.05" class="st6"/>
		</g>
		<g id="shape65-81" v:mID="65" v:groupContext="shape" transform="translate(-275.631,126.241) rotate(-90)">
			<title>工作表.65</title>
			<v:userDefs>
				<v:ud v:nameU="msvThemeColors" v:val="VT0(254):26"/>
			</v:userDefs>
			<path d="M0 290.05 L15.28 290.05" class="st6"/>
		</g>
		<g id="shape66-86" v:mID="66" v:groupContext="shape" transform="translate(28.5965,-198.096)">
			<title>工作表.66</title>
			<path d="M0 290.05 L122.67 290.05" class="st6"/>
		</g>
		<g id="shape67-91" v:mID="67" v:groupContext="shape" transform="translate(-116.946,126.241) rotate(-90)">
			<title>工作表.67</title>
			<path d="M0 290.05 L12.44 290.05" class="st6"/>
		</g>
		<g id="shape68-96" v:mID="68" v:groupContext="shape" v:layerMember="0;1" transform="translate(158.935,-90.4786)">
			<title>页面内引用.68</title>
			<desc>Sta1-0</desc>
			<v:userDefs>
				<v:ud v:nameU="visVersion" v:prompt="" v:val="VT0(15):26"/>
				<v:ud v:nameU="msvThemeColors" v:val="VT0(254):26"/>
			</v:userDefs>
			<v:textBlock v:margins="rect(2,2,2,2)" v:tabSpace="42.5197"/>
			<v:textRect cx="14.1732" cy="275.881" width="28.35" height="28.3465"/>
			<path d="M0 275.88 A14.1732 14.1732 0 0 1 28.35 275.88 A14.1732 14.1732 0 0 1 0 275.88 Z" class="st5"/>
			<text x="3.8" y="278.28" class="st2" v:langID="2052"><v:paragraph v:horizAlign="1"/><v:tabList/>Sta1-0</text>		</g>
		<g id="shape69-99" v:mID="69" v:groupContext="shape" v:layerMember="0;1" transform="translate(158.935,-45.6958)">
			<title>页面内引用.69</title>
			<desc>Sta1-1</desc>
			<v:userDefs>
				<v:ud v:nameU="visVersion" v:prompt="" v:val="VT0(15):26"/>
				<v:ud v:nameU="msvThemeColors" v:val="VT0(254):26"/>
			</v:userDefs>
			<v:textBlock v:margins="rect(2,2,2,2)" v:tabSpace="42.5197"/>
			<v:textRect cx="14.1732" cy="275.881" width="28.35" height="28.3465"/>
			<path d="M0 275.88 A14.1732 14.1732 0 0 1 28.35 275.88 A14.1732 14.1732 0 0 1 0 275.88 Z" class="st5"/>
			<text x="3.8" y="278.28" class="st2" v:langID="2052"><v:paragraph v:horizAlign="1"/><v:tabList/>Sta1-1</text>		</g>
		<g id="shape70-102" v:mID="70" v:groupContext="shape" v:layerMember="0;1" transform="translate(208.541,-90.4786)">
			<title>页面内引用.70</title>
			<desc>Sta1-2</desc>
			<v:userDefs>
				<v:ud v:nameU="visVersion" v:prompt="" v:val="VT0(15):26"/>
				<v:ud v:nameU="msvThemeColors" v:val="VT0(254):26"/>
			</v:userDefs>
			<v:textBlock v:margins="rect(2,2,2,2)" v:tabSpace="42.5197"/>
			<v:textRect cx="14.1732" cy="275.881" width="28.35" height="28.3465"/>
			<path d="M0 275.88 A14.1732 14.1732 0 0 1 28.35 275.88 A14.1732 14.1732 0 0 1 0 275.88 Z" class="st5"/>
			<text x="3.8" y="278.28" class="st2" v:langID="2052"><v:paragraph v:horizAlign="1"/><v:tabList/>Sta1-2</text>		</g>
		<g id="shape71-105" v:mID="71" v:groupContext="shape" v:layerMember="0;1" transform="translate(106.494,-90.4786)">
			<title>页面内引用.71</title>
			<desc>Sta1-3</desc>
			<v:userDefs>
				<v:ud v:nameU="visVersion" v:prompt="" v:val="VT0(15):26"/>
				<v:ud v:nameU="msvThemeColors" v:val="VT0(254):26"/>
			</v:userDefs>
			<v:textBlock v:margins="rect(2,2,2,2)" v:tabSpace="42.5197"/>
			<v:textRect cx="14.1732" cy="275.881" width="28.35" height="28.3465"/>
			<path d="M0 275.88 A14.1732 14.1732 0 0 1 28.35 275.88 A14.1732 14.1732 0 0 1 0 275.88 Z" class="st5"/>
			<text x="3.8" y="278.28" class="st2" v:langID="2052"><v:paragraph v:horizAlign="1"/><v:tabList/>Sta1-3</text>		</g>
		<g id="shape72-108" v:mID="72" v:groupContext="shape" transform="translate(134.84,-104.652)">
			<title>工作表.72</title>
			<v:userDefs>
				<v:ud v:nameU="msvThemeColors" v:val="VT0(254):26"/>
			</v:userDefs>
			<path d="M0 290.05 L19.26 290.05" class="st6"/>
		</g>
		<g id="shape73-113" v:mID="73" v:groupContext="shape" transform="translate(208.541,475.457) rotate(180)">
			<title>工作表.73</title>
			<v:userDefs>
				<v:ud v:nameU="msvThemeColors" v:val="VT0(254):26"/>
			</v:userDefs>
			<path d="M0 290.05 L16.43 290.05" class="st6"/>
		</g>
		<g id="shape74-118" v:mID="74" v:groupContext="shape" transform="translate(-116.946,216.012) rotate(-90)">
			<title>工作表.74</title>
			<v:userDefs>
				<v:ud v:nameU="msvThemeColors" v:val="VT0(254):26"/>
			</v:userDefs>
			<path d="M0 290.05 L11.61 290.05" class="st6"/>
		</g>
		<g id="shape75-123" v:mID="75" v:groupContext="shape" transform="translate(-116.946,171.229) rotate(-90)">
			<title>工作表.75</title>
			<v:userDefs>
				<v:ud v:nameU="msvThemeColors" v:val="VT0(254):26"/>
			</v:userDefs>
			<path d="M0 290.05 L11.81 290.05" class="st6"/>
		</g>
		<g id="shape76-128" v:mID="76" v:groupContext="shape" v:layerMember="0;1" transform="translate(226.921,-183.923)">
			<title>页面内引用.76</title>
			<desc>Root Sta0</desc>
			<v:userDefs>
				<v:ud v:nameU="visVersion" v:prompt="" v:val="VT0(15):26"/>
			</v:userDefs>
			<v:textBlock v:margins="rect(2,2,2,2)" v:tabSpace="42.5197"/>
			<v:textRect cx="14.1732" cy="275.881" width="28.35" height="28.3465"/>
			<path d="M0 275.88 A14.1732 14.1732 0 0 1 28.35 275.88 A14.1732 14.1732 0 0 1 0 275.88 Z" class="st3"/>
			<text x="6.44" y="273.48" class="st2" v:langID="2052"><v:paragraph v:horizAlign="1"/><v:tabList/>Root<v:newlineChar/><tspan
						x="7.05" dy="1.2em" class="st4">Sta</tspan>0</text>		</g>
		<g id="shape77-132" v:mID="77" v:groupContext="shape" transform="translate(226.921,382.013) rotate(180)">
			<title>工作表.77</title>
			<path d="M0 290.05 L31.97 290.05" class="st6"/>
		</g>
		<g id="shape78-137" v:mID="78" v:groupContext="shape" v:layerMember="0;1" transform="translate(300.677,-183.923)">
			<title>页面内引用.78</title>
			<desc>Sta0-0</desc>
			<v:userDefs>
				<v:ud v:nameU="visVersion" v:prompt="" v:val="VT0(15):26"/>
				<v:ud v:nameU="msvThemeColors" v:val="VT0(254):26"/>
			</v:userDefs>
			<v:textBlock v:margins="rect(2,2,2,2)" v:tabSpace="42.5197"/>
			<v:textRect cx="14.1732" cy="275.881" width="28.35" height="28.3465"/>
			<path d="M0 275.88 A14.1732 14.1732 0 0 1 28.35 275.88 A14.1732 14.1732 0 0 1 0 275.88 Z" class="st5"/>
			<text x="3.8" y="278.28" class="st2" v:langID="2052"><v:paragraph v:horizAlign="1"/><v:tabList/>Sta0-0</text>		</g>
		<g id="shape79-140" v:mID="79" v:groupContext="shape" v:layerMember="0;1"
				transform="translate(440.516,-120.337) rotate(30)">
			<title>页面内引用.79</title>
			<desc>Sta0-1</desc>
			<v:userDefs>
				<v:ud v:nameU="visVersion" v:prompt="" v:val="VT0(15):26"/>
				<v:ud v:nameU="msvThemeColors" v:val="VT0(254):26"/>
			</v:userDefs>
			<v:textBlock v:margins="rect(2,2,2,2)" v:tabSpace="42.5197"/>
			<v:textRect cx="14.1732" cy="275.881" width="28.35" height="28.3465"/>
			<path d="M0 275.88 A14.1732 14.1732 0 0 1 28.35 275.88 A14.1732 14.1732 0 0 1 0 275.88 Z" class="st5"/>
			<text x="3.8" y="278.28" class="st2" v:langID="2052"><v:paragraph v:horizAlign="1"/><v:tabList/>Sta0-1</text>		</g>
		<g id="shape80-143" v:mID="80" v:groupContext="shape" v:layerMember="0;1"
				transform="translate(499.905,-43.9971) rotate(45)">
			<title>页面内引用.80</title>
			<desc>Sta0-2</desc>
			<v:userDefs>
				<v:ud v:nameU="visVersion" v:prompt="" v:val="VT0(15):26"/>
				<v:ud v:nameU="msvThemeColors" v:val="VT0(254):26"/>
			</v:userDefs>
			<v:textBlock v:margins="rect(2,2,2,2)" v:tabSpace="42.5197"/>
			<v:textRect cx="14.1732" cy="275.881" width="28.35" height="28.3465"/>
			<path d="M0 275.88 A14.1732 14.1732 0 0 1 28.35 275.88 A14.1732 14.1732 0 0 1 0 275.88 Z" class="st5"/>
			<text x="3.8" y="278.28" class="st2" v:langID="2052"><v:paragraph v:horizAlign="1"/><v:tabList/>Sta0-2</text>		</g>
		<g id="shape81-146" v:mID="81" v:groupContext="shape" v:layerMember="0;1" transform="translate(546.683,46.3205) rotate(60)">
			<title>页面内引用.81</title>
			<desc>Sta0-3</desc>
			<v:userDefs>
				<v:ud v:nameU="visVersion" v:prompt="" v:val="VT0(15):26"/>
				<v:ud v:nameU="msvThemeColors" v:val="VT0(254):26"/>
			</v:userDefs>
			<v:textBlock v:margins="rect(2,2,2,2)" v:tabSpace="42.5197"/>
			<v:textRect cx="14.1732" cy="275.881" width="28.35" height="28.3465"/>
			<path d="M0 275.88 A14.1732 14.1732 0 0 1 28.35 275.88 A14.1732 14.1732 0 0 1 0 275.88 Z" class="st5"/>
			<text x="3.8" y="278.28" class="st2" v:langID="2052"><v:paragraph v:horizAlign="1"/><v:tabList/>Sta0-3</text>		</g>
		<g id="shape86-149" v:mID="86" v:groupContext="shape" transform="translate(160.319,371.357) rotate(-150.63)">
			<title>工作表.86</title>
			<path d="M0 290.05 L49.46 290.05" class="st6"/>
		</g>
		<g id="shape87-154" v:mID="87" v:groupContext="shape" transform="translate(300.677,382.013) rotate(180)">
			<title>工作表.87</title>
			<path d="M0 290.05 L40.58 290.05" class="st6"/>
		</g>
		<g id="shape88-159" v:mID="88" v:groupContext="shape" transform="translate(82.5437,337.417) rotate(-129.972)">
			<title>工作表.88</title>
			<path d="M0 290.05 L72.32 290.05" class="st6"/>
		</g>
		<g id="shape89-164" v:mID="89" v:groupContext="shape" transform="translate(55.634,327.657) rotate(-119.629)">
			<title>工作表.89</title>
			<path d="M0 290.05 L101.36 290.05" class="st6"/>
		</g>
		<g id="shape98-169" v:mID="98" v:groupContext="shape" transform="translate(463.163,45.7323) rotate(90)">
			<title>工作表.98</title>
			<v:userDefs>
				<v:ud v:nameU="msvThemeColors" v:val="VT0(254):26"/>
			</v:userDefs>
			<path d="M7.55 290.05 L7.91 290.05 L21.31 290.05" class="st8"/>
		</g>
		<g id="group99-178" transform="translate(135.521,-231.373)" v:mID="99" v:groupContext="group">
			<title>工作表.99</title>
			<g id="group93-179" v:mID="93" v:groupContext="group">
				<v:custProps>
					<v:cp v:nameU="ShapeClass" v:lbl="ShapeClass" v:prompt="" v:type="0" v:format="" v:sortKey="" v:invis="true"
							v:ask="false" v:langID="2052" v:cal="0" v:val="VT4(位置)"/>
					<v:cp v:nameU="ShapeType" v:lbl="ShapeType" v:prompt="" v:type="0" v:format="" v:sortKey="" v:invis="true"
							v:ask="false" v:langID="2052" v:cal="0" v:val="VT4(云)"/>
				</v:custProps>
				<v:userDefs>
					<v:ud v:nameU="visVersion" v:prompt="" v:val="VT0(15):26"/>
					<v:ud v:nameU="ShapeClass" v:prompt="" v:val="VT0(5):26"/>
					<v:ud v:nameU="SolSH" v:prompt="" v:val="VT15({BF0433D9-CD73-4EB5-8390-8653BE590246}):41"/>
					<v:ud v:nameU="visLegendShape" v:prompt="" v:val="VT0(2):26"/>
					<v:ud v:nameU="msvThemeColors" v:val="VT0(254):26"/>
				</v:userDefs>
				<title>云形</title>
				<g id="shape94-180" v:mID="94" v:groupContext="shape" transform="translate(0,-12.5192)">
					<title>工作表.94</title>
					<v:userDefs>
						<v:ud v:nameU="msvThemeColors" v:val="VT0(254):26"/>
					</v:userDefs>
					<path d="M64.86 265.58 C64.45 262.8 61.22 260.64 57.26 260.64 C56.13 260.64 55.07 260.82 54.11 261.13 C52.24
								 258.41 48.38 256.41 41.13 256.57 C31.71 256.78 20.55 260.09 18.31 265.96 C15.63 266.36 13.9 267.5
								 12.87 269.01 C12.45 268.98 12.03 268.96 11.59 268.96 C5.39 268.96 0.62 272.49 0.35 276.84 C0 282.47
								 5.39 284.73 11.59 284.73 C12.48 284.73 13.33 284.65 14.16 284.51 C15.45 285.17 17.13 285.57 18.97
								 285.57 C20.68 285.57 22.24 285.23 23.49 284.65 C25.88 287.82 30.79 290.05 36.44 289.79 C42.4 289.52
								 45.98 288.53 48.09 287 C48.22 286.99 48.34 286.99 48.48 286.98 C55.14 286.31 58.07 284.96 59.01
								 282.75 C59.18 282.75 59.36 282.75 59.54 282.75 C68.18 282.75 75.17 280.78 75.17 273.89 C75.17 270.05
								 70.86 266.82 64.86 265.58 Z" class="st10"/>
				</g>
			</g>
			<g id="shape95-182" v:mID="95" v:groupContext="shape" transform="translate(19.5451,-24.3725)">
				<title>工作表.95</title>
				<desc>Internet</desc>
				<v:userDefs>
					<v:ud v:nameU="msvThemeColors" v:val="VT0(254):26"/>
				</v:userDefs>
				<v:textBlock v:margins="rect(2,2,2,2)" v:tabSpace="42.5197"/>
				<v:textRect cx="18.0416" cy="285.086" width="36.09" height="9.93677"/>
				<rect x="0" y="280.118" width="36.0832" height="9.93677" class="st11"/>
				<text x="4.78" y="287.49" class="st12" v:langID="2052"><v:paragraph v:horizAlign="1"/><v:tabList/>Internet</text>			</g>
		</g>
	</g>
</svg>
