<?xml version="1.0" encoding="UTF-8" standalone="no"?>
<!DOCTYPE svg PUBLIC "-//W3C//DTD SVG 1.1//EN" "http://www.w3.org/Graphics/SVG/1.1/DTD/svg11.dtd">
<!-- 由 Microsoft Visio, SVG Export 生成 Microsoft_Visio___10.svg 页-1 -->
<svg xmlns="http://www.w3.org/2000/svg" xmlns:xlink="http://www.w3.org/1999/xlink" xmlns:ev="http://www.w3.org/2001/xml-events"
		xmlns:v="http://schemas.microsoft.com/visio/2003/SVGExtensions/" width="4.39743in" height="1.59239in"
		viewBox="0 0 316.615 114.652" xml:space="preserve" color-interpolation-filters="sRGB" class="st12">
	<v:documentProperties v:langID="2052" v:metric="true" v:viewMarkup="false"/>

	<style type="text/css">
	<![CDATA[
		.st1 {stroke:#000000;stroke-linecap:round;stroke-linejoin:round;stroke-width:0.24}
		.st2 {fill:#ffffff;stroke:#000000;stroke-linecap:round;stroke-linejoin:round;stroke-width:0.24}
		.st3 {fill:#ffffff;stroke:none;stroke-linecap:round;stroke-linejoin:round;stroke-width:0.75}
		.st4 {fill:#000000;font-family:Calibri;font-size:0.666664em}
		.st5 {fill:#000000;font-family:Calibri;font-size:0.75em}
		.st6 {fill:none;stroke:none;stroke-linecap:round;stroke-linejoin:round;stroke-width:0.75}
		.st7 {stroke:#000000;stroke-linecap:round;stroke-linejoin:round;stroke-width:0.25}
		.st8 {fill:#000000;font-family:Calibri;font-size:0.833336em}
		.st9 {fill:#000000}
		.st10 {stroke:#000000;stroke-linecap:butt;stroke-width:0.510236}
		.st11 {stroke:#000000;stroke-linecap:round;stroke-linejoin:round;stroke-width:0.75}
		.st12 {fill:none;fill-rule:evenodd;font-size:12px;overflow:visible;stroke-linecap:square;stroke-miterlimit:3}
	]]>
	</style>

	<g v:mID="0" v:index="1" v:groupContext="foregroundPage">
		<v:userDefs>
			<v:ud v:nameU="ResistorCount" v:prompt="" v:val="VT0(3):26"/>
		</v:userDefs>
		<title>页-1</title>
		<v:pageProperties v:drawingScale="0.0393701" v:pageScale="0.0393701" v:drawingUnits="24" v:shadowOffsetX="8.50394"
				v:shadowOffsetY="-8.50394"/>
		<v:layer v:name="电气" v:index="0"/>
		<v:layer v:name="连接线" v:index="1"/>
		<g id="shape75-1" v:mID="75" v:groupContext="shape" v:layerMember="0" transform="translate(-26.5272,112.668) rotate(-90)">
			<title>接地.75</title>
			<v:userDefs>
				<v:ud v:nameU="visVersion" v:val="VT0(14):26"/>
				<v:ud v:nameU="visDescription" v:val="VT4(表示接地。)"/>
			</v:userDefs>
			<path d="M0 108.92 L0 111.79" class="st1"/>
			<path d="M1.43 107.48 L1.43 113.22" class="st1"/>
			<path d="M2.87 106.05 L2.87 114.65" class="st1"/>
			<path d="M21.5 110.35 L2.87 110.35" class="st1"/>
		</g>
		<g id="shape64-7" v:mID="64" v:groupContext="shape" transform="translate(27.1376,-24.0945)">
			<title>矩形.64</title>
			<v:userDefs>
				<v:ud v:nameU="visVersion" v:val="VT0(14):26"/>
			</v:userDefs>
			<rect x="0" y="45.7336" width="113.386" height="68.9187" class="st2"/>
		</g>
		<g id="shape65-9" v:mID="65" v:groupContext="shape" transform="translate(228.87,-2.38772)">
			<title>矩形.65</title>
			<v:userDefs>
				<v:ud v:nameU="visVersion" v:val="VT0(14):26"/>
			</v:userDefs>
			<rect x="0" y="5.51843" width="87.6251" height="109.134" class="st2"/>
		</g>
		<g id="shape66-11" v:mID="66" v:groupContext="shape" transform="translate(147.798,141.839) rotate(-135)">
			<title>中心拖动圆形.66</title>
			<v:userDefs>
				<v:ud v:nameU="visVersion" v:val="VT0(14):26"/>
			</v:userDefs>
			<path d="M-4.68 114.65 A4.67693 4.67693 0 0 1 4.68 114.65 A4.67693 4.67693 0 1 1 -4.68 114.65 Z" class="st2"/>
		</g>
		<g id="shape67-13" v:mID="67" v:groupContext="shape" transform="translate(99.1394,204.183) rotate(172.327)">
			<title>中心拖动圆形.67</title>
			<v:userDefs>
				<v:ud v:nameU="visVersion" v:val="VT0(14):26"/>
			</v:userDefs>
			<path d="M-3.34 114.65 A3.33697 3.33697 0 1 1 3.34 114.65 A3.33697 3.33697 0 1 1 -3.34 114.65 Z" class="st2"/>
		</g>
		<g id="shape68-15" v:mID="68" v:groupContext="shape" transform="translate(235.957,-46.2674)">
			<title>工作表.68</title>
			<desc>DMIC_CLK</desc>
			<v:textBlock v:margins="rect(1,1,1,1)" v:tabSpace="42.5197"/>
			<v:textRect cx="20.3519" cy="107.853" width="40.71" height="13.5992"/>
			<rect x="0" y="101.053" width="40.7038" height="13.5992" class="st3"/>
			<text x="3.45" y="110.25" class="st4" v:langID="2052"><v:paragraph v:horizAlign="1"/><v:tabList/>DMIC_CLK</text>		</g>
		<g id="shape69-18" v:mID="69" v:groupContext="shape" transform="translate(59.452,141.65) rotate(-135)">
			<title>Center drag circle.69</title>
			<v:userDefs>
				<v:ud v:nameU="visVersion" v:val="VT0(14):26"/>
			</v:userDefs>
			<path d="M-4.68 114.65 A4.67693 4.67693 0 0 1 4.68 114.65 A4.67693 4.67693 0 1 1 -4.68 114.65 Z" class="st2"/>
		</g>
		<g id="shape70-20" v:mID="70" v:groupContext="shape" transform="translate(2.75911,102.837) rotate(-135)">
			<title>中心拖动圆形.70</title>
			<v:userDefs>
				<v:ud v:nameU="visVersion" v:val="VT0(14):26"/>
			</v:userDefs>
			<path d="M-4.68 114.65 A4.67693 4.67693 0 0 1 4.68 114.65 A4.67693 4.67693 0 1 1 -4.68 114.65 Z" class="st2"/>
		</g>
		<g id="shape71-22" v:mID="71" v:groupContext="shape" transform="translate(66.8226,-76.4522)">
			<title>工作表.71</title>
			<desc>VDD</desc>
			<v:textBlock v:margins="rect(1,1,1,1)" v:tabSpace="42.5197"/>
			<v:textRect cx="17.0079" cy="108.983" width="34.02" height="11.3386"/>
			<rect x="0" y="103.314" width="34.0157" height="11.3386" class="st3"/>
			<text x="9.82" y="111.38" class="st4" v:langID="2052"><v:paragraph v:horizAlign="1"/><v:tabList/>VDD</text>		</g>
		<g id="shape72-25" v:mID="72" v:groupContext="shape" transform="translate(55.4841,-55.0289)">
			<title>工作表.72</title>
			<desc>Digital MIC</desc>
			<v:textBlock v:margins="rect(1,1,1,1)" v:tabSpace="42.5197"/>
			<v:textRect cx="28.3465" cy="106.148" width="56.7" height="17.0079"/>
			<rect x="0" y="97.6444" width="56.6929" height="17.0079" class="st3"/>
			<text x="8.3" y="108.85" class="st5" v:langID="2052"><v:paragraph v:horizAlign="1"/><v:tabList/>Digital MIC</text>		</g>
		<g id="shape73-28" v:mID="73" v:groupContext="shape" transform="translate(102.256,-46.533)">
			<title>工作表.73</title>
			<desc>CLOCK</desc>
			<v:textBlock v:margins="rect(1,1,1,1)" v:tabSpace="42.5197"/>
			<v:textRect cx="19.8425" cy="107.566" width="39.69" height="14.1732"/>
			<rect x="0" y="100.479" width="39.685" height="14.1732" class="st6"/>
			<text x="9.17" y="109.97" class="st4" v:langID="2052"><v:paragraph v:horizAlign="1"/><v:tabList/>CLOCK</text>		</g>
		<g id="shape74-31" v:mID="74" v:groupContext="shape" transform="translate(68.24,-27.9009)">
			<title>工作表.74</title>
			<desc>GND</desc>
			<v:textBlock v:margins="rect(1,1,1,1)" v:tabSpace="42.5197"/>
			<v:textRect cx="17.0079" cy="108.983" width="34.02" height="11.3386"/>
			<rect x="0" y="103.314" width="34.0157" height="11.3386" class="st3"/>
			<text x="9.44" y="111.38" class="st4" v:langID="2052"><v:paragraph v:horizAlign="1"/><v:tabList/>GND</text>		</g>
		<g id="shape76-34" v:mID="76" v:groupContext="shape" transform="translate(147.798,161.681) rotate(-135)">
			<title>中心拖动圆形.76</title>
			<v:userDefs>
				<v:ud v:nameU="visVersion" v:val="VT0(14):26"/>
			</v:userDefs>
			<path d="M-4.68 114.65 A4.67693 4.67693 0 0 1 4.68 114.65 A4.67693 4.67693 0 1 1 -4.68 114.65 Z" class="st2"/>
		</g>
		<g id="shape77-36" v:mID="77" v:groupContext="shape" transform="translate(234.303,-24.8103)">
			<title>工作表.77</title>
			<desc>DMIC_DATA</desc>
			<v:textBlock v:margins="rect(1,1,1,1)" v:tabSpace="42.5197"/>
			<v:textRect cx="24.7003" cy="105.969" width="49.41" height="17.3668"/>
			<rect x="0" y="97.2855" width="49.4007" height="17.3668" class="st3"/>
			<text x="4.65" y="108.37" class="st4" v:langID="2052"><v:paragraph v:horizAlign="1"/><v:tabList/>DMIC_DATA</text>		</g>
		<g id="shape78-39" v:mID="78" v:groupContext="shape" transform="translate(59.452,161.492) rotate(-135)">
			<title>Center drag circle.78</title>
			<v:userDefs>
				<v:ud v:nameU="visVersion" v:val="VT0(14):26"/>
			</v:userDefs>
			<path d="M-4.68 114.65 A4.67693 4.67693 0 0 1 4.68 114.65 A4.67693 4.67693 0 1 1 -4.68 114.65 Z" class="st2"/>
		</g>
		<g id="shape79-41" v:mID="79" v:groupContext="shape" transform="translate(102.256,-27.5552)">
			<title>工作表.79</title>
			<desc>DATA</desc>
			<v:textBlock v:margins="rect(1,1,1,1)" v:tabSpace="42.5197"/>
			<v:textRect cx="19.8425" cy="107.566" width="39.69" height="14.1732"/>
			<rect x="0" y="100.479" width="39.685" height="14.1732" class="st6"/>
			<text x="10.8" y="109.97" class="st4" v:langID="2052"><v:paragraph v:horizAlign="1"/><v:tabList/>DATA</text>		</g>
		<g id="shape82-44" v:mID="82" v:groupContext="shape" transform="translate(-53.9338,156.484) rotate(-135)">
			<title>Center drag circle.82</title>
			<v:userDefs>
				<v:ud v:nameU="visVersion" v:val="VT0(14):26"/>
			</v:userDefs>
			<path d="M-4.68 114.65 A4.67693 4.67693 0 0 1 4.68 114.65 A4.67693 4.67693 0 1 1 -4.68 114.65 Z" class="st2"/>
		</g>
		<g id="shape83-46" v:mID="83" v:groupContext="shape" v:layerMember="1" transform="translate(27.0374,-32.1036)">
			<title>动态连接线.83</title>
			<path d="M-4.58 107.61 L-4.58 107.52 L-9.6 107.52" class="st7"/>
		</g>
		<g id="shape84-49" v:mID="84" v:groupContext="shape" v:layerMember="1" transform="translate(17.4398,-39.2395)">
			<title>动态连接线.84</title>
			<path d="M0 114.65 L0 138.3 L66.37 138.3" class="st7"/>
		</g>
		<g id="shape85-52" v:mID="85" v:groupContext="shape" transform="translate(33.5156,-29.3182)">
			<title>工作表.85</title>
			<desc>L/R</desc>
			<v:textBlock v:margins="rect(1,1,1,1)" v:tabSpace="42.5197"/>
			<v:textRect cx="7.79528" cy="108.983" width="15.6" height="11.3386"/>
			<rect x="0" y="103.314" width="15.5906" height="11.3386" class="st3"/>
			<text x="2.4" y="111.38" class="st4" v:langID="2052"><v:paragraph v:horizAlign="1"/><v:tabList/>L/R</text>		</g>
		<g id="shape86-55" v:mID="86" v:groupContext="shape" v:layerMember="1" transform="translate(76.6658,-98.7657)">
			<title>动态连接线.86</title>
			<path d="M3.55 107.57 L10.62 107.57" class="st7"/>
		</g>
		<g id="shape87-58" v:mID="87" v:groupContext="shape" v:layerMember="1" transform="translate(76.6399,-94.5762)">
			<title>动态连接线.87</title>
			<path d="M7.09 111.68 L7.09 103.45" class="st7"/>
		</g>
		<g id="shape88-61" v:mID="88" v:groupContext="shape" transform="translate(79.3701,-101.286)">
			<title>工作表.88</title>
			<desc>VDD</desc>
			<v:textBlock v:margins="rect(1,1,1,1)" v:tabSpace="42.5197"/>
			<v:textRect cx="17.0079" cy="111.057" width="34.02" height="7.19155"/>
			<rect x="0" y="107.461" width="34.0157" height="7.19155" class="st6"/>
			<text x="9.82" y="113.46" class="st4" v:langID="2052"><v:paragraph v:horizAlign="1"/><v:tabList/>VDD</text>		</g>
		<g id="shape89-64" v:mID="89" v:groupContext="shape" transform="translate(244.336,-84.0963)">
			<title>工作表.89</title>
			<desc>Chip</desc>
			<v:textBlock v:margins="rect(1,1,1,1)" v:tabSpace="42.5197"/>
			<v:textRect cx="28.3465" cy="106.148" width="56.7" height="17.0079"/>
			<rect x="0" y="97.6444" width="56.6929" height="17.0079" class="st3"/>
			<text x="19.28" y="109.15" class="st8" v:langID="2052"><v:paragraph v:horizAlign="1"/><v:tabList/>Chip</text>		</g>
		<g id="group90-67" transform="translate(171.496,-47.1108)" v:mID="90" v:groupContext="group" v:layerMember="0">
			<v:custProps>
				<v:cp v:nameU="Label" v:lbl="标签" v:type="0" v:format="@" v:sortKey="" v:invis="false" v:ask="false" v:langID="2052"
						v:val="VT4()"/>
				<v:cp v:nameU="Slider_Position" v:lbl="滑块位置 (0-1)" v:type="2" v:langID="2052" v:val="VT0(0.5):26"/>
				<v:cp v:nameU="Label" v:lbl="" v:prompt="" v:type="0" v:format="" v:sortKey="" v:invis="false" v:ask="false"
						v:langID="0" v:cal="0" v:val="VT4(22ohm)"/>
			</v:custProps>
			<v:userDefs>
				<v:ud v:nameU="Form" v:val="VT0(1):5"/>
				<v:ud v:nameU="SubType" v:val="VT0(0):26"/>
				<v:ud v:nameU="visDescription" v:val="VT4(Represents a fixed or variable resistor.)"/>
				<v:ud v:nameU="visVersion" v:val="VT0(15):26"/>
				<v:ud v:nameU="Label" v:prompt="" v:val="VT4()"/>
				<v:ud v:nameU="SolSH" v:prompt="" v:val="VT4({2EE3C7D2-E26E-4B72-9E9C-5170DDBF261A})"/>
				<v:ud v:nameU="Label" v:prompt="" v:val="VT4(R1)"/>
			</v:userDefs>
			<title>电阻器</title>
			<desc>22ohm</desc>
			<g id="shape91-68" v:mID="91" v:groupContext="shape" v:layerMember="0" transform="translate(-0.966688,0.894056)">
				<title>工作表.91</title>
			</g>
			<g id="shape92-70" v:mID="92" v:groupContext="shape" v:layerMember="0">
				<title>工作表.92</title>
				<path d="M3.06 109.04 L3.06 107.51 L9.69 107.51 L9.69 109.04 L2.04 109.04 L2.04 106.49 L10.71 106.49 L10.71 110.06
							 L2.04 110.06 L2.04 109.04 L3.06 109.04 Z" class="st9"/>
				<path d="M12.76 108.27 L10.2 108.27" class="st10"/>
				<path d="M2.55 108.27 L0 108.27" class="st10"/>
			</g>
			<g id="shape90-74" v:mID="90" v:groupContext="groupContent" v:layerMember="0">
				<v:textBlock v:margins="rect(1,1,1,1)" v:tabSpace="34.0157"/>
				<v:textRect cx="6.87814" cy="102.605" width="26.74" height="11.6036"/>
				<text x="-4.58" y="105.01" class="st4" v:langID="2052"><v:paragraph v:horizAlign="1"/><v:tabList/>22ohm</text>			</g>
		</g>
		<g id="shape93-76" v:mID="93" v:groupContext="shape" transform="translate(171.496,175.784) rotate(180)">
			<title>工作表.93</title>
			<path d="M0 114.65 L26.33 114.65" class="st11"/>
		</g>
		<g id="shape94-79" v:mID="94" v:groupContext="shape" transform="translate(184.252,-53.5206)">
			<title>工作表.94</title>
			<path d="M0 114.65 L39.69 114.65" class="st11"/>
		</g>
		<g id="group95-82" transform="translate(171.496,-27.6378)" v:mID="95" v:groupContext="group" v:layerMember="0">
			<v:custProps>
				<v:cp v:nameU="Label" v:lbl="标签" v:type="0" v:format="@" v:sortKey="" v:invis="false" v:ask="false" v:langID="2052"
						v:val="VT4()"/>
				<v:cp v:nameU="Slider_Position" v:lbl="滑块位置 (0-1)" v:type="2" v:langID="2052" v:val="VT0(0.5):26"/>
				<v:cp v:nameU="Label" v:lbl="" v:prompt="" v:type="0" v:format="" v:sortKey="" v:invis="false" v:ask="false"
						v:langID="0" v:cal="0" v:val="VT4(22ohm)"/>
			</v:custProps>
			<v:userDefs>
				<v:ud v:nameU="Form" v:val="VT0(1):5"/>
				<v:ud v:nameU="SubType" v:val="VT0(0):26"/>
				<v:ud v:nameU="visDescription" v:val="VT4(Represents a fixed or variable resistor.)"/>
				<v:ud v:nameU="visVersion" v:val="VT0(15):26"/>
				<v:ud v:nameU="Label" v:prompt="" v:val="VT4()"/>
				<v:ud v:nameU="SolSH" v:prompt="" v:val="VT4({2EE3C7D2-E26E-4B72-9E9C-5170DDBF261A})"/>
				<v:ud v:nameU="Label" v:prompt="" v:val="VT4(R2)"/>
			</v:userDefs>
			<title>电阻器.95</title>
			<desc>22ohm</desc>
			<g id="shape96-83" v:mID="96" v:groupContext="shape" v:layerMember="0" transform="translate(-0.966688,0.894056)">
				<title>工作表.96</title>
			</g>
			<g id="shape97-85" v:mID="97" v:groupContext="shape" v:layerMember="0">
				<title>工作表.97</title>
				<path d="M3.06 109.04 L3.06 107.51 L9.69 107.51 L9.69 109.04 L2.04 109.04 L2.04 106.49 L10.71 106.49 L10.71 110.06
							 L2.04 110.06 L2.04 109.04 L3.06 109.04 Z" class="st9"/>
				<path d="M12.76 108.27 L10.2 108.27" class="st10"/>
				<path d="M2.55 108.27 L0 108.27" class="st10"/>
			</g>
			<g id="shape95-89" v:mID="95" v:groupContext="groupContent" v:layerMember="0">
				<v:textBlock v:margins="rect(1,1,1,1)" v:tabSpace="34.0157"/>
				<v:textRect cx="6.87814" cy="102.605" width="26.74" height="11.6036"/>
				<text x="-4.58" y="105.01" class="st4" v:langID="2052"><v:paragraph v:horizAlign="1"/><v:tabList/>22ohm</text>			</g>
		</g>
		<g id="shape98-91" v:mID="98" v:groupContext="shape" transform="translate(171.496,195.257) rotate(180)">
			<title>工作表.98</title>
			<path d="M0 114.65 L26.33 114.65" class="st11"/>
		</g>
		<g id="shape99-94" v:mID="99" v:groupContext="shape" transform="translate(184.252,-34.0476)">
			<title>工作表.99</title>
			<path d="M0 114.65 L39.69 114.65" class="st11"/>
		</g>
	</g>
</svg>
