<?xml version="1.0" encoding="UTF-8" standalone="no"?>
<!DOCTYPE svg PUBLIC "-//W3C//DTD SVG 1.1//EN" "http://www.w3.org/Graphics/SVG/1.1/DTD/svg11.dtd">
<!-- 由 Microsoft Visio, SVG Export 生成 Microsoft_Visio___11.svg 页-1 -->
<svg xmlns="http://www.w3.org/2000/svg" xmlns:xlink="http://www.w3.org/1999/xlink" xmlns:ev="http://www.w3.org/2001/xml-events"
		xmlns:v="http://schemas.microsoft.com/visio/2003/SVGExtensions/" width="4.87461in" height="3.20773in"
		viewBox="0 0 350.972 230.957" xml:space="preserve" color-interpolation-filters="sRGB" class="st10">
	<v:documentProperties v:langID="2052" v:metric="true" v:viewMarkup="false"/>

	<style type="text/css">
	<![CDATA[
		.st1 {stroke:#000000;stroke-linecap:round;stroke-linejoin:round;stroke-width:0.75}
		.st2 {fill:#ffffff;stroke:#000000;stroke-linecap:round;stroke-linejoin:round;stroke-width:0.75}
		.st3 {fill:#000000;font-family:Calibri;font-size:0.833336em}
		.st4 {fill:#ffffff;stroke:none;stroke-linecap:round;stroke-linejoin:round;stroke-width:0.75}
		.st5 {fill:#000000;font-family:Calibri;font-size:0.666664em}
		.st6 {fill:none;stroke:none;stroke-linecap:round;stroke-linejoin:round;stroke-width:0.75}
		.st7 {fill:#ffffff}
		.st8 {fill:#000000}
		.st9 {stroke:#000000;stroke-linecap:butt;stroke-width:0.589045}
		.st10 {fill:none;fill-rule:evenodd;font-size:12px;overflow:visible;stroke-linecap:square;stroke-miterlimit:3}
	]]>
	</style>

	<g v:mID="0" v:index="1" v:groupContext="foregroundPage">
		<v:userDefs>
			<v:ud v:nameU="ResistorCount" v:prompt="" v:val="VT0(5):26"/>
		</v:userDefs>
		<title>页-1</title>
		<v:pageProperties v:drawingScale="0.0393701" v:pageScale="0.0393701" v:drawingUnits="24" v:shadowOffsetX="8.50394"
				v:shadowOffsetY="-8.50394"/>
		<v:layer v:name="连接线" v:index="0"/>
		<v:layer v:name="电气" v:index="1"/>
		<g id="shape58-1" v:mID="58" v:groupContext="shape" v:layerMember="0" transform="translate(240.044,-93.8332)">
			<title>Dynamic connector.58</title>
			<path d="M0 237.91 L-19.07 238.04 A2.3622 2.3622 -180 1 0 -23.79 238.07 L-39.86 238.18" class="st1"/>
		</g>
		<g id="shape59-4" v:mID="59" v:groupContext="shape" transform="translate(48.532,-19.5988)">
			<title>矩形.59</title>
			<v:userDefs>
				<v:ud v:nameU="visVersion" v:val="VT0(14):26"/>
			</v:userDefs>
			<rect x="0" y="145.917" width="113.386" height="85.0394" class="st2"/>
		</g>
		<g id="shape60-6" v:mID="60" v:groupContext="shape" transform="translate(244.644,-0.770872)">
			<title>矩形.60</title>
			<desc>Chip</desc>
			<v:userDefs>
				<v:ud v:nameU="visVersion" v:val="VT0(14):26"/>
			</v:userDefs>
			<v:textBlock v:margins="rect(4,4,4,4)" v:tabSpace="42.5197"/>
			<v:textRect cx="53.1041" cy="116.154" width="106.21" height="229.606"/>
			<rect x="0" y="1.3504" width="106.208" height="229.606" class="st2"/>
			<text x="44.04" y="71.15" class="st3" v:langID="2052"><v:paragraph v:horizAlign="1"/><v:tabList/>Chip<v:newlineChar/><v:newlineChar/><v:newlineChar/><v:newlineChar/><v:newlineChar/><v:newlineChar/><v:newlineChar/><v:newlineChar/></text>		</g>
		<g id="shape61-9" v:mID="61" v:groupContext="shape" transform="translate(81.3329,273.567) rotate(-135)">
			<title>中心拖动圆形.61</title>
			<v:userDefs>
				<v:ud v:nameU="visVersion" v:val="VT0(14):26"/>
			</v:userDefs>
			<path d="M-4.68 230.96 A4.67693 4.67693 0 0 1 4.68 230.96 A4.67693 4.67693 0 1 1 -4.68 230.96 Z" class="st2"/>
		</g>
		<g id="shape62-11" v:mID="62" v:groupContext="shape" transform="translate(-58.0861,374.669) rotate(-135)">
			<title>中心拖动圆形.62</title>
			<v:userDefs>
				<v:ud v:nameU="visVersion" v:val="VT0(14):26"/>
			</v:userDefs>
			<path d="M-4.68 230.96 A4.67693 4.67693 0 0 1 4.68 230.96 A4.67693 4.67693 0 1 1 -4.68 230.96 Z" class="st2"/>
		</g>
		<g id="shape63-13" v:mID="63" v:groupContext="shape" transform="translate(251.731,-113.313)">
			<title>工作表.63</title>
			<desc>DMIC_CLK</desc>
			<v:textBlock v:margins="rect(1,1,1,1)" v:tabSpace="42.5197"/>
			<v:textRect cx="20.0222" cy="224.157" width="40.05" height="13.5992"/>
			<rect x="0" y="217.357" width="40.0443" height="13.5992" class="st4"/>
			<text x="3.12" y="226.56" class="st5" v:langID="2052"><v:paragraph v:horizAlign="1"/><v:tabList/>DMIC_CLK</text>		</g>
		<g id="shape64-16" v:mID="64" v:groupContext="shape" transform="translate(-1.3932,340.937) rotate(-135)">
			<title>Center drag circle.64</title>
			<v:userDefs>
				<v:ud v:nameU="visVersion" v:val="VT0(14):26"/>
			</v:userDefs>
			<path d="M-4.68 230.96 A4.67693 4.67693 0 0 1 4.68 230.96 A4.67693 4.67693 0 1 1 -4.68 230.96 Z" class="st2"/>
		</g>
		<g id="shape65-18" v:mID="65" v:groupContext="shape" transform="translate(-114.779,305.339) rotate(-135)">
			<title>中心拖动圆形.65</title>
			<v:userDefs>
				<v:ud v:nameU="visVersion" v:val="VT0(14):26"/>
			</v:userDefs>
			<path d="M-4.68 230.96 A4.67693 4.67693 0 0 1 4.68 230.96 A4.67693 4.67693 0 1 1 -4.68 230.96 Z" class="st2"/>
		</g>
		<g id="shape66-20" v:mID="66" v:groupContext="shape" transform="translate(47.1147,-82.7169)">
			<title>工作表.66</title>
			<desc>VDD</desc>
			<v:textBlock v:margins="rect(1,1,1,1)" v:tabSpace="42.5197"/>
			<v:textRect cx="17.0079" cy="225.287" width="34.02" height="11.3386"/>
			<rect x="0" y="219.618" width="34.0157" height="11.3386" class="st6"/>
			<text x="9.82" y="227.69" class="st5" v:langID="2052"><v:paragraph v:horizAlign="1"/><v:tabList/>VDD</text>		</g>
		<g id="shape67-23" v:mID="67" v:groupContext="shape" transform="translate(78.2958,-57.7508)">
			<title>工作表.67</title>
			<desc>Digital MIC</desc>
			<v:textBlock v:margins="rect(1,1,1,1)" v:tabSpace="42.5197"/>
			<v:textRect cx="28.3465" cy="222.453" width="56.7" height="17.0079"/>
			<rect x="0" y="213.949" width="56.6929" height="17.0079" class="st4"/>
			<text x="6.07" y="225.45" class="st3" v:langID="2052"><v:paragraph v:horizAlign="1"/><v:tabList/>Digital MIC</text>		</g>
		<g id="shape68-26" v:mID="68" v:groupContext="shape" transform="translate(123.65,-45.583)">
			<title>工作表.68</title>
			<desc>CLOCK</desc>
			<v:textBlock v:margins="rect(1,1,1,1)" v:tabSpace="42.5197"/>
			<v:textRect cx="19.8425" cy="223.87" width="39.69" height="14.1732"/>
			<rect x="0" y="216.783" width="39.685" height="14.1732" class="st6"/>
			<text x="9.17" y="226.27" class="st5" v:langID="2052"><v:paragraph v:horizAlign="1"/><v:tabList/>CLOCK</text>		</g>
		<g id="shape69-29" v:mID="69" v:groupContext="shape" transform="translate(89.6344,-27.1578)">
			<title>工作表.69</title>
			<desc>GND</desc>
			<v:textBlock v:margins="rect(1,1,1,1)" v:tabSpace="42.5197"/>
			<v:textRect cx="17.0079" cy="225.287" width="34.02" height="11.3386"/>
			<rect x="0" y="219.618" width="34.0157" height="11.3386" class="st4"/>
			<text x="9.44" y="227.69" class="st5" v:langID="2052"><v:paragraph v:horizAlign="1"/><v:tabList/>GND</text>		</g>
		<g id="shape70-32" v:mID="70" v:groupContext="shape" v:layerMember="1" transform="translate(-122.799,230.837) rotate(-90)">
			<title>接地.70</title>
			<v:userDefs>
				<v:ud v:nameU="visVersion" v:val="VT0(14):26"/>
				<v:ud v:nameU="visDescription" v:val="VT4(表示接地。)"/>
			</v:userDefs>
			<path d="M0 227 L0 228.98" class="st1"/>
			<path d="M0.99 226.01 L0.99 229.97" class="st1"/>
			<path d="M1.98 225.02 L1.98 230.96" class="st1"/>
			<path d="M14.85 227.99 L1.98 227.99" class="st1"/>
		</g>
		<g id="shape71-38" v:mID="71" v:groupContext="shape" transform="translate(81.3329,307.223) rotate(-135)">
			<title>中心拖动圆形.71</title>
			<v:userDefs>
				<v:ud v:nameU="visVersion" v:val="VT0(14):26"/>
			</v:userDefs>
			<path d="M-4.68 230.96 A4.67693 4.67693 0 0 1 4.68 230.96 A4.67693 4.67693 0 1 1 -4.68 230.96 Z" class="st2"/>
		</g>
		<g id="shape72-40" v:mID="72" v:groupContext="shape" transform="translate(250.077,-77.4138)">
			<title>工作表.72</title>
			<desc>DMIC_DATA</desc>
			<v:textBlock v:margins="rect(1,1,1,1)" v:tabSpace="42.5197"/>
			<v:textRect cx="24.3621" cy="222.273" width="48.73" height="17.3668"/>
			<rect x="0" y="213.59" width="48.7242" height="17.3668" class="st4"/>
			<text x="4.31" y="224.67" class="st5" v:langID="2052"><v:paragraph v:horizAlign="1"/><v:tabList/>DMIC_DATA</text>		</g>
		<g id="shape73-43" v:mID="73" v:groupContext="shape" transform="translate(-1.3932,360.779) rotate(-135)">
			<title>Center drag circle.73</title>
			<v:userDefs>
				<v:ud v:nameU="visVersion" v:val="VT0(14):26"/>
			</v:userDefs>
			<path d="M-4.68 230.96 A4.67693 4.67693 0 0 1 4.68 230.96 A4.67693 4.67693 0 1 1 -4.68 230.96 Z" class="st2"/>
		</g>
		<g id="shape74-45" v:mID="74" v:groupContext="shape" transform="translate(123.65,-25.7405)">
			<title>工作表.74</title>
			<desc>DATA</desc>
			<v:textBlock v:margins="rect(1,1,1,1)" v:tabSpace="42.5197"/>
			<v:textRect cx="19.8425" cy="223.87" width="39.69" height="14.1732"/>
			<rect x="0" y="216.783" width="39.685" height="14.1732" class="st6"/>
			<text x="10.8" y="226.27" class="st5" v:langID="2052"><v:paragraph v:horizAlign="1"/><v:tabList/>DATA</text>		</g>
		<g id="shape75-48" v:mID="75" v:groupContext="shape" transform="translate(-114.779,355.771) rotate(-135)">
			<title>Center drag circle.75</title>
			<v:userDefs>
				<v:ud v:nameU="visVersion" v:val="VT0(14):26"/>
			</v:userDefs>
			<path d="M-4.68 230.96 A4.67693 4.67693 0 0 1 4.68 230.96 A4.67693 4.67693 0 1 1 -4.68 230.96 Z" class="st2"/>
		</g>
		<g id="shape76-50" v:mID="76" v:groupContext="shape" v:layerMember="0" transform="translate(44.6938,-31.3114)">
			<title>动态连接线.76</title>
			<path d="M-0.84 223.87 L-13.34 223.87" class="st1"/>
		</g>
		<g id="shape77-53" v:mID="77" v:groupContext="shape" v:layerMember="0" transform="translate(31.1811,-38.3074)">
			<title>动态连接线.77</title>
			<path d="M0 230.96 L0 256.84 L74.01 256.84" class="st1"/>
		</g>
		<g id="shape78-56" v:mID="78" v:groupContext="shape" transform="translate(54.91,-28.5751)">
			<title>工作表.78</title>
			<desc>L/R</desc>
			<v:textBlock v:margins="rect(1,1,1,1)" v:tabSpace="42.5197"/>
			<v:textRect cx="7.79528" cy="225.287" width="15.6" height="11.3386"/>
			<rect x="0" y="219.618" width="15.5906" height="11.3386" class="st4"/>
			<text x="2.4" y="227.69" class="st5" v:langID="2052"><v:paragraph v:horizAlign="1"/><v:tabList/>L/R</text>		</g>
		<g id="shape79-59" v:mID="79" v:groupContext="shape" transform="translate(47.8234,-135.474)">
			<title>矩形.79</title>
			<v:userDefs>
				<v:ud v:nameU="visVersion" v:val="VT0(14):26"/>
			</v:userDefs>
			<rect x="0" y="148.868" width="113.386" height="82.089" class="st2"/>
		</g>
		<g id="shape80-61" v:mID="80" v:groupContext="shape" transform="translate(-12.6849,294.492) rotate(-149.505)">
			<title>Center drag circle.80</title>
			<v:userDefs>
				<v:ud v:nameU="visVersion" v:val="VT0(14):26"/>
			</v:userDefs>
			<path d="M-3.84 230.96 A3.83797 3.83797 0 0 1 3.84 230.96 A3.83797 3.83797 0 1 1 -3.84 230.96 Z" class="st2"/>
		</g>
		<g id="shape81-63" v:mID="81" v:groupContext="shape" transform="translate(-2.10186,226.421) rotate(-135)">
			<title>Center drag circle.81</title>
			<v:userDefs>
				<v:ud v:nameU="visVersion" v:val="VT0(14):26"/>
			</v:userDefs>
			<path d="M-4.68 230.96 A4.67693 4.67693 0 0 1 4.68 230.96 A4.67693 4.67693 0 1 1 -4.68 230.96 Z" class="st2"/>
		</g>
		<g id="shape82-65" v:mID="82" v:groupContext="shape" transform="translate(-115.488,189.948) rotate(-135)">
			<title>中心拖动圆形.82</title>
			<v:userDefs>
				<v:ud v:nameU="visVersion" v:val="VT0(14):26"/>
			</v:userDefs>
			<path d="M-4.68 230.96 A4.67693 4.67693 0 0 1 4.68 230.96 A4.67693 4.67693 0 1 1 -4.68 230.96 Z" class="st2"/>
		</g>
		<g id="shape83-67" v:mID="83" v:groupContext="shape" transform="translate(46.406,-197.233)">
			<title>工作表.83</title>
			<desc>VDD</desc>
			<v:textBlock v:margins="rect(1,1,1,1)" v:tabSpace="42.5197"/>
			<v:textRect cx="17.0079" cy="225.287" width="34.02" height="11.3386"/>
			<rect x="0" y="219.618" width="34.0157" height="11.3386" class="st6"/>
			<text x="9.82" y="227.69" class="st5" v:langID="2052"><v:paragraph v:horizAlign="1"/><v:tabList/>VDD</text>		</g>
		<g id="shape84-70" v:mID="84" v:groupContext="shape" transform="translate(77.5871,-172.267)">
			<title>工作表.84</title>
			<desc>Digital MIC</desc>
			<v:textBlock v:margins="rect(1,1,1,1)" v:tabSpace="42.5197"/>
			<v:textRect cx="28.3465" cy="222.453" width="56.7" height="17.0079"/>
			<rect x="0" y="213.949" width="56.6929" height="17.0079" class="st4"/>
			<text x="6.07" y="225.45" class="st3" v:langID="2052"><v:paragraph v:horizAlign="1"/><v:tabList/>Digital MIC</text>		</g>
		<g id="shape85-73" v:mID="85" v:groupContext="shape" transform="translate(122.941,-160.099)">
			<title>工作表.85</title>
			<desc>CLOCK</desc>
			<v:textBlock v:margins="rect(1,1,1,1)" v:tabSpace="42.5197"/>
			<v:textRect cx="19.8425" cy="223.87" width="39.69" height="14.1732"/>
			<rect x="0" y="216.783" width="39.685" height="14.1732" class="st6"/>
			<text x="9.17" y="226.27" class="st5" v:langID="2052"><v:paragraph v:horizAlign="1"/><v:tabList/>CLOCK</text>		</g>
		<g id="shape86-76" v:mID="86" v:groupContext="shape" transform="translate(88.9257,-141.674)">
			<title>工作表.86</title>
			<desc>GND</desc>
			<v:textBlock v:margins="rect(1,1,1,1)" v:tabSpace="42.5197"/>
			<v:textRect cx="17.0079" cy="225.287" width="34.02" height="11.3386"/>
			<rect x="0" y="219.618" width="34.0157" height="11.3386" class="st4"/>
			<text x="9.44" y="227.69" class="st5" v:langID="2052"><v:paragraph v:horizAlign="1"/><v:tabList/>GND</text>		</g>
		<g id="shape87-79" v:mID="87" v:groupContext="shape" v:layerMember="1" transform="translate(-122.799,117.378) rotate(-90)">
			<title>接地.87</title>
			<v:userDefs>
				<v:ud v:nameU="visVersion" v:val="VT0(14):26"/>
				<v:ud v:nameU="visDescription" v:val="VT4(表示接地。)"/>
			</v:userDefs>
			<path d="M0 226.11 L0 228.53" class="st1"/>
			<path d="M1.21 224.9 L1.21 229.75" class="st1"/>
			<path d="M2.42 223.69 L2.42 230.96" class="st1"/>
			<path d="M18.16 227.32 L2.42 227.32" class="st1"/>
		</g>
		<g id="shape88-85" v:mID="88" v:groupContext="shape" transform="translate(-2.10186,246.263) rotate(-135)">
			<title>Center drag circle.88</title>
			<v:userDefs>
				<v:ud v:nameU="visVersion" v:val="VT0(14):26"/>
			</v:userDefs>
			<path d="M-4.68 230.96 A4.67693 4.67693 0 0 1 4.68 230.96 A4.67693 4.67693 0 1 1 -4.68 230.96 Z" class="st2"/>
		</g>
		<g id="shape89-87" v:mID="89" v:groupContext="shape" transform="translate(122.941,-140.257)">
			<title>工作表.89</title>
			<desc>DATA</desc>
			<v:textBlock v:margins="rect(1,1,1,1)" v:tabSpace="42.5197"/>
			<v:textRect cx="19.8425" cy="223.87" width="39.69" height="14.1732"/>
			<rect x="0" y="216.783" width="39.685" height="14.1732" class="st6"/>
			<text x="10.8" y="226.27" class="st5" v:langID="2052"><v:paragraph v:horizAlign="1"/><v:tabList/>DATA</text>		</g>
		<g id="shape90-90" v:mID="90" v:groupContext="shape" transform="translate(-115.488,241.255) rotate(-135)">
			<title>Center drag circle.90</title>
			<v:userDefs>
				<v:ud v:nameU="visVersion" v:val="VT0(14):26"/>
			</v:userDefs>
			<path d="M-4.68 230.96 A4.67693 4.67693 0 0 1 4.68 230.96 A4.67693 4.67693 0 1 1 -4.68 230.96 Z" class="st2"/>
		</g>
		<g id="shape91-92" v:mID="91" v:groupContext="shape" transform="translate(54.2013,-143.091)">
			<title>工作表.91</title>
			<desc>L/R</desc>
			<v:textBlock v:margins="rect(1,1,1,1)" v:tabSpace="42.5197"/>
			<v:textRect cx="7.79528" cy="225.287" width="15.6" height="11.3386"/>
			<rect x="0" y="219.618" width="15.5906" height="11.3386" class="st4"/>
			<text x="2.4" y="227.69" class="st5" v:langID="2052"><v:paragraph v:horizAlign="1"/><v:tabList/>L/R</text>		</g>
		<g id="shape92-95" v:mID="92" v:groupContext="shape" v:layerMember="0" transform="translate(43.1469,-160.026)">
			<title>动态连接线.92</title>
			<path d="M0 238.03 L-22.96 238.05" class="st1"/>
		</g>
		<g id="shape93-98" v:mID="93" v:groupContext="shape" v:layerMember="0" transform="translate(12.989,-222.157)">
			<title>动态连接线.93</title>
			<path d="M7.01 230.96 L7.16 300.19" class="st1"/>
		</g>
		<g id="shape94-101" v:mID="94" v:groupContext="shape" v:layerMember="0" transform="translate(43.1924,-196.628)">
			<title>动态连接线.94</title>
			<path d="M0 223.92 L-23.29 223.82" class="st1"/>
		</g>
		<g id="shape95-104" v:mID="95" v:groupContext="shape" v:layerMember="0" transform="translate(20.1513,-161.431)">
			<title>动态连接线.95</title>
			<path d="M0 230.96 L0 303.34 L23.72 303.34" class="st1"/>
		</g>
		<g id="group96-107" transform="translate(-195.3,40.9708) rotate(-90)" v:mID="96" v:groupContext="group" v:layerMember="1">
			<v:userDefs>
				<v:ud v:nameU="Form" v:val="VT0(0):26"/>
				<v:ud v:nameU="Type" v:val="VT0(0):26"/>
				<v:ud v:nameU="visVersion" v:val="VT0(14):26"/>
				<v:ud v:nameU="visDescription" v:val="VT4(表示固定或可变电容器。)"/>
			</v:userDefs>
			<title>电容器.96</title>
			<g id="shape97-108" v:mID="97" v:groupContext="shape" v:layerMember="1"
					transform="translate(166.502,62.4722) rotate(45)">
				<title>工作表.97</title>
			</g>
			<g id="shape98-110" v:mID="98" v:groupContext="shape" v:layerMember="1" transform="translate(4.75224,0)">
				<title>工作表.98</title>
				<path d="M1.36 230.96 L1.36 225.53" class="st1"/>
				<path d="M2.72 230.96 L2.72 225.53" class="st1"/>
			</g>
			<g id="shape99-114" v:mID="99" v:groupContext="shape" v:layerMember="1" transform="translate(0,-2.71557)">
				<title>工作表.99</title>
				<path d="M0 230.96 L6.11 230.96" class="st1"/>
				<path d="M7.47 230.96 L13.58 230.96" class="st1"/>
			</g>
		</g>
		<g id="shape100-118" v:mID="100" v:groupContext="shape" v:layerMember="1"
				transform="translate(-194.799,51.0362) rotate(-90)">
			<title>等电势.100</title>
			<v:userDefs>
				<v:ud v:nameU="visVersion" v:val="VT0(14):26"/>
				<v:ud v:nameU="visDescription" v:val="VT4(表示等电势。)"/>
			</v:userDefs>
			<path d="M3.23 230.96 L3.23 224.49 L0 227.73 L3.23 230.96 Z" class="st7"/>
			<path d="M3.23 230.96 L3.23 224.49 L0 227.73 L3.23 230.96" class="st1"/>
			<path d="M16.16 227.73 L3.23 227.73" class="st1"/>
		</g>
		<g id="group101-122" transform="translate(-195.045,156.758) rotate(-90)" v:mID="101" v:groupContext="group"
				v:layerMember="1">
			<v:userDefs>
				<v:ud v:nameU="Form" v:val="VT0(0):26"/>
				<v:ud v:nameU="Type" v:val="VT0(0):26"/>
				<v:ud v:nameU="visVersion" v:val="VT0(14):26"/>
				<v:ud v:nameU="visDescription" v:val="VT4(表示固定或可变电容器。)"/>
			</v:userDefs>
			<title>电容器.101</title>
			<g id="shape102-123" v:mID="102" v:groupContext="shape" v:layerMember="1"
					transform="translate(166.801,61.988) rotate(45)">
				<title>工作表.102</title>
			</g>
			<g id="shape103-125" v:mID="103" v:groupContext="shape" v:layerMember="1" transform="translate(5.1971,0)">
				<title>工作表.103</title>
				<path d="M1.48 230.96 L1.48 225.02" class="st1"/>
				<path d="M2.97 230.96 L2.97 225.02" class="st1"/>
			</g>
			<g id="shape104-129" v:mID="104" v:groupContext="shape" v:layerMember="1" transform="translate(0,-2.96977)">
				<title>工作表.104</title>
				<path d="M0 230.96 L6.68 230.96" class="st1"/>
				<path d="M8.17 230.96 L14.85 230.96" class="st1"/>
			</g>
		</g>
		<g id="shape105-133" v:mID="105" v:groupContext="shape" v:layerMember="1"
				transform="translate(-193.446,173.206) rotate(-90)">
			<title>等电势.105</title>
			<v:userDefs>
				<v:ud v:nameU="visVersion" v:val="VT0(14):26"/>
				<v:ud v:nameU="visDescription" v:val="VT4(表示等电势。)"/>
			</v:userDefs>
			<path d="M4.57 230.96 L4.57 221.82 L0 226.39 L4.57 230.96 Z" class="st7"/>
			<path d="M4.57 230.96 L4.57 221.82 L0 226.39 L4.57 230.96" class="st1"/>
			<path d="M22.84 226.39 L4.57 226.39" class="st1"/>
		</g>
		<g id="shape106-137" v:mID="106" v:groupContext="shape" v:layerMember="0" transform="translate(218.611,-167.755)">
			<title>动态连接线.106</title>
			<path d="M0 230.96 L0 278.52 L21.37 278.52" class="st1"/>
		</g>
		<g id="shape107-140" v:mID="107" v:groupContext="shape" v:layerMember="0" transform="translate(194.797,-160.583)">
			<title>动态连接线.107</title>
			<path d="M0 223.96 L23.81 223.78" class="st1"/>
		</g>
		<g id="shape108-143" v:mID="108" v:groupContext="shape" v:layerMember="0" transform="translate(218.611,-128.993)">
			<title>动态连接线.108</title>
			<path d="M0 230.96 L0 306.66 L-16.06 306.66 A2.3622 2.3622 -180 0 0 -20.79 306.66 L-25.85 306.66" class="st1"/>
		</g>
		<g id="shape109-146" v:mID="109" v:groupContext="shape" v:layerMember="0" transform="translate(201.998,-86.6104)">
			<title>动态连接线.109</title>
			<path d="M-1.81 230.96 L-1.81 284.4 L-12.36 284.4" class="st1"/>
		</g>
		<g id="shape110-149" v:mID="110" v:groupContext="shape" v:layerMember="0" transform="translate(188.25,-141.155)">
			<title>动态连接线.110</title>
			<path d="M2.24 223.92 L11.94 223.82" class="st1"/>
		</g>
		<g id="shape111-152" v:mID="111" v:groupContext="shape" v:layerMember="0" transform="translate(193.099,-148.288)">
			<title>动态连接线.111</title>
			<path d="M7.09 230.96 L7.09 300.01" class="st1"/>
		</g>
		<g id="shape112-155" v:mID="112" v:groupContext="shape" transform="translate(15.9404,-216.204)">
			<title>工作表.112</title>
			<desc>VDD</desc>
			<v:textBlock v:margins="rect(1,1,1,1)" v:tabSpace="42.5197"/>
			<v:textRect cx="17.0079" cy="225.287" width="34.02" height="11.3386"/>
			<rect x="0" y="219.618" width="34.0157" height="11.3386" class="st6"/>
			<text x="9.82" y="227.69" class="st5" v:langID="2052"><v:paragraph v:horizAlign="1"/><v:tabList/>VDD</text>		</g>
		<g id="shape113-158" v:mID="113" v:groupContext="shape" v:layerMember="0" transform="translate(12.9134,-215.07)">
			<title>Dynamic connector.113</title>
			<path d="M4.25 223.87 L9.92 223.87" class="st1"/>
		</g>
		<g id="group114-161" transform="translate(180.071,-160.184)" v:mID="114" v:groupContext="group" v:layerMember="1">
			<v:custProps>
				<v:cp v:nameU="Label" v:lbl="标签" v:type="0" v:format="@" v:sortKey="" v:invis="false" v:ask="false" v:langID="2052"
						v:val="VT4()"/>
				<v:cp v:nameU="Slider_Position" v:lbl="滑块位置 (0-1)" v:type="2" v:langID="2052" v:val="VT0(0.5):26"/>
				<v:cp v:nameU="Label" v:lbl="" v:prompt="" v:type="0" v:format="" v:sortKey="" v:invis="false" v:ask="false"
						v:langID="0" v:cal="0" v:val="VT4(22ohm)"/>
			</v:custProps>
			<v:userDefs>
				<v:ud v:nameU="Form" v:val="VT0(1):5"/>
				<v:ud v:nameU="SubType" v:val="VT0(0):26"/>
				<v:ud v:nameU="visDescription" v:val="VT4(Represents a fixed or variable resistor.)"/>
				<v:ud v:nameU="visVersion" v:val="VT0(15):26"/>
				<v:ud v:nameU="Label" v:prompt="" v:val="VT4()"/>
				<v:ud v:nameU="SolSH" v:prompt="" v:val="VT4({2EE3C7D2-E26E-4B72-9E9C-5170DDBF261A})"/>
				<v:ud v:nameU="Label" v:prompt="" v:val="VT4(R1)"/>
			</v:userDefs>
			<title>电阻器</title>
			<desc>22ohm</desc>
			<g id="shape115-162" v:mID="115" v:groupContext="shape" v:layerMember="1" transform="translate(-1.116,1.03215)">
				<title>工作表.115</title>
			</g>
			<g id="shape116-164" v:mID="116" v:groupContext="shape" v:layerMember="1">
				<title>工作表.116</title>
				<path d="M3.53 224.48 L3.53 222.71 L11.19 222.71 L11.19 224.48 L2.36 224.48 L2.36 221.53 L12.37 221.53 L12.37 225.66
							 L2.36 225.66 L2.36 224.48 L3.53 224.48 Z" class="st8"/>
				<path d="M14.73 223.59 L11.78 223.59" class="st9"/>
				<path d="M2.95 223.59 L0 223.59" class="st9"/>
			</g>
			<g id="shape114-168" v:mID="114" v:groupContext="groupContent" v:layerMember="1">
				<v:textBlock v:margins="rect(1,1,1,1)" v:tabSpace="34.0157"/>
				<v:textRect cx="7.01588" cy="217.094" width="26.74" height="11.6036"/>
				<text x="-4.45" y="219.49" class="st5" v:langID="2052"><v:paragraph v:horizAlign="1"/><v:tabList/>22ohm</text>			</g>
		</g>
		<g id="shape117-170" v:mID="117" v:groupContext="shape" transform="translate(180.071,294.329) rotate(180)">
			<title>工作表.117</title>
			<path d="M0 230.96 L14.19 230.96" class="st1"/>
		</g>
		<g id="group118-173" transform="translate(175.762,-140.795)" v:mID="118" v:groupContext="group" v:layerMember="1">
			<v:custProps>
				<v:cp v:nameU="Label" v:lbl="标签" v:type="0" v:format="@" v:sortKey="" v:invis="false" v:ask="false" v:langID="2052"
						v:val="VT4()"/>
				<v:cp v:nameU="Slider_Position" v:lbl="滑块位置 (0-1)" v:type="2" v:langID="2052" v:val="VT0(0.5):26"/>
				<v:cp v:nameU="Label" v:lbl="" v:prompt="" v:type="0" v:format="" v:sortKey="" v:invis="false" v:ask="false"
						v:langID="0" v:cal="0" v:val="VT4(22ohm)"/>
			</v:custProps>
			<v:userDefs>
				<v:ud v:nameU="Form" v:val="VT0(1):5"/>
				<v:ud v:nameU="SubType" v:val="VT0(0):26"/>
				<v:ud v:nameU="visDescription" v:val="VT4(Represents a fixed or variable resistor.)"/>
				<v:ud v:nameU="visVersion" v:val="VT0(15):26"/>
				<v:ud v:nameU="Label" v:prompt="" v:val="VT4()"/>
				<v:ud v:nameU="SolSH" v:prompt="" v:val="VT4({2EE3C7D2-E26E-4B72-9E9C-5170DDBF261A})"/>
				<v:ud v:nameU="Label" v:prompt="" v:val="VT4(R2)"/>
			</v:userDefs>
			<title>电阻器.118</title>
			<desc>22ohm</desc>
			<g id="shape119-174" v:mID="119" v:groupContext="shape" v:layerMember="1" transform="translate(-1.116,1.03215)">
				<title>工作表.119</title>
			</g>
			<g id="shape120-176" v:mID="120" v:groupContext="shape" v:layerMember="1">
				<title>工作表.120</title>
				<path d="M3.53 224.48 L3.53 222.71 L11.19 222.71 L11.19 224.48 L2.36 224.48 L2.36 221.53 L12.37 221.53 L12.37 225.66
							 L2.36 225.66 L2.36 224.48 L3.53 224.48 Z" class="st8"/>
				<path d="M14.73 223.59 L11.78 223.59" class="st9"/>
				<path d="M2.95 223.59 L0 223.59" class="st9"/>
			</g>
			<g id="shape118-180" v:mID="118" v:groupContext="groupContent" v:layerMember="1">
				<v:textBlock v:margins="rect(1,1,1,1)" v:tabSpace="34.0157"/>
				<v:textRect cx="8.48989" cy="217.547" width="26.74" height="11.6036"/>
				<text x="-2.97" y="219.95" class="st5" v:langID="2052"><v:paragraph v:horizAlign="1"/><v:tabList/>22ohm</text>			</g>
		</g>
		<g id="shape121-182" v:mID="121" v:groupContext="shape" transform="translate(175.762,313.718) rotate(180)">
			<title>工作表.121</title>
			<path d="M0 230.96 L9.88 230.96" class="st1"/>
		</g>
		<g id="group186-185" transform="translate(178.03,-45.8915)" v:mID="186" v:groupContext="group" v:layerMember="1">
			<v:custProps>
				<v:cp v:nameU="Label" v:lbl="标签" v:type="0" v:format="@" v:sortKey="" v:invis="false" v:ask="false" v:langID="2052"
						v:val="VT4()"/>
				<v:cp v:nameU="Slider_Position" v:lbl="滑块位置 (0-1)" v:type="2" v:langID="2052" v:val="VT0(0.5):26"/>
				<v:cp v:nameU="Label" v:lbl="" v:prompt="" v:type="0" v:format="" v:sortKey="" v:invis="false" v:ask="false"
						v:langID="0" v:cal="0" v:val="VT4(22ohm)"/>
			</v:custProps>
			<v:userDefs>
				<v:ud v:nameU="Form" v:val="VT0(1):5"/>
				<v:ud v:nameU="SubType" v:val="VT0(0):26"/>
				<v:ud v:nameU="visDescription" v:val="VT4(Represents a fixed or variable resistor.)"/>
				<v:ud v:nameU="visVersion" v:val="VT0(15):26"/>
				<v:ud v:nameU="Label" v:prompt="" v:val="VT4()"/>
				<v:ud v:nameU="SolSH" v:prompt="" v:val="VT4({2EE3C7D2-E26E-4B72-9E9C-5170DDBF261A})"/>
				<v:ud v:nameU="Label" v:prompt="" v:val="VT4(R3)"/>
			</v:userDefs>
			<title>电阻器.186</title>
			<desc>22ohm</desc>
			<g id="shape187-186" v:mID="187" v:groupContext="shape" v:layerMember="1" transform="translate(-1.116,1.03215)">
				<title>工作表.187</title>
			</g>
			<g id="shape188-188" v:mID="188" v:groupContext="shape" v:layerMember="1">
				<title>工作表.188</title>
				<path d="M3.53 224.48 L3.53 222.71 L11.19 222.71 L11.19 224.48 L2.36 224.48 L2.36 221.53 L12.37 221.53 L12.37 225.66
							 L2.36 225.66 L2.36 224.48 L3.53 224.48 Z" class="st8"/>
				<path d="M14.73 223.59 L11.78 223.59" class="st9"/>
				<path d="M2.95 223.59 L0 223.59" class="st9"/>
			</g>
			<g id="shape186-192" v:mID="186" v:groupContext="groupContent" v:layerMember="1">
				<v:textBlock v:margins="rect(1,1,1,1)" v:tabSpace="34.0157"/>
				<v:textRect cx="7.92296" cy="217.321" width="26.74" height="11.6036"/>
				<text x="-3.54" y="219.72" class="st5" v:langID="2052"><v:paragraph v:horizAlign="1"/><v:tabList/>22ohm</text>			</g>
		</g>
		<g id="group189-194" transform="translate(174.912,-25.7655)" v:mID="189" v:groupContext="group" v:layerMember="1">
			<v:custProps>
				<v:cp v:nameU="Label" v:lbl="标签" v:type="0" v:format="@" v:sortKey="" v:invis="false" v:ask="false" v:langID="2052"
						v:val="VT4()"/>
				<v:cp v:nameU="Slider_Position" v:lbl="滑块位置 (0-1)" v:type="2" v:langID="2052" v:val="VT0(0.5):26"/>
				<v:cp v:nameU="Label" v:lbl="" v:prompt="" v:type="0" v:format="" v:sortKey="" v:invis="false" v:ask="false"
						v:langID="0" v:cal="0" v:val="VT4(22ohm)"/>
			</v:custProps>
			<v:userDefs>
				<v:ud v:nameU="Form" v:val="VT0(1):5"/>
				<v:ud v:nameU="SubType" v:val="VT0(0):26"/>
				<v:ud v:nameU="visDescription" v:val="VT4(Represents a fixed or variable resistor.)"/>
				<v:ud v:nameU="visVersion" v:val="VT0(15):26"/>
				<v:ud v:nameU="Label" v:prompt="" v:val="VT4()"/>
				<v:ud v:nameU="SolSH" v:prompt="" v:val="VT4({2EE3C7D2-E26E-4B72-9E9C-5170DDBF261A})"/>
				<v:ud v:nameU="Label" v:prompt="" v:val="VT4(R4)"/>
			</v:userDefs>
			<title>电阻器.189</title>
			<desc>22ohm</desc>
			<g id="shape190-195" v:mID="190" v:groupContext="shape" v:layerMember="1" transform="translate(-1.116,1.03215)">
				<title>工作表.190</title>
			</g>
			<g id="shape191-197" v:mID="191" v:groupContext="shape" v:layerMember="1">
				<title>工作表.191</title>
				<path d="M3.53 224.48 L3.53 222.71 L11.19 222.71 L11.19 224.48 L2.36 224.48 L2.36 221.53 L12.37 221.53 L12.37 225.66
							 L2.36 225.66 L2.36 224.48 L3.53 224.48 Z" class="st8"/>
				<path d="M14.73 223.59 L11.78 223.59" class="st9"/>
				<path d="M2.95 223.59 L0 223.59" class="st9"/>
			</g>
			<g id="shape189-201" v:mID="189" v:groupContext="groupContent" v:layerMember="1">
				<v:textBlock v:margins="rect(1,1,1,1)" v:tabSpace="34.0157"/>
				<v:textRect cx="8.20643" cy="217.037" width="26.74" height="11.6036"/>
				<text x="-3.25" y="219.44" class="st5" v:langID="2052"><v:paragraph v:horizAlign="1"/><v:tabList/>22ohm</text>			</g>
		</g>
		<g id="shape192-203" v:mID="192" v:groupContext="shape" transform="translate(174.912,428.748) rotate(180)">
			<title>工作表.192</title>
			<path d="M0 230.96 L8.33 230.96" class="st1"/>
		</g>
		<g id="shape193-206" v:mID="193" v:groupContext="shape" transform="translate(178.03,408.622) rotate(180)">
			<title>工作表.193</title>
			<path d="M0 230.96 L11.44 230.96" class="st1"/>
		</g>
	</g>
</svg>
