<?xml version="1.0" encoding="UTF-8" standalone="no"?>
<!DOCTYPE svg PUBLIC "-//W3C//DTD SVG 1.1//EN" "http://www.w3.org/Graphics/SVG/1.1/DTD/svg11.dtd">
<!-- 由 Microsoft Visio, SVG Export 生成 Microsoft_Visio___3.svg 页-1 -->
<svg xmlns="http://www.w3.org/2000/svg" xmlns:xlink="http://www.w3.org/1999/xlink" xmlns:ev="http://www.w3.org/2001/xml-events"
		xmlns:v="http://schemas.microsoft.com/visio/2003/SVGExtensions/" width="4.22249in" height="5.27517in"
		viewBox="0 0 304.019 379.812" xml:space="preserve" color-interpolation-filters="sRGB" class="st14">
	<v:documentProperties v:langID="2052" v:viewMarkup="false"/>

	<style type="text/css">
	<![CDATA[
		.st1 {fill:none;stroke:none;stroke-width:0.25}
		.st2 {fill:#000000;font-family:Calibri;font-size:0.666664em}
		.st3 {fill:none;stroke:none;stroke-linecap:round;stroke-linejoin:round;stroke-width:0.72}
		.st4 {fill:#000000;font-family:Calibri;font-size:0.75em}
		.st5 {font-size:1em}
		.st6 {fill:#92d050;stroke:#404040;stroke-dasharray:3.5,2.5;stroke-linecap:round;stroke-linejoin:round;stroke-width:0.5}
		.st7 {font-family:宋体;font-size:1em}
		.st8 {fill:#ffffff;stroke:#404040;stroke-dasharray:3.5,2.5;stroke-linecap:round;stroke-linejoin:round;stroke-width:0.5}
		.st9 {fill:#49d66c;stroke:#49d66c;stroke-linecap:round;stroke-linejoin:round;stroke-width:0.25}
		.st10 {fill:#ffffff;stroke:#ffffff;stroke-linecap:round;stroke-linejoin:round;stroke-width:0.75}
		.st11 {fill:#000000;font-family:Calibri;font-size:0.666664em;font-weight:bold}
		.st12 {font-family:Symbol;font-size:1.50002em;font-weight:normal}
		.st13 {font-size:1em;font-style:italic;font-weight:normal}
		.st14 {fill:none;fill-rule:evenodd;font-size:12px;overflow:visible;stroke-linecap:square;stroke-miterlimit:3}
	]]>
	</style>

	<g v:mID="0" v:index="1" v:groupContext="foregroundPage">
		<title>页-1</title>
		<v:pageProperties v:drawingScale="0.0393701" v:pageScale="0.0393701" v:drawingUnits="24" v:shadowOffsetX="8.50394"
				v:shadowOffsetY="-8.50394"/>
		<g id="shape2-1" v:mID="2" v:groupContext="shape" transform="translate(0.25,-357.971)">
			<title>工作表.2</title>
			<desc>0x200</desc>
			<v:textBlock v:margins="rect(4,4,4,4)" v:tabSpace="42.5197"/>
			<v:textRect cx="14.1732" cy="374.143" width="28.35" height="11.3386"/>
			<rect x="0" y="368.474" width="28.3465" height="11.3386" class="st1"/>
			<text x="4.33" y="376.54" class="st2" v:langID="1028"><v:paragraph v:horizAlign="1"/><v:tabList/>0x200</text>		</g>
		<g id="shape3-4" v:mID="3" v:groupContext="shape" transform="translate(0.25,-41.3416)">
			<title>工作表.3</title>
			<desc>0x400</desc>
			<v:textBlock v:margins="rect(4,4,4,4)" v:tabSpace="42.5197"/>
			<v:textRect cx="14.1732" cy="375.56" width="28.35" height="8.50394"/>
			<rect x="0" y="371.308" width="28.3465" height="8.50394" class="st1"/>
			<text x="4.33" y="377.96" class="st2" v:langID="1028"><v:paragraph v:horizAlign="1"/><v:tabList/>0x400</text>		</g>
		<g id="shape4-7" v:mID="4" v:groupContext="shape" transform="translate(79.3366,-370.16)">
			<title>工作表.4</title>
			<desc>4K bits secure eFuse</desc>
			<v:textBlock v:margins="rect(4,4,4,4)" v:tabSpace="42.5197"/>
			<v:textRect cx="47.7955" cy="375.56" width="95.6" height="8.50394"/>
			<rect x="0" y="371.308" width="95.591" height="8.50394" class="st3"/>
			<text x="10.72" y="378.26" class="st4" v:langID="2052"><v:paragraph v:horizAlign="1"/><v:tabList/>4<tspan class="st5"
						v:langID="1028">K bit</tspan>s<tspan class="st5" v:langID="1028"> </tspan>secure eFuse</text>		</g>
		<g id="shape5-12" v:mID="5" v:groupContext="shape" transform="translate(31.0134,-252.984)">
			<title>框.202</title>
			<desc>0x300 ~ 0x30F (16B) ─ SWD key</desc>
			<v:userDefs>
				<v:ud v:nameU="visVersion" v:val="VT0(11):26"/>
				<v:ud v:nameU="msvThemeColors" v:val="VT0(36):26"/>
				<v:ud v:nameU="msvThemeEffects" v:val="VT0(16):26"/>
			</v:userDefs>
			<v:textBlock v:margins="rect(4,4,4,4)" v:tabSpace="42.5197"/>
			<v:textRect cx="96.378" cy="365.639" width="192.76" height="28.3465"/>
			<path d="M0 379.81 L192.76 379.81 L192.76 351.47 L0 351.47 L0 379.81 Z" class="st6"/>
			<text x="4" y="368.3" class="st2" v:langID="1028"><v:paragraph/><v:tabList/>0x300<tspan class="st5" v:langID="2052"> </tspan>~<tspan
						class="st5" v:langID="2052"> </tspan>0x30F (16B) <tspan class="st7">─</tspan> SWD key</text>		</g>
		<g id="shape6-18" v:mID="6" v:groupContext="shape" transform="translate(31.0134,-224.743)">
			<title>框.203</title>
			<desc>0x310 ~ 0x31F (16B) ─ HUK</desc>
			<v:userDefs>
				<v:ud v:nameU="visVersion" v:val="VT0(11):26"/>
				<v:ud v:nameU="msvThemeColors" v:val="VT0(36):26"/>
				<v:ud v:nameU="msvThemeEffects" v:val="VT0(16):26"/>
			</v:userDefs>
			<v:textBlock v:margins="rect(4,4,4,4)" v:tabSpace="42.5197"/>
			<v:textRect cx="96.378" cy="365.639" width="192.76" height="28.3465"/>
			<path d="M0 379.81 L192.76 379.81 L192.76 351.47 L0 351.47 L0 379.81 Z" class="st6"/>
			<text x="4" y="368.3" class="st2" v:langID="1028"><v:paragraph/><v:tabList/>0x310 ~ 0x31F (16B) <tspan class="st7">─</tspan> HUK</text>		</g>
		<g id="shape7-22" v:mID="7" v:groupContext="shape" transform="translate(31.0134,-173.72)">
			<title>框.204</title>
			<desc>0x320 ~ 0x35F (64B) ─ ROTPK</desc>
			<v:userDefs>
				<v:ud v:nameU="visVersion" v:val="VT0(11):26"/>
				<v:ud v:nameU="msvThemeColors" v:val="VT0(36):26"/>
				<v:ud v:nameU="msvThemeEffects" v:val="VT0(16):26"/>
			</v:userDefs>
			<v:textBlock v:margins="rect(4,4,4,4)" v:tabSpace="42.5197"/>
			<v:textRect cx="96.378" cy="354.3" width="192.76" height="51.0236"/>
			<path d="M0 379.81 L192.76 379.81 L192.76 328.79 L0 328.79 L0 379.81 Z" class="st6"/>
			<text x="4" y="356.96" class="st2" v:langID="1028"><v:paragraph/><v:tabList/>0x320 ~ 0x35F (64B) <tspan class="st7">─</tspan> ROTPK</text>		</g>
		<g id="shape8-26" v:mID="8" v:groupContext="shape" transform="translate(31.204,-43.3258)">
			<title>框.206</title>
			<desc>0x3C0 ~ 0x3FF (64B) ─ User-defined 2</desc>
			<v:userDefs>
				<v:ud v:nameU="visVersion" v:val="VT0(11):26"/>
				<v:ud v:nameU="msvThemeColors" v:val="VT0(36):26"/>
				<v:ud v:nameU="msvThemeEffects" v:val="VT0(16):26"/>
			</v:userDefs>
			<v:textBlock v:margins="rect(4,4,4,4)" v:tabSpace="42.5197"/>
			<v:textRect cx="96.378" cy="354.3" width="192.76" height="51.0236"/>
			<path d="M0 379.81 L192.76 379.81 L192.76 328.79 L0 328.79 L0 379.81 Z" class="st8"/>
			<text x="4" y="356.96" class="st2" v:langID="1028"><v:paragraph/><v:tabList/>0x3C0<tspan class="st5" v:langID="2052"> </tspan>~<tspan
						class="st5" v:langID="2052"> </tspan>0x3FF (64B) <tspan class="st7">─</tspan> <tspan class="st5"
						v:langID="2052">Us</tspan>er-define<tspan class="st5" v:langID="2052">d </tspan><tspan class="st5"
						v:langID="2052">2</tspan></text>		</g>
		<g id="shape9-35" v:mID="9" v:groupContext="shape" transform="translate(31.1415,-94.3494)">
			<title>框.207</title>
			<desc>0x380 ~ 0x3BF (64B) ─ User-defined 1</desc>
			<v:userDefs>
				<v:ud v:nameU="visVersion" v:val="VT0(11):26"/>
				<v:ud v:nameU="msvThemeColors" v:val="VT0(36):26"/>
				<v:ud v:nameU="msvThemeEffects" v:val="VT0(16):26"/>
			</v:userDefs>
			<v:textBlock v:margins="rect(4,4,4,4)" v:tabSpace="42.5197"/>
			<v:textRect cx="96.378" cy="354.3" width="192.76" height="51.0236"/>
			<path d="M0 379.81 L192.76 379.81 L192.76 328.79 L0 328.79 L0 379.81 Z" class="st8"/>
			<text x="4" y="356.96" class="st2" v:langID="1028"><v:paragraph/><v:tabList/>0x380<tspan class="st5" v:langID="2052"> </tspan>~<tspan
						class="st5" v:langID="2052"> </tspan>0x3BF (64B) <tspan class="st7">─</tspan> <tspan class="st5"
						v:langID="2052">U</tspan>ser<tspan class="st5" v:langID="2052">-</tspan>define<tspan class="st5"
						v:langID="2052">d </tspan>1</text>		</g>
		<g id="shape10-44" v:mID="10" v:groupContext="shape" transform="translate(31.0134,-281.635)">
			<title>框.208</title>
			<desc>0x200 ~ 0x2FF (256B) ─ Autoload flip-flop key data</desc>
			<v:userDefs>
				<v:ud v:nameU="visVersion" v:val="VT0(11):26"/>
				<v:ud v:nameU="msvThemeColors" v:val="VT0(36):26"/>
				<v:ud v:nameU="msvThemeEffects" v:val="VT0(16):26"/>
			</v:userDefs>
			<v:textBlock v:margins="rect(4,4,4,4)" v:tabSpace="42.5197"/>
			<v:textRect cx="96.378" cy="337.293" width="192.76" height="85.0394"/>
			<path d="M0 379.81 L192.76 379.81 L192.76 294.77 L0 294.77 L0 379.81 Z" class="st6"/>
			<text x="4" y="339.96" class="st2" v:langID="1028"><v:paragraph/><v:tabList/>0x200<tspan class="st5" v:langID="2052"> </tspan>~<tspan
						class="st5" v:langID="2052"> </tspan>0x2FF (256B) <tspan class="st7" v:langID="2052">─</tspan><tspan
						class="st5" v:langID="2052"> </tspan><tspan class="st5" v:langID="2052">Autoload flip</tspan><tspan
						class="st5" v:langID="2052">-</tspan><tspan class="st5" v:langID="2052">flop k</tspan><tspan class="st5"
						v:langID="2052">ey d</tspan><tspan class="st5" v:langID="1033">ata</tspan></text>		</g>
		<g id="shape11-56" v:mID="11" v:groupContext="shape" transform="translate(31.0706,-145.346)">
			<title>框.324</title>
			<desc>0x360 ~ 0x37F (16B) ─ Configuration area</desc>
			<v:userDefs>
				<v:ud v:nameU="visVersion" v:val="VT0(11):26"/>
				<v:ud v:nameU="msvThemeColors" v:val="VT0(36):26"/>
				<v:ud v:nameU="msvThemeEffects" v:val="VT0(16):26"/>
			</v:userDefs>
			<v:textBlock v:margins="rect(4,4,4,4)" v:tabSpace="42.5197"/>
			<v:textRect cx="96.378" cy="365.639" width="192.76" height="28.3465"/>
			<path d="M0 379.81 L192.76 379.81 L192.76 351.47 L0 351.47 L0 379.81 Z" class="st6"/>
			<text x="4" y="368.3" class="st2" v:langID="1028"><v:paragraph/><v:tabList/>0x360 ~ 0x37F (16B) <tspan class="st7">─</tspan> Configuration area</text>		</g>
		<g id="shape12-60" v:mID="12" v:groupContext="shape" transform="translate(179.571,-145.496)">
			<title>框.325</title>
			<desc>RSIP_MOD</desc>
			<v:userDefs>
				<v:ud v:nameU="visVersion" v:val="VT0(11):26"/>
				<v:ud v:nameU="msvThemeColors" v:val="VT0(36):26"/>
				<v:ud v:nameU="msvThemeEffects" v:val="VT0(16):26"/>
			</v:userDefs>
			<v:textBlock v:margins="rect(4,4,4,4)" v:tabSpace="42.5197"/>
			<v:textRect cx="21.9685" cy="373.812" width="43.94" height="12"/>
			<rect x="0" y="367.812" width="43.937" height="12" class="st9"/>
			<text x="4" y="376.21" class="st2" v:langID="1028"><v:paragraph/><v:tabList/>RSIP_MOD</text>		</g>
		<g id="shape13-63" v:mID="13" v:groupContext="shape" transform="translate(0.957909,-1.87752)">
			<title>工作表.13</title>
			<desc>Note: The zone filled with green color will be auto-loaded to...</desc>
			<v:textBlock v:margins="rect(4,4,4,4)" v:tabSpace="21"/>
			<v:textRect cx="151.343" cy="362.49" width="302.69" height="34.6452"/>
			<rect x="0" y="345.167" width="302.686" height="34.6452" class="st10"/>
			<text x="0.5em 1.159em 1.696em 2.043em" y="350.49" class="st11" v:langID="2052"><v:paragraph v:horizAlign="3"
						v:bulletSize="0.166667"/><v:tabList/>Note<tspan x="2.546em" dy="0em" class="st5">:<v:newlineChar/><v:paragraph
							v:indentFirst="-18" v:indentLeft="18" v:horizAlign="3" v:bullet="1" v:bulletSize="0.166667"/></tspan><tspan
						x="0.333em" dy="1.1em" class="st12" v:langID="1033" v:isBullet="true">·</tspan><tspan x="0.793em" dy="0em"
						class="st12" v:langID="1033"> </tspan><tspan x="2.75em 3.237em 3.752em 4.229em 4.455em 4.85em 5.363em 5.877em
							 6.355em" dy="0em" class="st13" v:langID="1033">The zone </tspan><tspan x="6.581em 6.886em 7.116em 7.345em
							 7.575em 8.052em 8.566em 8.792em 9.507em 9.737em 10.072em" dy="0em" class="st13">filled with</tspan><tspan
						x="10.586em" dy="0em" class="st13" v:langID="1033"> </tspan><tspan x="10.812em 11.326em 11.669em 12.146em
							 12.624em 13.138em 13.364em 13.78em 14.293em 14.523em 15.036em 15.379em 15.605em 16.32em 16.549em 16.779em
							 17.008em 17.234em 17.748em 18.226em 18.452em 18.966em 19.48em 19.815em" dy="0em" class="st13"
						v:langID="1033">green color will be auto</tspan><tspan x="20.328em" dy="0em" class="st13">-</tspan><tspan
						x="20.635em 20.864em 21.377em 21.891em 22.406em 22.883em 23.397em 23.623em 23.958em 24.471em 24.697em 24.927em
							 25.441em 25.776em 26.254em 26.596em 27.111em 27.625em 27.854em 28.08em 28.871em 29.349em 30.14em 30.653em
							 30.996em 31.443em 31.669em 32.183em 32.631em 32.857em 33.371em 33.885em 34.228em 34.742em 35.457em 35.971em
							 36.314em" dy="0em" class="st13" v:langID="1033">loaded to internal memory by hardware</tspan><tspan
						x="36.791em" dy="0em" class="st13">.<v:newlineChar/></tspan><tspan x="0.333em" dy="1.2em" class="st12"
						v:langID="1033" v:isBullet="true">·</tspan><tspan x="0.793em" dy="0em" class="st12" v:langID="1033"> </tspan><tspan
						x="2.75em 3.237em 3.752em 4.229em" dy="0em" class="st13" v:langID="1033">The </tspan><tspan x="4.455em 4.998em
							 5.888em" dy="0em" class="st13">RW </tspan><tspan x="6.114em 6.628em 7.044em 7.46em 7.938em 8.327em 8.716em
							 8.942em 9.277em 9.791em 10.017em 10.494em 11.008em 11.424em 11.938em 12.165em 12.554em 13.345em 13.859em
							 14.088em 14.318em 14.795em 15.138em 15.364em 15.759em 16.272em 16.787em 17.264em 17.49em 17.72em 18.109em
							 18.335em 18.751em 19.264em 19.778em 20.113em 20.456em 20.969em 21.199em 21.428em 21.906em 22.42em 22.646em
							 23.16em 23.607em 23.833em 24.249em 24.763em 25.277em 25.582em 25.811em 26.326em 26.84em 27.182em 27.697em
							 28.032em 28.261em 28.774em 29.288em 29.514em 30.029em 30.371em 30.849em" dy="0em" class="st13"
						v:langID="1033">access to each smaller zone is controlled by configuration area</tspan><tspan x="31.363em"
						dy="0em" class="st13" v:langID="1033">.</tspan></text>		</g>
	</g>
</svg>
