<?xml version="1.0" encoding="UTF-8" standalone="no"?>
<!DOCTYPE svg PUBLIC "-//W3C//DTD SVG 1.1//EN" "http://www.w3.org/Graphics/SVG/1.1/DTD/svg11.dtd">
<!-- 由 Microsoft Visio, SVG Export 生成 connecting_jlink_to_swd.svg 页-1 -->
<svg xmlns="http://www.w3.org/2000/svg" xmlns:xlink="http://www.w3.org/1999/xlink" xmlns:ev="http://www.w3.org/2001/xml-events"
		xmlns:v="http://schemas.microsoft.com/visio/2003/SVGExtensions/" width="4.93168in" height="1.6944in"
		viewBox="0 0 355.081 121.997" xml:space="preserve" color-interpolation-filters="sRGB" class="st9">
	<v:documentProperties v:langID="2052" v:metric="true" v:viewMarkup="false"/>

	<style type="text/css">
	<![CDATA[
		.st1 {fill:#ffffff;stroke:#000000;stroke-linecap:round;stroke-linejoin:round;stroke-width:0.75}
		.st2 {fill:#f2f2f2;stroke:#000000;stroke-linecap:round;stroke-linejoin:round;stroke-width:0.75}
		.st3 {fill:#ffffff;stroke:#000000;stroke-linecap:round;stroke-linejoin:round;stroke-width:0.25}
		.st4 {fill:none;stroke:none;stroke-linecap:round;stroke-linejoin:round;stroke-width:0.75}
		.st5 {fill:#000000;font-family:Calibri;font-size:0.583328em}
		.st6 {stroke:#000000;stroke-linecap:round;stroke-linejoin:round;stroke-width:0.5}
		.st7 {fill:#000000;font-family:Calibri;font-size:0.666664em}
		.st8 {fill:#000000;font-family:Calibri;font-size:0.833336em}
		.st9 {fill:none;fill-rule:evenodd;font-size:12px;overflow:visible;stroke-linecap:square;stroke-miterlimit:3}
	]]>
	</style>

	<g v:mID="0" v:index="1" v:groupContext="foregroundPage">
		<title>页-1</title>
		<v:pageProperties v:drawingScale="0.0393701" v:pageScale="0.0393701" v:drawingUnits="24" v:shadowOffsetX="9"
				v:shadowOffsetY="-9"/>
		<v:layer v:name="连接线" v:index="0"/>
		<g id="shape1-1" v:mID="1" v:groupContext="shape" transform="translate(5.66929,-0.375)">
			<title>工作表.1</title>
			<rect x="0" y="0.750001" width="337.323" height="121.247" class="st1"/>
		</g>
		<g id="shape2-3" v:mID="2" v:groupContext="shape" transform="translate(284.392,-44.2721)">
			<title>工作表.2</title>
			<rect x="0" y="77.5594" width="47.25" height="44.4375" class="st2"/>
		</g>
		<g id="shape3-5" v:mID="3" v:groupContext="shape" transform="translate(9.89185,-43.9909)">
			<title>工作表.3</title>
			<rect x="0" y="77.5594" width="236.813" height="44.4375" class="st2"/>
		</g>
		<g id="shape4-7" v:mID="4" v:groupContext="shape" transform="translate(87.0669,-74.2159)">
			<title>工作表.4</title>
			<rect x="0" y="111.197" width="10.8" height="10.8" class="st3"/>
		</g>
		<g id="shape5-9" v:mID="5" v:groupContext="shape" transform="translate(84.1419,-100.241)">
			<title>工作表.5</title>
			<desc>13</desc>
			<v:textBlock v:margins="rect(4,4,4,4)"/>
			<v:textRect cx="8.4375" cy="118.454" width="16.88" height="7.08661"/>
			<rect x="0" y="114.91" width="16.875" height="7.08661" class="st4"/>
			<text x="4.89" y="120.55" class="st5" v:langID="2052"><v:paragraph v:horizAlign="1"/><v:tabList/>13</text>		</g>
		<g id="shape6-12" v:mID="6" v:groupContext="shape" transform="translate(110.617,-74.2159)">
			<title>工作表.6</title>
			<rect x="0" y="111.197" width="10.8" height="10.8" class="st3"/>
		</g>
		<g id="shape7-14" v:mID="7" v:groupContext="shape" transform="translate(134.167,-74.2159)">
			<title>工作表.7</title>
			<rect x="0" y="111.197" width="10.8" height="10.8" class="st3"/>
		</g>
		<g id="shape8-16" v:mID="8" v:groupContext="shape" transform="translate(157.717,-74.2159)">
			<title>工作表.8</title>
			<rect x="0" y="111.197" width="10.8" height="10.8" class="st3"/>
		</g>
		<g id="shape9-18" v:mID="9" v:groupContext="shape" transform="translate(181.267,-74.2159)">
			<title>工作表.9</title>
			<rect x="0" y="111.197" width="10.8" height="10.8" class="st3"/>
		</g>
		<g id="shape10-20" v:mID="10" v:groupContext="shape" transform="translate(204.817,-74.2159)">
			<title>工作表.10</title>
			<rect x="0" y="111.197" width="10.8" height="10.8" class="st3"/>
		</g>
		<g id="shape11-22" v:mID="11" v:groupContext="shape" transform="translate(228.367,-74.2159)">
			<title>工作表.11</title>
			<rect x="0" y="111.197" width="10.8" height="10.8" class="st3"/>
		</g>
		<g id="shape12-24" v:mID="12" v:groupContext="shape" transform="translate(87.0669,-48.7909)">
			<title>工作表.12</title>
			<rect x="0" y="111.197" width="10.8" height="10.8" class="st3"/>
		</g>
		<g id="shape13-26" v:mID="13" v:groupContext="shape" transform="translate(110.617,-48.7909)">
			<title>工作表.13</title>
			<rect x="0" y="111.197" width="10.8" height="10.8" class="st3"/>
		</g>
		<g id="shape14-28" v:mID="14" v:groupContext="shape" transform="translate(134.167,-48.7909)">
			<title>工作表.14</title>
			<rect x="0" y="111.197" width="10.8" height="10.8" class="st3"/>
		</g>
		<g id="shape15-30" v:mID="15" v:groupContext="shape" transform="translate(157.717,-48.7909)">
			<title>工作表.15</title>
			<rect x="0" y="111.197" width="10.8" height="10.8" class="st3"/>
		</g>
		<g id="shape16-32" v:mID="16" v:groupContext="shape" transform="translate(181.267,-48.7909)">
			<title>工作表.16</title>
			<rect x="0" y="111.197" width="10.8" height="10.8" class="st3"/>
		</g>
		<g id="shape17-34" v:mID="17" v:groupContext="shape" transform="translate(204.817,-48.7909)">
			<title>工作表.17</title>
			<rect x="0" y="111.197" width="10.8" height="10.8" class="st3"/>
		</g>
		<g id="shape18-36" v:mID="18" v:groupContext="shape" transform="translate(228.367,-48.7909)">
			<title>工作表.18</title>
			<rect x="0" y="111.197" width="10.8" height="10.8" class="st3"/>
		</g>
		<g id="shape19-38" v:mID="19" v:groupContext="shape" transform="translate(290.692,-74.2159)">
			<title>工作表.19</title>
			<rect x="0" y="111.197" width="10.8" height="10.8" class="st3"/>
		</g>
		<g id="shape20-40" v:mID="20" v:groupContext="shape" transform="translate(314.242,-74.2159)">
			<title>工作表.20</title>
			<rect x="0" y="111.197" width="10.8" height="10.8" class="st3"/>
		</g>
		<g id="shape21-42" v:mID="21" v:groupContext="shape" transform="translate(290.692,-48.7909)">
			<title>工作表.21</title>
			<rect x="0" y="111.197" width="10.8" height="10.8" class="st3"/>
		</g>
		<g id="shape22-44" v:mID="22" v:groupContext="shape" transform="translate(314.242,-48.7909)">
			<title>工作表.22</title>
			<rect x="0" y="111.197" width="10.8" height="10.8" class="st3"/>
		</g>
		<g id="shape23-46" v:mID="23" v:groupContext="shape" v:layerMember="0" transform="translate(337.267,-54.4159)">
			<title>动态连接线</title>
			<path d="M0 122 L0 79.45 L-197.44 79.45" class="st6"/>
		</g>
		<g id="shape24-49" v:mID="24" v:groupContext="shape" v:layerMember="0" transform="translate(296.204,-59.5909)">
			<title>动态连接线.24</title>
			<path d="M0 122 L0 115.28 L-133.09 115.28 L-133.09 107.37" class="st6"/>
		</g>
		<g id="shape25-52" v:mID="25" v:groupContext="shape" v:layerMember="0" transform="translate(319.593,-77.9292)">
			<title>动态连接线.26</title>
			<path d="M0 114.91 L0 106.77 L-85.83 106.77 L-85.83 114.91" class="st6"/>
		</g>
		<g id="shape26-55" v:mID="26" v:groupContext="shape" transform="translate(107.204,-100.241)">
			<title>工作表.26</title>
			<desc>11</desc>
			<v:textBlock v:margins="rect(4,4,4,4)"/>
			<v:textRect cx="8.4375" cy="118.454" width="16.88" height="7.08661"/>
			<rect x="0" y="114.91" width="16.875" height="7.08661" class="st4"/>
			<text x="4.89" y="120.55" class="st5" v:langID="2052"><v:paragraph v:horizAlign="1"/><v:tabList/>11</text>		</g>
		<g id="shape27-58" v:mID="27" v:groupContext="shape" transform="translate(132.517,-100.241)">
			<title>工作表.27</title>
			<desc>9</desc>
			<v:textBlock v:margins="rect(4,4,4,4)"/>
			<v:textRect cx="6.75" cy="118.454" width="13.5" height="7.08661"/>
			<rect x="0" y="114.91" width="13.5" height="7.08661" class="st4"/>
			<text x="4.98" y="120.55" class="st5" v:langID="2052"><v:paragraph v:horizAlign="1"/><v:tabList/>9</text>		</g>
		<g id="shape28-61" v:mID="28" v:groupContext="shape" transform="translate(156.142,-100.241)">
			<title>工作表.28</title>
			<desc>7</desc>
			<v:textBlock v:margins="rect(4,4,4,4)"/>
			<v:textRect cx="6.75" cy="118.454" width="13.5" height="7.08661"/>
			<rect x="0" y="114.91" width="13.5" height="7.08661" class="st4"/>
			<text x="4.98" y="120.55" class="st5" v:langID="2052"><v:paragraph v:horizAlign="1"/><v:tabList/>7</text>		</g>
		<g id="shape29-64" v:mID="29" v:groupContext="shape" transform="translate(179.767,-100.241)">
			<title>工作表.29</title>
			<desc>5</desc>
			<v:textBlock v:margins="rect(4,4,4,4)"/>
			<v:textRect cx="6.75" cy="118.454" width="13.5" height="7.08661"/>
			<rect x="0" y="114.91" width="13.5" height="7.08661" class="st4"/>
			<text x="4.98" y="120.55" class="st5" v:langID="2052"><v:paragraph v:horizAlign="1"/><v:tabList/>5</text>		</g>
		<g id="shape30-67" v:mID="30" v:groupContext="shape" transform="translate(201.704,-100.241)">
			<title>工作表.30</title>
			<desc>3</desc>
			<v:textBlock v:margins="rect(4,4,4,4)"/>
			<v:textRect cx="8.4375" cy="118.454" width="16.88" height="7.08661"/>
			<rect x="0" y="114.91" width="16.875" height="7.08661" class="st4"/>
			<text x="6.66" y="120.55" class="st5" v:langID="2052"><v:paragraph v:horizAlign="1"/><v:tabList/>3</text>		</g>
		<g id="shape31-70" v:mID="31" v:groupContext="shape" transform="translate(225.892,-100.241)">
			<title>工作表.31</title>
			<desc>1</desc>
			<v:textBlock v:margins="rect(4,4,4,4)"/>
			<v:textRect cx="8.4375" cy="118.454" width="16.88" height="7.08661"/>
			<rect x="0" y="114.91" width="16.875" height="7.08661" class="st4"/>
			<text x="6.66" y="120.55" class="st5" v:langID="2052"><v:paragraph v:horizAlign="1"/><v:tabList/>1</text>		</g>
		<g id="shape32-73" v:mID="32" v:groupContext="shape" transform="translate(84.1419,-28.6913)">
			<title>工作表.32</title>
			<desc>14</desc>
			<v:textBlock v:margins="rect(4,4,4,4)"/>
			<v:textRect cx="8.4375" cy="118.454" width="16.88" height="7.08661"/>
			<rect x="0" y="114.91" width="16.875" height="7.08661" class="st4"/>
			<text x="4.89" y="120.55" class="st5" v:langID="2052"><v:paragraph v:horizAlign="1"/><v:tabList/>14</text>		</g>
		<g id="shape33-76" v:mID="33" v:groupContext="shape" transform="translate(107.767,-28.6913)">
			<title>工作表.33</title>
			<desc>12</desc>
			<v:textBlock v:margins="rect(4,4,4,4)"/>
			<v:textRect cx="8.4375" cy="118.454" width="16.88" height="7.08661"/>
			<rect x="0" y="114.91" width="16.875" height="7.08661" class="st4"/>
			<text x="4.89" y="120.55" class="st5" v:langID="2052"><v:paragraph v:horizAlign="1"/><v:tabList/>12</text>		</g>
		<g id="shape34-79" v:mID="34" v:groupContext="shape" transform="translate(130.829,-28.6913)">
			<title>工作表.34</title>
			<desc>10</desc>
			<v:textBlock v:margins="rect(4,4,4,4)"/>
			<v:textRect cx="8.4375" cy="118.454" width="16.88" height="7.08661"/>
			<rect x="0" y="114.91" width="16.875" height="7.08661" class="st4"/>
			<text x="4.89" y="120.55" class="st5" v:langID="2052"><v:paragraph v:horizAlign="1"/><v:tabList/>10</text>		</g>
		<g id="shape35-82" v:mID="35" v:groupContext="shape" transform="translate(156.142,-28.6913)">
			<title>工作表.35</title>
			<desc>8</desc>
			<v:textBlock v:margins="rect(4,4,4,4)"/>
			<v:textRect cx="6.75" cy="118.454" width="13.5" height="7.08661"/>
			<rect x="0" y="114.91" width="13.5" height="7.08661" class="st4"/>
			<text x="4.98" y="120.55" class="st5" v:langID="2052"><v:paragraph v:horizAlign="1"/><v:tabList/>8</text>		</g>
		<g id="shape36-85" v:mID="36" v:groupContext="shape" transform="translate(178.079,-28.6913)">
			<title>工作表.36</title>
			<desc>6</desc>
			<v:textBlock v:margins="rect(4,4,4,4)"/>
			<v:textRect cx="8.4375" cy="118.454" width="16.88" height="7.08661"/>
			<rect x="0" y="114.91" width="16.875" height="7.08661" class="st4"/>
			<text x="6.66" y="120.55" class="st5" v:langID="2052"><v:paragraph v:horizAlign="1"/><v:tabList/>6</text>		</g>
		<g id="shape37-88" v:mID="37" v:groupContext="shape" transform="translate(201.704,-28.6913)">
			<title>工作表.37</title>
			<desc>4</desc>
			<v:textBlock v:margins="rect(4,4,4,4)"/>
			<v:textRect cx="8.4375" cy="118.454" width="16.88" height="7.08661"/>
			<rect x="0" y="114.91" width="16.875" height="7.08661" class="st4"/>
			<text x="6.66" y="120.55" class="st5" v:langID="2052"><v:paragraph v:horizAlign="1"/><v:tabList/>4</text>		</g>
		<g id="shape38-91" v:mID="38" v:groupContext="shape" transform="translate(225.892,-28.6913)">
			<title>工作表.38</title>
			<desc>2</desc>
			<v:textBlock v:margins="rect(4,4,4,4)"/>
			<v:textRect cx="8.4375" cy="118.454" width="16.88" height="7.08661"/>
			<rect x="0" y="114.91" width="16.875" height="7.08661" class="st4"/>
			<text x="6.66" y="120.55" class="st5" v:langID="2052"><v:paragraph v:horizAlign="1"/><v:tabList/>2</text>		</g>
		<g id="shape39-94" v:mID="39" v:groupContext="shape" transform="translate(173.579,-18.3971)">
			<title>工作表.39</title>
			<desc>GND</desc>
			<v:textBlock v:margins="rect(4,4,4,4)"/>
			<v:textRect cx="12.9375" cy="117.272" width="25.88" height="9.45"/>
			<rect x="0" y="112.547" width="25.875" height="9.45" class="st4"/>
			<text x="5.37" y="119.67" class="st7" v:langID="2052"><v:paragraph v:horizAlign="1"/><v:tabList/>GND</text>		</g>
		<g id="shape40-97" v:mID="40" v:groupContext="shape" transform="translate(197.767,-18.3971)">
			<title>工作表.40</title>
			<desc>GND</desc>
			<v:textBlock v:margins="rect(4,4,4,4)"/>
			<v:textRect cx="12.9375" cy="117.272" width="25.88" height="9.45"/>
			<rect x="0" y="112.547" width="25.875" height="9.45" class="st4"/>
			<text x="5.37" y="119.67" class="st7" v:langID="2052"><v:paragraph v:horizAlign="1"/><v:tabList/>GND</text>		</g>
		<g id="shape41-100" v:mID="41" v:groupContext="shape" transform="translate(282.704,-28.6913)">
			<title>工作表.41</title>
			<desc>DATA</desc>
			<v:textBlock v:margins="rect(4,4,4,4)"/>
			<v:textRect cx="14.0625" cy="118.454" width="28.13" height="7.08661"/>
			<rect x="0" y="114.91" width="28.125" height="7.08661" class="st4"/>
			<text x="6.15" y="120.55" class="st5" v:langID="2052"><v:paragraph v:horizAlign="1"/><v:tabList/>DATA</text>		</g>
		<g id="shape42-103" v:mID="42" v:groupContext="shape" transform="translate(308.017,-28.6913)">
			<title>工作表.42</title>
			<desc>CLK</desc>
			<v:textBlock v:margins="rect(4,4,4,4)"/>
			<v:textRect cx="11.7187" cy="118.454" width="23.44" height="7.08661"/>
			<rect x="0" y="114.91" width="23.4375" height="7.08661" class="st4"/>
			<text x="6.56" y="120.55" class="st5" v:langID="2052"><v:paragraph v:horizAlign="1"/><v:tabList/>CLK</text>		</g>
		<g id="shape43-106" v:mID="43" v:groupContext="shape" transform="translate(282.142,-100.241)">
			<title>工作表.43</title>
			<desc>GND</desc>
			<v:textBlock v:margins="rect(4,4,4,4)"/>
			<v:textRect cx="14.0625" cy="118.454" width="28.13" height="7.08661"/>
			<rect x="0" y="114.91" width="28.125" height="7.08661" class="st4"/>
			<text x="7.44" y="120.55" class="st5" v:langID="2052"><v:paragraph v:horizAlign="1"/><v:tabList/>GND</text>		</g>
		<g id="shape44-109" v:mID="44" v:groupContext="shape" transform="translate(305.767,-100.241)">
			<title>工作表.44</title>
			<desc>1833</desc>
			<v:textBlock v:margins="rect(4,4,4,4)"/>
			<v:textRect cx="14.0625" cy="118.454" width="28.13" height="7.08661"/>
			<rect x="0" y="114.91" width="28.125" height="7.08661" class="st4"/>
			<text x="6.97" y="120.55" class="st5" v:langID="2052"><v:paragraph v:horizAlign="1"/><v:tabList/>1833</text>		</g>
		<g id="shape45-112" v:mID="45" v:groupContext="shape" transform="translate(107.229,-3.18055)">
			<title>工作表.45</title>
			<desc>J-Link</desc>
			<v:textBlock v:margins="rect(4,4,4,4)"/>
			<v:textRect cx="21.6563" cy="116.597" width="43.32" height="10.8"/>
			<rect x="0" y="111.197" width="43.3125" height="10.8" class="st4"/>
			<text x="10.38" y="119.6" class="st8" v:langID="2052"><v:paragraph v:horizAlign="1"/><v:tabList/>J-Link</text>		</g>
		<g id="shape46-115" v:mID="46" v:groupContext="shape" transform="translate(304.698,-3.18055)">
			<title>工作表.46</title>
			<desc>SWD</desc>
			<v:textBlock v:margins="rect(4,4,4,4)"/>
			<v:textRect cx="16.3125" cy="116.597" width="32.63" height="10.8"/>
			<rect x="0" y="111.197" width="32.625" height="10.8" class="st4"/>
			<text x="6.49" y="119.6" class="st8" v:langID="2052"><v:paragraph v:horizAlign="1"/><v:tabList/>SWD</text>		</g>
		<g id="shape47-118" v:mID="47" v:groupContext="shape" transform="translate(150.517,-18.3971)">
			<title>工作表.47</title>
			<desc>GND</desc>
			<v:textBlock v:margins="rect(4,4,4,4)"/>
			<v:textRect cx="12.9375" cy="117.272" width="25.88" height="9.45"/>
			<rect x="0" y="112.547" width="25.875" height="9.45" class="st4"/>
			<text x="5.37" y="119.67" class="st7" v:langID="2052"><v:paragraph v:horizAlign="1"/><v:tabList/>GND</text>		</g>
		<g id="shape48-121" v:mID="48" v:groupContext="shape" transform="translate(126.892,-18.3971)">
			<title>工作表.48</title>
			<desc>GND</desc>
			<v:textBlock v:margins="rect(4,4,4,4)"/>
			<v:textRect cx="12.9375" cy="117.272" width="25.88" height="9.45"/>
			<rect x="0" y="112.547" width="25.875" height="9.45" class="st4"/>
			<text x="5.37" y="119.67" class="st7" v:langID="2052"><v:paragraph v:horizAlign="1"/><v:tabList/>GND</text>		</g>
		<g id="shape49-124" v:mID="49" v:groupContext="shape" transform="translate(103.829,-18.3971)">
			<title>工作表.49</title>
			<desc>GND</desc>
			<v:textBlock v:margins="rect(4,4,4,4)"/>
			<v:textRect cx="12.9375" cy="117.272" width="25.88" height="9.45"/>
			<rect x="0" y="112.547" width="25.875" height="9.45" class="st4"/>
			<text x="5.37" y="119.67" class="st7" v:langID="2052"><v:paragraph v:horizAlign="1"/><v:tabList/>GND</text>		</g>
		<g id="shape50-127" v:mID="50" v:groupContext="shape" transform="translate(80.7669,-18.3971)">
			<title>工作表.50</title>
			<desc>GND</desc>
			<v:textBlock v:margins="rect(4,4,4,4)"/>
			<v:textRect cx="12.9375" cy="117.272" width="25.88" height="9.45"/>
			<rect x="0" y="112.547" width="25.875" height="9.45" class="st4"/>
			<text x="5.37" y="119.67" class="st7" v:langID="2052"><v:paragraph v:horizAlign="1"/><v:tabList/>GND</text>		</g>
		<g id="shape51-130" v:mID="51" v:groupContext="shape" transform="translate(16.9419,-73.9721)">
			<title>工作表.51</title>
			<rect x="0" y="111.197" width="10.8" height="10.8" class="st3"/>
		</g>
		<g id="shape52-132" v:mID="52" v:groupContext="shape" transform="translate(40.4919,-73.9721)">
			<title>工作表.52</title>
			<rect x="0" y="111.197" width="10.8" height="10.8" class="st3"/>
		</g>
		<g id="shape53-134" v:mID="53" v:groupContext="shape" transform="translate(64.0419,-73.9721)">
			<title>工作表.53</title>
			<rect x="0" y="111.197" width="10.8" height="10.8" class="st3"/>
		</g>
		<g id="shape54-136" v:mID="54" v:groupContext="shape" transform="translate(16.9419,-48.5471)">
			<title>工作表.54</title>
			<rect x="0" y="111.197" width="10.8" height="10.8" class="st3"/>
		</g>
		<g id="shape55-138" v:mID="55" v:groupContext="shape" transform="translate(40.4919,-48.5471)">
			<title>工作表.55</title>
			<rect x="0" y="111.197" width="10.8" height="10.8" class="st3"/>
		</g>
		<g id="shape56-140" v:mID="56" v:groupContext="shape" transform="translate(64.0419,-48.5471)">
			<title>工作表.56</title>
			<rect x="0" y="111.197" width="10.8" height="10.8" class="st3"/>
		</g>
		<g id="shape57-142" v:mID="57" v:groupContext="shape" transform="translate(14.3919,-28.6913)">
			<title>工作表.57</title>
			<desc>20</desc>
			<v:textBlock v:margins="rect(4,4,4,4)"/>
			<v:textRect cx="8.4375" cy="118.454" width="16.88" height="7.08661"/>
			<rect x="0" y="114.91" width="16.875" height="7.08661" class="st4"/>
			<text x="4.89" y="120.55" class="st5" v:langID="2052"><v:paragraph v:horizAlign="1"/><v:tabList/>20</text>		</g>
		<g id="shape58-145" v:mID="58" v:groupContext="shape" transform="translate(38.0169,-28.6913)">
			<title>工作表.58</title>
			<desc>18</desc>
			<v:textBlock v:margins="rect(4,4,4,4)"/>
			<v:textRect cx="8.4375" cy="118.454" width="16.88" height="7.08661"/>
			<rect x="0" y="114.91" width="16.875" height="7.08661" class="st4"/>
			<text x="4.89" y="120.55" class="st5" v:langID="2052"><v:paragraph v:horizAlign="1"/><v:tabList/>18</text>		</g>
		<g id="shape59-148" v:mID="59" v:groupContext="shape" transform="translate(61.0794,-28.6913)">
			<title>工作表.59</title>
			<desc>16</desc>
			<v:textBlock v:margins="rect(4,4,4,4)"/>
			<v:textRect cx="8.4375" cy="118.454" width="16.88" height="7.08661"/>
			<rect x="0" y="114.91" width="16.875" height="7.08661" class="st4"/>
			<text x="4.89" y="120.55" class="st5" v:langID="2052"><v:paragraph v:horizAlign="1"/><v:tabList/>16</text>		</g>
		<g id="shape60-151" v:mID="60" v:groupContext="shape" transform="translate(56.5794,-18.3971)">
			<title>工作表.60</title>
			<desc>GND</desc>
			<v:textBlock v:margins="rect(4,4,4,4)"/>
			<v:textRect cx="12.9375" cy="117.272" width="25.88" height="9.45"/>
			<rect x="0" y="112.547" width="25.875" height="9.45" class="st4"/>
			<text x="5.37" y="119.67" class="st7" v:langID="2052"><v:paragraph v:horizAlign="1"/><v:tabList/>GND</text>		</g>
		<g id="shape61-154" v:mID="61" v:groupContext="shape" transform="translate(33.5169,-18.3971)">
			<title>工作表.61</title>
			<desc>GND</desc>
			<v:textBlock v:margins="rect(4,4,4,4)"/>
			<v:textRect cx="12.9375" cy="117.272" width="25.88" height="9.45"/>
			<rect x="0" y="112.547" width="25.875" height="9.45" class="st4"/>
			<text x="5.37" y="119.67" class="st7" v:langID="2052"><v:paragraph v:horizAlign="1"/><v:tabList/>GND</text>		</g>
		<g id="shape62-157" v:mID="62" v:groupContext="shape" transform="translate(10.4544,-18.3971)">
			<title>工作表.62</title>
			<desc>GND</desc>
			<v:textBlock v:margins="rect(4,4,4,4)"/>
			<v:textRect cx="12.9375" cy="117.272" width="25.88" height="9.45"/>
			<rect x="0" y="112.547" width="25.875" height="9.45" class="st4"/>
			<text x="5.37" y="119.67" class="st7" v:langID="2052"><v:paragraph v:horizAlign="1"/><v:tabList/>GND</text>		</g>
		<g id="shape63-160" v:mID="63" v:groupContext="shape" transform="translate(221.392,-18.3971)">
			<title>工作表.63</title>
			<desc>VCC</desc>
			<v:textBlock v:margins="rect(4,4,4,4)"/>
			<v:textRect cx="12.9375" cy="117.272" width="25.88" height="9.45"/>
			<rect x="0" y="112.547" width="25.875" height="9.45" class="st4"/>
			<text x="6.4" y="119.67" class="st7" v:langID="2052"><v:paragraph v:horizAlign="1"/><v:tabList/>VCC</text>		</g>
		<g id="shape64-163" v:mID="64" v:groupContext="shape" transform="translate(213.517,-10.6909)">
			<title>工作表.64</title>
			<desc>(optional)</desc>
			<v:textBlock v:margins="rect(4,4,4,4)"/>
			<v:textRect cx="21.9375" cy="116.597" width="43.88" height="10.8"/>
			<rect x="0" y="111.197" width="43.875" height="10.8" class="st4"/>
			<text x="6" y="119" class="st7" v:langID="2052"><v:paragraph v:horizAlign="1"/><v:tabList/>(optional)</text>		</g>
		<g id="shape65-166" v:mID="65" v:groupContext="shape" v:layerMember="0" transform="translate(132.743,-97.9525)">
			<title>动态连接线.82</title>
			<path d="M7.09 123.08 L7.09 135.08" class="st6"/>
		</g>
		<g id="shape66-169" v:mID="66" v:groupContext="shape" v:layerMember="0" transform="translate(323.955,-47.1792)">
			<title>动态连接线.83</title>
			<path d="M1.16 114.91 L13.01 114.91" class="st6"/>
		</g>
		<g id="shape67-172" v:mID="67" v:groupContext="shape" v:layerMember="0" transform="translate(296.543,-79.4284)">
			<title>动态连接线.86</title>
			<path d="M4.95 122 L9.22 122 L9.22 161.37" class="st6"/>
		</g>
		<g id="shape68-175" v:mID="68" v:groupContext="shape" v:layerMember="0" transform="translate(210.142,-51.5087)">
			<title>动态连接线.87</title>
			<path d="M0 124.71 L0 133.45 L95.62 133.45" class="st6"/>
		</g>
		<g id="shape69-178" v:mID="69" v:groupContext="shape" transform="translate(221.204,-107.778)">
			<title>工作表.69</title>
			<desc>VCC</desc>
			<v:textBlock v:margins="rect(4,4,4,4)"/>
			<v:textRect cx="12.9375" cy="117.272" width="25.88" height="9.45"/>
			<rect x="0" y="112.547" width="25.875" height="9.45" class="st4"/>
			<text x="6.4" y="119.67" class="st7" v:langID="2052"><v:paragraph v:horizAlign="1"/><v:tabList/>VCC</text>		</g>
		<g id="shape70-181" v:mID="70" v:groupContext="shape" transform="translate(197.204,-107.778)">
			<title>工作表.70</title>
			<desc>N/U</desc>
			<v:textBlock v:margins="rect(4,4,4,4)"/>
			<v:textRect cx="12.9375" cy="117.272" width="25.88" height="9.45"/>
			<rect x="0" y="112.547" width="25.875" height="9.45" class="st4"/>
			<text x="6.24" y="119.67" class="st7" v:langID="2052"><v:paragraph v:horizAlign="1"/><v:tabList/>N/U</text>		</g>
		<g id="shape71-184" v:mID="71" v:groupContext="shape" transform="translate(173.579,-107.778)">
			<title>工作表.71</title>
			<desc>N/U</desc>
			<v:textBlock v:margins="rect(4,4,4,4)"/>
			<v:textRect cx="12.9375" cy="117.272" width="25.88" height="9.45"/>
			<rect x="0" y="112.547" width="25.875" height="9.45" class="st4"/>
			<text x="6.24" y="119.67" class="st7" v:langID="2052"><v:paragraph v:horizAlign="1"/><v:tabList/>N/U</text>		</g>
		<g id="shape72-187" v:mID="72" v:groupContext="shape" transform="translate(103.267,-107.778)">
			<title>工作表.72</title>
			<desc>N/U</desc>
			<v:textBlock v:margins="rect(4,4,4,4)"/>
			<v:textRect cx="12.9375" cy="117.272" width="25.88" height="9.45"/>
			<rect x="0" y="112.547" width="25.875" height="9.45" class="st4"/>
			<text x="6.24" y="119.67" class="st7" v:langID="2052"><v:paragraph v:horizAlign="1"/><v:tabList/>N/U</text>		</g>
		<g id="shape73-190" v:mID="73" v:groupContext="shape" transform="translate(148.267,-107.778)">
			<title>工作表.73</title>
			<desc>SWDIO</desc>
			<v:textBlock v:margins="rect(4,4,4,4)"/>
			<v:textRect cx="16.3125" cy="117.272" width="32.63" height="9.45"/>
			<rect x="0" y="112.547" width="32.625" height="9.45" class="st4"/>
			<text x="4.8" y="119.67" class="st7" v:langID="2052"><v:paragraph v:horizAlign="1"/><v:tabList/>SWDIO</text>		</g>
		<g id="shape74-193" v:mID="74" v:groupContext="shape" transform="translate(121.829,-107.778)">
			<title>工作表.74</title>
			<desc>SWCLK</desc>
			<v:textBlock v:margins="rect(4,4,4,4)"/>
			<v:textRect cx="16.3125" cy="117.272" width="32.63" height="9.45"/>
			<rect x="0" y="112.547" width="32.625" height="9.45" class="st4"/>
			<text x="5.02" y="119.67" class="st7" v:langID="2052"><v:paragraph v:horizAlign="1"/><v:tabList/>SWCLK</text>		</g>
		<g id="shape75-196" v:mID="75" v:groupContext="shape" transform="translate(79.6419,-107.778)">
			<title>工作表.75</title>
			<desc>SWO</desc>
			<v:textBlock v:margins="rect(4,4,4,4)"/>
			<v:textRect cx="12.9375" cy="117.272" width="25.88" height="9.45"/>
			<rect x="0" y="112.547" width="25.875" height="9.45" class="st4"/>
			<text x="4.89" y="119.67" class="st7" v:langID="2052"><v:paragraph v:horizAlign="1"/><v:tabList/>SWO</text>		</g>
		<g id="shape76-199" v:mID="76" v:groupContext="shape" transform="translate(14.3919,-100.241)">
			<title>工作表.76</title>
			<desc>19</desc>
			<v:textBlock v:margins="rect(4,4,4,4)"/>
			<v:textRect cx="8.4375" cy="118.454" width="16.88" height="7.08661"/>
			<rect x="0" y="114.91" width="16.875" height="7.08661" class="st4"/>
			<text x="4.89" y="120.55" class="st5" v:langID="2052"><v:paragraph v:horizAlign="1"/><v:tabList/>19</text>		</g>
		<g id="shape77-202" v:mID="77" v:groupContext="shape" transform="translate(37.4544,-100.241)">
			<title>工作表.77</title>
			<desc>17</desc>
			<v:textBlock v:margins="rect(4,4,4,4)"/>
			<v:textRect cx="8.4375" cy="118.454" width="16.88" height="7.08661"/>
			<rect x="0" y="114.91" width="16.875" height="7.08661" class="st4"/>
			<text x="4.89" y="120.55" class="st5" v:langID="2052"><v:paragraph v:horizAlign="1"/><v:tabList/>17</text>		</g>
		<g id="shape78-205" v:mID="78" v:groupContext="shape" transform="translate(60.5169,-100.241)">
			<title>工作表.78</title>
			<desc>15</desc>
			<v:textBlock v:margins="rect(4,4,4,4)"/>
			<v:textRect cx="8.4375" cy="118.454" width="16.88" height="7.08661"/>
			<rect x="0" y="114.91" width="16.875" height="7.08661" class="st4"/>
			<text x="4.89" y="120.55" class="st5" v:langID="2052"><v:paragraph v:horizAlign="1"/><v:tabList/>15</text>		</g>
		<g id="shape79-208" v:mID="79" v:groupContext="shape" transform="translate(32.9544,-107.778)">
			<title>工作表.79</title>
			<desc>N/C</desc>
			<v:textBlock v:margins="rect(4,4,4,4)"/>
			<v:textRect cx="12.9375" cy="117.272" width="25.88" height="9.45"/>
			<rect x="0" y="112.547" width="25.875" height="9.45" class="st4"/>
			<text x="6.68" y="119.67" class="st7" v:langID="2052"><v:paragraph v:horizAlign="1"/><v:tabList/>N/C</text>		</g>
		<g id="shape80-211" v:mID="80" v:groupContext="shape" transform="translate(9.89185,-107.778)">
			<title>工作表.80</title>
			<desc>N/C</desc>
			<v:textBlock v:margins="rect(4,4,4,4)"/>
			<v:textRect cx="12.9375" cy="117.272" width="25.88" height="9.45"/>
			<rect x="0" y="112.547" width="25.875" height="9.45" class="st4"/>
			<text x="6.68" y="119.67" class="st7" v:langID="2052"><v:paragraph v:horizAlign="1"/><v:tabList/>N/C</text>		</g>
		<g id="shape81-214" v:mID="81" v:groupContext="shape" transform="translate(54.3294,-107.778)">
			<title>工作表.81</title>
			<desc>RESET</desc>
			<v:textBlock v:margins="rect(4,4,4,4)"/>
			<v:textRect cx="14.625" cy="117.272" width="29.25" height="9.45"/>
			<rect x="0" y="112.547" width="29.25" height="9.45" class="st4"/>
			<text x="4.76" y="119.67" class="st7" v:langID="2052"><v:paragraph v:horizAlign="1"/><v:tabList/>RESET</text>		</g>
	</g>
</svg>
