<?xml version="1.0" encoding="UTF-8" standalone="no"?>
<!DOCTYPE svg PUBLIC "-//W3C//DTD SVG 1.1//EN" "http://www.w3.org/Graphics/SVG/1.1/DTD/svg11.dtd">
<!-- 由 Microsoft Visio, SVG Export 生成 Microsoft_Visio___.svg 页-1 -->
<svg xmlns="http://www.w3.org/2000/svg" xmlns:xlink="http://www.w3.org/1999/xlink" xmlns:ev="http://www.w3.org/2001/xml-events"
		xmlns:v="http://schemas.microsoft.com/visio/2003/SVGExtensions/" width="4.95321in" height="3.23064in"
		viewBox="0 0 356.631 232.606" xml:space="preserve" color-interpolation-filters="sRGB" class="st9">
	<v:documentProperties v:langID="2052" v:metric="true" v:viewMarkup="false"/>

	<style type="text/css">
	<![CDATA[
		.st1 {stroke:#000000;stroke-linecap:round;stroke-linejoin:round;stroke-width:0.75}
		.st2 {fill:none;stroke:#000000;stroke-linecap:round;stroke-linejoin:round;stroke-width:0.75}
		.st3 {fill:none;stroke:none;stroke-linecap:round;stroke-linejoin:round;stroke-width:0.75}
		.st4 {fill:#000000;font-family:Calibri;font-size:0.666664em}
		.st5 {marker-start:url(#mrkr5-26);stroke:#000000;stroke-linecap:round;stroke-linejoin:round;stroke-width:0.75}
		.st6 {fill:#000000;fill-opacity:1;stroke:#000000;stroke-opacity:1;stroke-width:0.22935779816514}
		.st7 {fill:#ffffff;stroke:none;stroke-linecap:butt;stroke-width:7.2}
		.st8 {fill:#ffffff;stroke:#000000;stroke-dasharray:5.25,3.75;stroke-linecap:round;stroke-linejoin:round;stroke-width:0.75}
		.st9 {fill:none;fill-rule:evenodd;font-size:12px;overflow:visible;stroke-linecap:square;stroke-miterlimit:3}
	]]>
	</style>

	<defs id="Markers">
		<g id="lend5">
			<path d="M 2 1 L 0 0 L 1.98117 -0.993387 C 1.67173 -0.364515 1.67301 0.372641 1.98465 1.00043 " style="stroke:none"/>
		</g>
		<marker id="mrkr5-26" class="st6" v:arrowType="5" v:arrowSize="2" v:setback="7.15" refX="7.15" orient="auto"
				markerUnits="strokeWidth" overflow="visible">
			<use xlink:href="#lend5" transform="scale(4.36) "/>
		</marker>
	</defs>
	<g v:mID="0" v:index="1" v:groupContext="foregroundPage">
		<title>页-1</title>
		<v:pageProperties v:drawingScale="0.0393701" v:pageScale="0.0393701" v:drawingUnits="24" v:shadowOffsetX="8.50394"
				v:shadowOffsetY="-8.50394"/>
		<g id="shape1-1" v:mID="1" v:groupContext="shape" transform="translate(351.044,80.8701) rotate(90)">
			<title>工作表.1</title>
			<path d="M0 232.61 L122.93 232.61" class="st1"/>
		</g>
		<g id="shape2-4" v:mID="2" v:groupContext="shape" transform="translate(328.367,95.0433) rotate(90)">
			<title>工作表.2</title>
			<path d="M0 232.61 L96.73 232.61" class="st1"/>
		</g>
		<g id="shape3-7" v:mID="3" v:groupContext="shape" transform="translate(-27.5203,-102.206) rotate(-32.0054)">
			<title>工作表.3</title>
			<path d="M0 232.61 L26.74 232.61" class="st1"/>
		</g>
		<g id="shape4-10" v:mID="4" v:groupContext="shape" transform="translate(212.964,-9.49915) rotate(30.2564)">
			<title>工作表.4</title>
			<path d="M0 232.61 L26.25 232.61" class="st1"/>
		</g>
		<g id="shape5-13" v:mID="5" v:groupContext="shape" transform="translate(56.6929,-18)">
			<title>工作表.5</title>
			<rect x="0" y="62.1024" width="231.874" height="170.504" class="st2"/>
		</g>
		<g id="shape6-15" v:mID="6" v:groupContext="shape" transform="translate(95.7608,372.337) rotate(180)">
			<title>工作表.6</title>
			<path d="M0 232.61 L70.96 232.61" class="st1"/>
		</g>
		<g id="shape7-18" v:mID="7" v:groupContext="shape" transform="translate(23.5463,-94.1358)">
			<title>工作表.7</title>
			<desc>PB30</desc>
			<v:textBlock v:margins="rect(4,4,4,4)" v:tabSpace="42.5197"/>
			<v:textRect cx="15.156" cy="226.9" width="30.32" height="11.4134"/>
			<rect x="0" y="221.193" width="30.312" height="11.4134" class="st3"/>
			<text x="6.86" y="229.3" class="st4" v:langID="2052"><v:paragraph v:horizAlign="1"/><v:tabList/>PB30</text>		</g>
		<g id="shape10-21" v:mID="10" v:groupContext="shape" transform="translate(-126.048,88.2951) rotate(-90)">
			<title>工作表.10</title>
			<path d="M5.36 232.61 L5.72 232.61 L25.85 232.61" class="st5"/>
		</g>
		<g id="shape11-27" v:mID="11" v:groupContext="shape" transform="translate(58.5103,-170.87)">
			<title>工作表.11</title>
			<desc>Pinmux selection: Function ID</desc>
			<v:textBlock v:margins="rect(4,4,4,4)" v:tabSpace="42.5197"/>
			<v:textRect cx="54.9646" cy="226.9" width="109.93" height="11.4134"/>
			<rect x="0" y="221.193" width="109.929" height="11.4134" class="st3"/>
			<text x="4" y="229.3" class="st4" v:langID="2052"><v:paragraph/><v:tabList/>Pinmux selection: Function ID</text>		</g>
		<g id="shape12-30" v:mID="12" v:groupContext="shape" transform="translate(118.406,-134.646)">
			<title>工作表.12</title>
			<desc>UART1_RXD</desc>
			<v:textBlock v:margins="rect(4,4,4,4)" v:tabSpace="42.5197"/>
			<v:textRect cx="57.7264" cy="232.606" width="115.46" height="0"/>
			<path d="M0 232.61 L115.45 232.61" class="st1"/>
			<rect v:rectContext="textBkgnd" x="37.9959" y="227.806" width="39.461" height="9.59985" class="st7"/>
			<text x="38" y="235.01" class="st4" v:langID="2052"><v:paragraph v:horizAlign="1"/><v:tabList/>UART1_RXD</text>		</g>
		<g id="shape14-35" v:mID="14" v:groupContext="shape" transform="translate(118.04,-137.11)">
			<title>工作表.14</title>
			<desc>1</desc>
			<v:textBlock v:margins="rect(4,4,4,4)" v:tabSpace="42.5197"/>
			<v:textRect cx="11.3386" cy="228.354" width="22.68" height="8.50394"/>
			<rect x="0" y="224.102" width="22.6772" height="8.50394" class="st3"/>
			<text x="9.31" y="230.75" class="st4" v:langID="2052"><v:paragraph v:horizAlign="1"/><v:tabList/>1</text>		</g>
		<g id="shape20-38" v:mID="20" v:groupContext="shape" transform="translate(118.701,-92.126)">
			<title>工作表.20</title>
			<desc>OSPI_DC_SEL</desc>
			<v:textBlock v:margins="rect(4,4,4,4)" v:tabSpace="42.5197"/>
			<v:textRect cx="57.5787" cy="232.606" width="115.16" height="0"/>
			<path d="M0 232.61 L115.16 232.61" class="st1"/>
			<rect v:rectContext="textBkgnd" x="35.9673" y="227.806" width="43.2227" height="9.59985" class="st7"/>
			<text x="35.97" y="235.01" class="st4" v:langID="2052"><v:paragraph v:horizAlign="1"/><v:tabList/>OSPI_DC_SEL</text>		</g>
		<g id="shape21-43" v:mID="21" v:groupContext="shape" transform="translate(119.055,-93.2283)">
			<title>工作表.21</title>
			<desc>5</desc>
			<v:textBlock v:margins="rect(4,4,4,4)" v:tabSpace="42.5197"/>
			<v:textRect cx="11.3386" cy="228.354" width="22.68" height="8.50394"/>
			<rect x="0" y="224.102" width="22.6772" height="8.50394" class="st3"/>
			<text x="9.31" y="230.75" class="st4" v:langID="2052"><v:paragraph v:horizAlign="1"/><v:tabList/>5</text>		</g>
		<g id="shape23-46" v:mID="23" v:groupContext="shape" transform="translate(118.406,-47.1339)">
			<title>工作表.23</title>
			<desc>TIM9_TRIG</desc>
			<v:textBlock v:margins="rect(4,4,4,4)" v:tabSpace="42.5197"/>
			<v:textRect cx="57.7264" cy="232.606" width="115.46" height="0"/>
			<path d="M0 232.61 L115.45 232.61" class="st1"/>
			<rect v:rectContext="textBkgnd" x="39.6774" y="227.806" width="36.0981" height="9.59985" class="st7"/>
			<text x="39.68" y="235.01" class="st4" v:langID="2052"><v:paragraph v:horizAlign="1"/><v:tabList/>TIM9_TRIG</text>		</g>
		<g id="shape24-51" v:mID="24" v:groupContext="shape" transform="translate(118.969,-49.5276)">
			<title>工作表.24</title>
			<desc>16</desc>
			<v:textBlock v:margins="rect(4,4,4,4)" v:tabSpace="42.5197"/>
			<v:textRect cx="11.3386" cy="228.354" width="22.68" height="8.50394"/>
			<rect x="0" y="224.102" width="22.6772" height="8.50394" class="st3"/>
			<text x="7.28" y="230.75" class="st4" v:langID="2052"><v:paragraph v:horizAlign="1"/><v:tabList/>16</text>		</g>
		<g id="shape29-54" v:mID="29" v:groupContext="shape" transform="translate(233.858,-117.72)">
			<title>工作表.29</title>
			<desc>UART1</desc>
			<v:textBlock v:margins="rect(4,4,4,4)" v:tabSpace="42.5197"/>
			<v:textRect cx="21.2598" cy="215.598" width="42.52" height="34.0157"/>
			<path d="M0 232.61 L42.52 232.61 L42.52 198.59 L0 198.59 L0 232.61 Z" class="st8"/>
			<text x="10.23" y="218" class="st4" v:langID="2052"><v:paragraph v:horizAlign="1"/><v:tabList/>UART1</text>		</g>
		<g id="shape31-57" v:mID="31" v:groupContext="shape" transform="translate(233.858,-73.2613)">
			<title>工作表.31</title>
			<desc>OPI</desc>
			<v:textBlock v:margins="rect(4,4,4,4)" v:tabSpace="42.5197"/>
			<v:textRect cx="21.2598" cy="215.598" width="42.52" height="34.0157"/>
			<path d="M0 232.61 L42.52 232.61 L42.52 198.59 L0 198.59 L0 232.61 Z" class="st8"/>
			<text x="15.54" y="218" class="st4" v:langID="2052"><v:paragraph v:horizAlign="1"/><v:tabList/>OPI</text>		</g>
		<g id="shape33-60" v:mID="33" v:groupContext="shape" transform="translate(233.858,-28.8021)">
			<title>工作表.33</title>
			<desc>Timer</desc>
			<v:textBlock v:margins="rect(4,4,4,4)" v:tabSpace="42.5197"/>
			<v:textRect cx="21.2598" cy="215.598" width="42.52" height="34.0157"/>
			<path d="M0 232.61 L42.52 232.61 L42.52 198.59 L0 198.59 L0 232.61 Z" class="st8"/>
			<text x="11.81" y="218" class="st4" v:langID="2052"><v:paragraph v:horizAlign="1"/><v:tabList/>Timer</text>		</g>
	</g>
</svg>
